
<svg xmlns="http://www.w3.org/2000/svg" version="1.1" xmlns:xlink="http://www.w3.org/1999/xlink" preserveAspectRatio="none" x="0px" y="0px" width="300px" height="500px" viewBox="0 0 300 500">
<defs>
<g id="frame_0_Layer0_0_FILL">
<path fill="#FFFFFF" stroke="none" d="
M 300.05 85.5
L 300.05 0 0 0 0 85.5 0 500 300.05 500 300.05 85.5
M 291.05 85
L 291.05 85.5 291.05 491 9 491 9 85.5 9 85 291.05 85 Z"/>
</g>

<g id="logo_0_Layer0_0_FILL">
<path fill="#0F2E1E" stroke="none" d="
M 9.9 18.6
L 0 18.6 0 74.1 39.4 74.1 39.4 65.25 9.9 65.25 9.9 18.6
M 91.25 61.55
L 97 74.1 108.65 74.1 81.95 18.6 70.8 18.6 46.15 74.1 56.45 74.1 61.8 61.55 91.25 61.55
M 65.45 53
L 76 28.3 87.3 53 65.45 53
M 126.75 32.85
Q 132.35 27.35 140.65 27.35 146.05 27.35 150.6 29.9 152.85 31.15 156.3 34.25
L 163.2 27.45
Q 159.8 23.65 156.2 21.5 149.4 17.45 140.5 17.45 128.05 17.45 119.55 25.1 110.5 33.2 110.5 46.35 110.5 59.55 119.45 67.65 127.9 75.25 140.4 75.25 148.3 75.25 155.6 71.65 160 69.45 163.65 66.2
L 158.15 58.45
Q 154.65 61.4 150.05 63.3 145.05 65.4 140.5 65.4 132.3 65.4 126.75 59.9 121.2 54.4 121.2 46.35 121.2 38.3 126.75 32.85
M 229.7 46.35
Q 229.7 33.2 220.7 25.1 212.2 17.45 199.7 17.45 187.25 17.45 178.75 25.1 169.7 33.2 169.7 46.35 169.7 59.5 178.75 67.65 187.25 75.25 199.7 75.25 212.2 75.25 220.7 67.65 229.7 59.5 229.7 46.35
M 213.5 32.85
Q 219 38.3 219 46.35 219 54.4 213.5 59.9 207.9 65.4 199.7 65.4 191.5 65.4 185.95 59.9 180.4 54.4 180.4 46.35 180.4 38.3 185.95 32.85 191.45 27.35 199.7 27.35 207.95 27.35 213.5 32.85
M 279.2 24.1
Q 276.75 21.8 271.85 19.9 265.65 17.45 259.05 17.45 248.7 17.45 243.05 22.65 238.15 27.15 238.15 33.95 238.15 40.4 242.95 44.35 246.3 47.1 253.45 49.4 262.55 52.3 263.95 53 268.75 55.3 268.75 59.05 268.75 62.45 265.65 64.3 262.9 65.95 258.45 65.95 252.95 65.95 247.55 63.85 243.6 62.3 240.7 60.15
L 237.35 68.6
Q 240.25 71 244.2 72.6 250.5 75.25 258.2 75.25 267.4 75.25 273.55 70.75 279.9 66.05 279.9 58.6 279.9 51.45 275.1 47.3 271.7 44.3 264.6 42.05 254.95 39.05 254.1 38.65 249.3 36.45 249.3 32.7 249.3 30.05 251.55 28.5 254.05 26.75 259.05 26.75 268.3 26.75 275.1 32.25
L 279.2 24.1
M 334.15 27.45
L 334.15 18.6 285.95 18.6 285.95 27.45 304.85 27.45 304.85 74.1 314.7 74.1 314.7 27.45 334.15 27.45
M 385 27.45
L 385 18.6 342.9 18.6 342.9 74.1 385.85 74.1 385.85 65.25 352.75 65.25 352.75 50.7 380.95 50.7 380.95 41.85 352.75 41.85 352.75 27.45 385 27.45 Z"/>
</g>

<g id="logo_0_Layer0_1_MEMBER_0_FILL">
<path fill="#125429" stroke="none" d="
M 576.6 33.9
Q 575.5 33.8 572.8 34.35
L 552.35 38.8
Q 550.7 35.75 548.5 36 545.75 36.85 543.7 36.6 540.7 35.7 538.5 35.8 534.5 35.9 530.3 39.75 525.8 38.5 521.3 40.95 514.8 38.3 512.25 37.6 504.6 35.45 495.4 35.45 491.3 35.45 485.1 36.35 476.5 37.6 466.25 40.3 463.1 41.15 460.9 40.85 458.45 40.5 457.8 38.8 456.55 35.4 466.05 30.9 472.25 27.95 486.4 24.2 499.65 20.75 510.6 14.95 517.45 11.35 520.25 6.5 521.95 3.65 521.95 1.1 521.95 0.25 521.3 0.05 520.7 -0.15 520.2 0.5 517.75 3.95 516.45 4.55 515.55 4.95 514.55 4 513.65 3.1 512.55 4.05 511.25 5.5 510.45 6.05 509.7 6.65 509.15 6.25 508.5 5.6 508 5.25 507.05 4.6 505.65 6 503.75 7.85 503.45 8 502.4 8.5 501.8 8.2 501.7 8.15 500.9 7.35 500.6 7 500.15 7.05 499.65 7.1 499.25 7.45 496.9 9.7 495.95 9.95 495.25 10.1 494.35 9.2 493.65 8.45 493.2 8.5 492.5 8.6 491 10.1 489.8 11.3 488.75 11.75 487.4 12.4 487 11.3 486.4 9.85 485.75 9.8 484.8 9.65 482.65 11.6 481.35 12.8 480.35 13 479.45 13.25 479 12.6 478.6 11.45 478.2 11.1 477.45 10.45 475.6 11.9 473.15 13.8 472.55 14.1 471.45 14.55 470.85 13.25 470.3 11.95 468.95 12.5 468.1 12.9 466.6 14.3 465.45 15.45 465.2 15.6 464.25 16.15 463.55 15 462.9 13.85 461.6 14.65 460.8 15.15 458.8 17.3 458 18.15 457.25 18 456.75 17.9 455.7 17.15 454.9 16.6 453.55 18.3 451.95 20.7 450.95 21.7 450.2 22.45 448.9 21.45 447.9 20.8 446.25 23.35 445.7 24.25 444.3 27.05 443.7 28.15 442.5 27.8 441.25 27.45 440.6 28.4 437.55 32.95 436.2 35.85 434 40.75 433.4 46.55 432.65 53.9 434.9 60.4 436.85 66.05 440.1 68.7
L 439.1 71.35
Q 438.2 73.8 438.1 76.15 437.95 78.9 438.95 80.8 440.35 83.5 441.9 84.7 443.9 86.35 444.7 83.65 445.15 82.2 445.7 82.1 446.25 82.05 447.75 83.1 449.5 84.35 449.95 82.9 450.2 80.9 450.5 80.35 450.85 79.7 451.4 79.75 452.1 79.8 453.75 80.85 454.7 81.45 455.2 80.85 455.6 80.35 455.95 78.85 456.8 75.3 455.5 73.55 454.6 72.3 452.3 71.85 451.2 71.65 449.85 71.7
L 448.7 71.8
Q 451.7 67.2 451.8 64.6 451.85 61.85 448.7 59.65 449.4 59.3 450.4 59.75 452.1 60.45 452.95 62 454.7 65.1 452.55 69.65 453.85 69.65 455.1 70.15 457.1 71.05 458.05 73.15 459.8 73.7 466.55 74.05 474 74.45 477.65 73.85 478.85 73.65 480.05 72.5 480.75 71.8 482.45 70 484.5 68.05 485.8 67.4 487.8 66.4 489.25 67.45 486.35 68.65 484.65 70.75 482.85 72.95 482.85 75.65 482.85 77.55 483.65 78.85 484.25 79.75 485.95 81.2 487.1 82.15 487.9 83.9 488.1 84.35 489 86.9 489.65 88.65 490.65 88.7 491.7 88.75 492 87.1 492.4 84.95 493.1 84.85 493.6 84.75 494.65 85.9 495.75 87.1 496.5 86.9 497.25 86.65 497.25 84.95 497.25 81.05 500.35 84.2 501.15 85.05 501.8 84.8 502.5 84.55 502.5 83 502.45 79.6 505.2 81.7 506.15 82.4 506.4 82.35 507.35 82.3 507.7 80.95 508.1 79.5 507.45 78.15 506.95 77.1 505.95 76.5 504.2 75.4 500.1 74.55 498.8 74.3 498.5 73.5
L 498.4 72.75
Q 522.65 73.85 534.9 66.4 546.6 69.3 565.45 69.1 569.7 69.05 572.1 68.75 575.2 68.35 577.35 67.3 579.65 66.25 579.8 64.65 579.95 63.25 578.65 62.4 577.9 61.95 576.95 61.65 575.85 61.4 575.3 61.2 574.4 60.95 573.7 59.9 572.95 58.75 572.8 58.7 572.2 58.5 571.25 59.15 570.25 59.85 570 59.75 569.65 59.65 569.2 58.45 568.75 57.2 568.5 57.1 567.9 56.9 566.9 57.6 565.85 58.3 565.6 58.2 565.25 58.1 564.75 56.9 564.25 55.7 564 55.6 563.4 55.4 562.4 56.1 561.35 56.85 561.1 56.75 560.75 56.6 560.3 55.4 559.9 54.15 559.65 54.05 559.05 53.8 557.95 54.55 556.85 55.3 556.35 55.2 554.3 54.9 552.3 53.6
L 550.5 52.25
Q 549.8 52.1 549.95 53.05 550.25 55.9 558.8 58.4 568.15 61.05 570.85 62.25 573.6 63.55 572.65 64.9 572.3 65.45 571.5 65.5 570.7 65.55 569.75 65.1 569 64.75 568.35 63.95 567.75 63.25 567.35 63.15 566.8 63 565.65 63.9 564.5 64.8 564.1 64.7 563.55 64.55 563 63.3 562.4 62 561.95 61.9 561.25 61.7 560.05 62.55 558.8 63.4 558.45 63.35 558 63.25 557.45 61.95 556.9 60.6 556.5 60.5 555.8 60.3 554.6 61.2 553.35 62.1 553 62 552.55 61.9 551.95 60.6 551.3 59.25 551 59.1 550.45 58.9 548.7 59.55 547.05 60.15 546.05 59.6 543.35 57.8 540.9 54.9 539.15 52.9 536.75 52.2 535.3 51.75 533 52.05 530.6 52.45 529.75 52.5 527.25 52.8 526.35 51.15
L 525.9 49.45
Q 527.55 49.9 528.1 49.95 529.75 50.05 531.7 49.35 534.25 48.4 536 48.4 537.95 48.35 541 49.35 543.25 50.1 545.35 49.85 545.7 49.8 547.95 49.15 548.8 48.95 548.85 48.95 549.4 48.9 550.15 49.4 551.65 50.3 551.8 50.45 552.65 50.85 553 50.7 553.35 50.5 553.8 49.05 554.25 47.7 555.1 47.4 555.4 47.3 556.7 48.1 558.05 48.9 558.45 48.75 558.8 48.65 559.25 47.2 559.7 45.8 560.55 45.5 560.9 45.4 562.2 46.2 563.5 47 563.95 46.8 564.25 46.7 564.7 45.25 565.15 43.85 566 43.55 566.35 43.45 567.65 44.25 569 45.05 569.4 44.9 569.75 44.75 570.2 43.3 570.65 41.9 571.5 41.6 571.8 41.5 573.15 42.35 574.45 43.15 574.9 42.95 575.4 42.75 575.65 42.15 575.95 41.2 576.25 40.35 576.45 39.9 576.95 39.4 577.9 38.65 578.35 37.7 579 36.45 578.45 35.25 577.9 34.1 576.6 33.9
M 538.3 39.4
Q 539 38.55 540.1 38.55 541.35 38.55 542.4 39.4 543.2 40.05 543.4 40.75
L 539.25 41.65
Q 537.9 41.9 537.8 40.8 537.7 40.15 538.3 39.4
M 547.1 39.6
Q 547.05 39.4 547.25 38.8 547.75 37.5 548.85 37.5 549.6 37.5 550.15 38.2 550.55 38.7 550.55 39.15
L 547.75 39.8
Q 547.2 39.9 547.1 39.6
M 493 42.85
Q 492.9 43.3 492.5 43.1
L 489.05 41.45
Q 488.6 41.2 489.05 41 491.1 39.95 493.25 39.6 493.75 39.5 493.65 39.95
L 493 42.85
M 486.15 40.2
Q 486.7 40.1 486.6 40.55
L 485.9 43.45
Q 485.8 43.85 485.4 43.7
L 481.95 42.05
Q 481.55 41.8 481.95 41.55 484.25 40.55 486.15 40.2
M 487.5 47.2
Q 487.5 47 487.7 46.95 489.55 46 491.9 45.55 492.4 45.45 492.3 45.9
L 491.65 48.85
Q 491.45 49.25 491.1 49.05
L 487.7 47.4
Q 487.5 47.3 487.5 47.2
M 494.75 47.6
Q 494.55 47.55 494.55 47.4 494.55 47.25 494.75 47.15 496.7 46.2 498.95 45.75 499.55 45.65 499.35 46.1
L 498.7 49
Q 498.65 49.2 498.5 49.3 498.35 49.35 498.2 49.25
L 494.75 47.6
M 502.75 42.5
Q 502.75 42.35 502.95 42.25 505 41.3 507.15 40.9 507.4 40.85 507.5 40.9 507.65 41 507.55 41.2
L 506.9 44.15
Q 506.8 44.6 506.4 44.35
L 502.95 42.7
Q 502.75 42.65 502.75 42.5
M 500.35 39.75
Q 500.85 39.65 500.75 40.1
L 500.05 43
Q 499.95 43.4 499.55 43.25
L 496.15 41.6
Q 495.6 41.35 496.15 41.15 498.25 40.1 500.35 39.75
M 505.8 47.05
Q 506.3 46.95 506.2 47.4
L 505.55 50.3
Q 505.45 50.75 505 50.55
L 501.6 48.9
Q 501.4 48.8 501.4 48.7 501.4 48.5 501.6 48.45 503.45 47.5 505.8 47.05
M 513.65 43.15
Q 513.9 43.1 514 43.2 514.15 43.3 514.05 43.45
L 513.4 46.4
Q 513.3 46.8 512.9 46.65
L 509.45 44.95
Q 509 44.75 509.45 44.5 511.75 43.5 513.65 43.15
M 498 52.25
L 497.35 55.15
Q 497.25 55.6 496.85 55.4
L 493.4 53.75
Q 493.2 53.7 493.2 53.55 493.2 53.4 493.4 53.3 495.2 52.4 497.6 51.9 498.1 51.8 498 52.25
M 490.55 51.65
Q 491.15 51.55 490.95 52
L 490.3 54.9
Q 490.2 55.3 489.8 55.15
L 486.35 53.5
Q 485.95 53.25 486.35 53 488.65 52 490.55 51.65
M 453.35 24.25
Q 452.9 24 453.35 23.75 455.55 22.75 457.55 22.4 458.05 22.3 457.95 22.75
L 457.3 25.65
Q 457.2 26.1 456.8 25.9
L 453.35 24.25
M 459.7 21.25
Q 459.25 21 459.7 20.8 461.65 19.85 463.9 19.4 464.5 19.3 464.3 19.75
L 463.65 22.65
Q 463.55 23.1 463.15 22.9
L 459.7 21.25
M 456.5 30.7
L 455.8 33.65
Q 455.7 34.1 455.3 33.85
L 451.9 32.2
Q 451.7 32.15 451.7 32 451.7 31.85 451.9 31.75 453.75 30.85 456.05 30.35 456.6 30.25 456.5 30.7
M 452.25 26.55
L 451.6 29.5
Q 451.5 29.95 451.1 29.75
L 447.65 28.05
Q 447.2 27.85 447.65 27.6 449.55 26.65 451.85 26.25 452.35 26.15 452.25 26.55
M 447.45 31.25
Q 448 31.15 447.9 31.55
L 447.2 34.5
Q 447.1 34.9 446.7 34.75
L 443.3 33.05
Q 442.75 32.85 443.3 32.6 445.25 31.65 447.45 31.25
M 453 35.6
Q 453.5 35.5 453.4 35.9
L 452.75 38.85
Q 452.7 39 452.55 39.1 452.4 39.15 452.25 39.05
L 448.8 37.4
Q 448.35 37.2 448.8 36.95 450.7 36 453 35.6
M 453.65 41.25
Q 454.2 41.15 454.1 41.6
L 453.4 44.5
Q 453.3 44.9 452.9 44.75
L 449.45 43.1
Q 449 42.85 449.45 42.65 451.65 41.6 453.65 41.25
M 446.55 42.8
Q 447.1 42.7 447 43.15
L 446.3 46.05
Q 446.2 46.55 445.8 46.3
L 442.35 44.65
Q 441.9 44.45 442.35 44.2 444.3 43.25 446.55 42.8
M 446.25 37.35
L 445.6 40.25
Q 445.5 40.7 445.05 40.5
L 441.65 38.85
Q 441.15 38.55 441.65 38.4 443.45 37.5 445.85 37 446.35 36.9 446.25 37.35
M 450.1 48.45
Q 450.3 48.4 450.4 48.45 450.55 48.55 450.5 48.75
L 449.85 51.7
Q 449.75 52.15 449.3 51.9
L 445.9 50.25
Q 445.7 50.15 445.7 50.05 445.7 49.85 445.9 49.8 447.85 48.85 450.1 48.45
M 453.5 47.35
Q 453.05 47.15 453.5 46.9 455.55 45.95 457.7 45.55 457.9 45.5 458.05 45.6 458.15 45.7 458.1 45.85
L 457.45 48.8
Q 457.35 49.25 456.95 49.05
L 453.5 47.35
M 460.3 46.65
Q 460.3 46.5 460.5 46.4 462.45 45.45 464.7 45 465.2 44.9 465.1 45.35
L 464.45 48.3
Q 464.4 48.45 464.25 48.55 464.1 48.6 463.95 48.5
L 460.5 46.85
Q 460.3 46.8 460.3 46.65
M 474.75 43.25
Q 474.35 43 474.75 42.75 477.05 41.75 478.95 41.4 479.45 41.3 479.35 41.75
L 478.7 44.65
Q 478.6 45.1 478.2 44.9
L 474.75 43.25
M 472.25 43.4
L 471.55 46.3
Q 471.45 46.7 471.05 46.55
L 467.6 44.85
Q 467.15 44.65 467.6 44.4 469.9 43.4 471.8 43.05 472.35 42.95 472.25 43.4
M 480.6 48.1
Q 480.1 47.8 480.6 47.65 482.45 46.7 484.8 46.25 485.3 46.15 485.2 46.6
L 484.55 49.5
Q 484.45 49.95 484 49.75
L 480.6 48.1
M 477.5 47.8
Q 478 47.7 477.9 48.15
L 477.25 51.05
Q 477.15 51.5 476.75 51.3
L 473.3 49.65
Q 472.85 49.4 473.3 49.2 475.35 48.15 477.5 47.8
M 483.85 52.7
L 483.2 55.65
Q 483.1 56.05 482.7 55.9
L 479.25 54.2
Q 478.8 54 479.25 53.75 481.3 52.8 483.45 52.4 483.7 52.35 483.8 52.45 483.95 52.55 483.85 52.7
M 476.1 53.9
Q 476.65 53.8 476.55 54.25
L 475.85 57.2
Q 475.75 57.65 475.35 57.4
L 471.95 55.75
Q 471.75 55.7 471.7 55.55 471.7 55.4 471.9 55.3 473.85 54.35 476.1 53.9
M 470.3 49.7
Q 470.9 49.6 470.7 50.05
L 470.05 52.95
Q 469.95 53.4 469.55 53.2
L 466.1 51.55
Q 465.65 51.3 466.1 51.1 468.05 50.15 470.3 49.7
M 469.25 56.1
Q 469.4 56.2 469.35 56.35
L 468.7 59.3
Q 468.5 59.7 468.15 59.5
L 464.75 57.85
Q 464.55 57.8 464.55 57.65 464.55 57.5 464.75 57.4 466.6 56.45 468.95 56 469.15 55.95 469.25 56.1
M 463.65 51.8
L 463 54.7
Q 462.9 55.15 462.45 54.95
L 459.05 53.3
Q 458.6 53.05 459.05 52.85 460.9 51.9 463.25 51.45 463.75 51.35 463.65 51.8
M 456.75 52
L 456.05 54.9
Q 455.95 55.3 455.55 55.15
L 452.15 53.5
Q 451.65 53.25 452.1 53 454.4 52 456.3 51.65 456.85 51.55 456.75 52 Z"/>
</g>

<g id="logo_0_Layer0_1_MEMBER_1_MEMBER_0_FILL">
<path fill="#DB0044" stroke="none" d="
M 572.65 64.9
Q 573.6 63.55 570.85 62.25 568.15 61.05 558.8 58.4 550.25 55.9 549.95 53.05 549.8 52.1 550.5 52.25 548.25 50.55 548.45 49
L 547.95 49.15
Q 545.7 49.8 545.35 49.85 543.25 50.1 541 49.35 537.95 48.35 536 48.4 534.25 48.4 531.7 49.35 529.75 50.05 528.1 49.95 527.55 49.9 525.9 49.45
L 526.35 51.15
Q 527.25 52.8 529.75 52.5 530.6 52.45 533 52.05 535.3 51.75 536.75 52.2 539.15 52.9 540.9 54.9 543.35 57.8 546.05 59.6 547.05 60.15 548.7 59.55 550.45 58.9 551 59.1 551.3 59.25 551.95 60.6 552.55 61.9 553 62 553.35 62.1 554.6 61.2 555.8 60.3 556.5 60.5 556.9 60.6 557.45 61.95 558 63.25 558.45 63.35 558.8 63.4 560.05 62.55 561.25 61.7 561.95 61.9 562.4 62 563 63.3 563.55 64.55 564.1 64.7 564.5 64.8 565.65 63.9 566.8 63 567.35 63.15 567.75 63.25 568.35 63.95 569 64.75 569.75 65.1 570.7 65.55 571.5 65.5 572.3 65.45 572.65 64.9 Z"/>
</g>
</defs>

<g transform="matrix( 1, 0, 0, 1, 0,0) ">
<g transform="matrix( 1, 0, 0, 1, 0,0) ">
<use xlink:href="#frame_0_Layer0_0_FILL"/>
</g>

<g transform="matrix( 1.04534912109375, 0, 0, 1.04534912109375, 52.4,26) ">
<g transform="matrix( 0.325927734375, 0, 0, 0.325927734375, 0,0.35) ">
<use xlink:href="#logo_0_Layer0_0_FILL"/>
</g>

<g transform="matrix( 0.325927734375, 0, 0, 0.325927734375, -2.25,0) ">
<use xlink:href="#logo_0_Layer0_1_MEMBER_0_FILL"/>
</g>

<g transform="matrix( 0.325927734375, 0, 0, 0.325927734375, -2.25,0) ">
<use xlink:href="#logo_0_Layer0_1_MEMBER_1_MEMBER_0_FILL"/>
</g>
</g>
</g>
</svg>
