<?xml version="1.0" encoding="utf-8"?>
<!-- Generator: Adobe Illustrator 19.1.0, SVG Export Plug-In . SVG Version: 6.00 Build 0)  -->
<svg version="1.1" id="Layer_1" xmlns="http://www.w3.org/2000/svg" xmlns:xlink="http://www.w3.org/1999/xlink" x="0px" y="0px"
	 viewBox="-240 399.9 113.5 43" style="enable-background:new -240 399.9 113.5 43;" xml:space="preserve">
<style type="text/css">
	.st0{fill:#213E7A;}
	.st1{fill:#FFFFFF;}
</style>
<rect x="-239.5" y="400.4" class="st0" width="112.5" height="42"/>
<g>
	<path class="st1" d="M-211.4,418.4v3.7h0.2l1.7-3.7h1l-2,3.8c1,0.2,1.3,1.1,1.5,2.1c0.2,0.8,0.3,1.5,0.5,2.2h-0.9
		c-0.2-0.5-0.3-1.3-0.5-2c-0.2-1-0.5-1.7-1.4-1.7h-0.1v3.7h-0.9v-8.1H-211.4z"/>
	<path class="st1" d="M-207,418.4l1,3.3c0.2,0.5,0.3,0.9,0.4,1.4l0,0c0.1-0.4,0.2-0.9,0.3-1.4l0.7-3.3h0.9l-1,3.6
		c-0.3,0.9-0.6,2.3-1.1,3.4c-0.4,0.7-0.9,1.2-1.5,1.2c-0.2,0-0.3,0-0.4,0v-0.8c0.1,0,0.1,0,0.2,0c0.7,0,1.1-0.9,1.3-1.5
		c0-0.1,0-0.3,0-0.5l-1.8-5.4H-207z"/>
	<path class="st1" d="M-198.8,418.4v8.1h-0.9v-7.3h-2.2v7.3h-0.9v-8.1C-202.8,418.4-198.8,418.4-198.8,418.4z"/>
	<path class="st1" d="M-196.5,418.4v2.9c0,1.4,0,2.4-0.1,3.7l0,0c0.3-0.9,0.7-1.9,1-2.8l1.5-3.8h0.9v8.1h-0.8v-2.8
		c0-1.7,0-2.7,0.1-3.8l0,0c-0.3,1-0.7,1.9-1,2.7l-1.5,3.9h-0.9v-8.1C-197.3,418.4-196.5,418.4-196.5,418.4z"/>
	<path class="st1" d="M-190.9,419.2h-1.5v-0.8h3.9v0.8h-1.5v7.3h-0.9V419.2z"/>
	<path class="st1" d="M-186.7,418.4v3.2c0.2,0,0.4,0,0.6,0c1.5,0,2.4,0.9,2.4,2.4c0,0.7-0.2,1.3-0.6,1.7c-0.5,0.5-1.2,0.8-2.2,0.8
		c-0.6,0-0.9,0-1.2-0.1v-8H-186.7z M-186.7,425.7c0.2,0,0.3,0,0.4,0c1,0,1.6-0.7,1.6-1.8c0-1-0.6-1.7-1.6-1.7c-0.2,0-0.3,0-0.5,0
		v3.5H-186.7z"/>
	<path class="st1" d="M-177.2,426.3c-0.3,0.1-0.6,0.2-1.2,0.2c-1.6,0-2.7-1.3-2.7-4c0-3.2,1.6-4.2,2.9-4.2c0.5,0,0.8,0.1,1,0.2
		l-0.2,0.8c-0.2-0.1-0.4-0.2-0.8-0.2c-0.9,0-1.9,0.8-1.9,3.3s0.9,3.3,1.9,3.3c0.3,0,0.7-0.1,0.9-0.2L-177.2,426.3z"/>
	<path class="st1" d="M-173.3,422.6h-2v3h2.3v0.8h-3.2v-8.1h3.1v0.8h-2.2v2.7h2C-173.3,421.8-173.3,422.6-173.3,422.6z"/>
	<path class="st1" d="M-171.2,418.4v2.9c0,1.4,0,2.4-0.1,3.7l0,0c0.3-0.9,0.7-1.9,1-2.8l1.5-3.8h0.9v8.1h-0.8v-2.8
		c0-1.7,0-2.7,0.1-3.8l0,0c-0.3,1-0.7,1.9-1,2.7l-1.5,3.9h-0.9v-8.1C-172,418.4-171.2,418.4-171.2,418.4z M-170.7,416.9
		c0.1,0.3,0.2,0.7,0.7,0.7c0.4,0,0.6-0.3,0.7-0.7h0.7c-0.1,0.8-0.6,1.2-1.4,1.2c-0.8,0-1.3-0.4-1.3-1.2H-170.7z"/>
	<path class="st1" d="M-165.7,418.4v2.7c0,0.8,0.3,1.4,1.1,1.4c0.3,0,0.7-0.1,0.9-0.3v-3.9h0.9v8.1h-0.9v-3.5l0,0
		c-0.4,0.2-0.8,0.3-1.2,0.3c-1.1,0-1.7-0.6-1.7-2v-2.9h0.9V418.4z"/>
	<path class="st1" d="M-160.3,424l-0.5,2.4h-0.9l1.8-8.1h1l1.8,8.1h-0.9l-0.5-2.4H-160.3z M-158.7,423.3l-0.4-2.1
		c-0.1-0.6-0.2-1.2-0.3-1.8l0,0c-0.1,0.6-0.2,1.3-0.3,1.8l-0.4,2.1H-158.7z"/>
	<path class="st1" d="M-152.8,426.3c-0.3,0.1-0.6,0.2-1.2,0.2c-1.6,0-2.7-1.3-2.7-4c0-3.2,1.6-4.2,2.9-4.2c0.5,0,0.8,0.1,1,0.2
		l-0.2,0.8c-0.2-0.1-0.4-0.2-0.8-0.2c-0.9,0-1.9,0.8-1.9,3.3s0.9,3.3,1.9,3.3c0.3,0,0.7-0.1,0.9-0.2L-152.8,426.3z"/>
</g>
</svg>
