<?xml version="1.0" encoding="utf-8"?>
<!-- Generator: Adobe Illustrator 19.1.0, SVG Export Plug-In . SVG Version: 6.00 Build 0)  -->
<svg version="1.1" id="Layer_1" xmlns="http://www.w3.org/2000/svg" xmlns:xlink="http://www.w3.org/1999/xlink" x="0px" y="0px"
	 viewBox="-252 403.7 90.1 35.2" style="enable-background:new -252 403.7 90.1 35.2;" xml:space="preserve">
<style type="text/css">
	.st0{fill:#213F7A;}
</style>
<g>
	<path class="st0" d="M-230.3,405.4v1.8c0,1.5-0.1,2.9-0.2,3.7l0,0c0.2-0.7,0.6-1.8,0.9-2.4l1.2-3.1h1.4v8.1h-1.4v-1.9
		c0-1.6,0.1-2.8,0.1-3.6l0,0c-0.2,0.7-0.5,1.7-0.8,2.4l-1.2,3.1h-1.5v-8.1H-230.3z"/>
	<path class="st0" d="M-220.7,405.4v6.7h0.6l-0.1,3.1h-1.2l-0.1-1.8h-3.5l-0.1,1.8h-1.2l-0.1-3.1h0.6c0.3-0.6,0.4-1.2,0.6-1.9
		c0.2-0.9,0.2-1.9,0.2-2.8v-2C-225,405.4-220.7,405.4-220.7,405.4z M-223.4,407.7c0,0.9-0.1,1.9-0.2,2.7c-0.1,0.6-0.2,1.2-0.4,1.7
		h1.8v-5.4h-1.2C-223.4,406.7-223.4,407.7-223.4,407.7z"/>
	<path class="st0" d="M-215.7,409.9h-1.8v2.2h2.1v1.4h-3.7v-8.1h3.5v1.3h-1.9v1.9h1.8V409.9z"/>
	<path class="st0" d="M-213.2,411.6l-0.4,1.8h-1.4l1.8-8.1h1.9l1.6,8.1h-1.5l-0.3-1.8C-211.5,411.6-213.2,411.6-213.2,411.6z
		 M-211.8,410.4l-0.3-1.7c-0.1-0.5-0.2-1.3-0.3-1.8l0,0c-0.1,0.5-0.2,1.4-0.3,1.8l-0.3,1.7H-211.8z"/>
	<path class="st0" d="M-204.2,405.4v8.1h-1.6v-6.8h-1.2v2.1c0,1.9-0.1,3.5-1.1,4.3c-0.3,0.2-0.7,0.4-1.1,0.4l-0.3-1.3
		c0.2,0,0.4-0.1,0.5-0.3c0.5-0.5,0.6-1.3,0.6-2.9v-3.6H-204.2z"/>
	<path class="st0" d="M-201.3,405.4v3c0.1,0,0.3,0,0.6,0c1.5,0,2.5,0.9,2.5,2.5c0,0.8-0.2,1.4-0.7,1.8c-0.6,0.6-1.4,0.9-2.6,0.9
		c-0.6,0-1.1,0-1.5-0.1v-8.1H-201.3z M-201.2,412.2c0.1,0,0.2,0,0.3,0c0.8,0,1.2-0.6,1.2-1.3c0-0.7-0.4-1.3-1.2-1.3
		c-0.1,0-0.3,0-0.4,0v2.6H-201.2z"/>
	<path class="st0" d="M-195.5,405.4v3.2h1.6v-3.2h1.6v8.1h-1.6v-3.4h-1.6v3.4h-1.6v-8.1H-195.5z"/>
	<path class="st0" d="M-189.4,405.4v3c0.2,0,0.4,0,0.6,0c1.4,0,2.5,1,2.5,2.4c0,0.8-0.3,1.4-0.7,1.9c-0.6,0.6-1.4,0.9-2.6,0.9
		c-0.5,0-1,0-1.4-0.1v-8.1H-189.4z M-189.4,412.2c0.1,0,0.2,0,0.3,0c0.7,0.1,1.1-0.5,1.1-1.3c0-0.8-0.4-1.3-1.1-1.3
		c-0.1,0-0.2,0-0.3,0C-189.4,409.6-189.4,412.2-189.4,412.2z M-184.2,405.4v8.1h-1.6v-8.1H-184.2z"/>
	<path class="st0" d="M-181.4,405.4v1.8c0,1.5-0.1,2.9-0.2,3.7l0,0c0.2-0.7,0.6-1.8,0.9-2.4l1.2-3.1h1.5v8.1h-1.4v-1.9
		c0-1.6,0.1-2.8,0.1-3.6l0,0c-0.2,0.7-0.6,1.7-0.8,2.4l-1.2,3.1h-1.5v-8.1H-181.4z M-180.9,403.7c0,0.4,0.2,0.7,0.5,0.7
		c0.3,0,0.5-0.2,0.5-0.7h1c-0.1,1-0.7,1.4-1.5,1.4c-0.8,0-1.5-0.3-1.5-1.4H-180.9z"/>
	<path class="st0" d="M-246,419.8v8.1h-1.5v-6.7h-1.7v6.7h-1.5v-8.1H-246z"/>
	<path class="st0" d="M-239.8,423.7c0,3-1.1,4.3-2.6,4.3c-1.8,0-2.6-1.9-2.6-4.2c0-2.2,0.9-4.1,2.7-4.1
		C-240.4,419.7-239.8,421.8-239.8,423.7z M-243.3,423.8c0,1.8,0.3,2.8,1,2.8s0.9-1.2,0.9-2.8c0-1.4-0.2-2.7-0.9-2.7
		S-243.3,422.1-243.3,423.8z"/>
	<path class="st0" d="M-234.2,419.8v6.7h0.6l-0.1,3.1h-1.2l-0.1-1.8h-3.5l-0.1,1.8h-1.2l-0.1-3.1h0.6c0.3-0.6,0.4-1.2,0.6-1.9
		c0.2-0.9,0.2-1.9,0.2-2.8v-2H-234.2z M-236.9,422.1c0,0.9-0.1,1.9-0.2,2.7c-0.1,0.6-0.2,1.2-0.4,1.7h1.8v-5.3h-1.2
		C-236.9,421.2-236.9,422.1-236.9,422.1z"/>
	<path class="st0" d="M-231.3,426l-0.4,1.8h-1.5l1.8-8.1h1.9l1.6,8.1h-1.5l-0.3-1.8H-231.3z M-230,424.8l-0.3-1.7
		c-0.1-0.5-0.2-1.3-0.3-1.8l0,0c-0.1,0.5-0.2,1.4-0.3,1.8l-0.3,1.7H-230z"/>
	<path class="st0" d="M-227.1,419.9c0.4-0.1,1-0.2,1.6-0.2c0.9,0,1.7,0.1,2.2,0.6c0.5,0.4,0.7,1.1,0.7,1.8c0,0.9-0.3,1.5-0.7,1.9
		c-0.5,0.5-1.3,0.8-2,0.8c-0.1,0-0.2,0-0.3,0v3h-1.6L-227.1,419.9L-227.1,419.9z M-225.5,423.6c0.1,0,0.2,0,0.3,0
		c0.8,0,1.2-0.6,1.2-1.3c0-0.7-0.3-1.3-1-1.3c-0.1,0-0.3,0-0.4,0.1v2.5H-225.5z"/>
	<path class="st0" d="M-216.8,423.7c0,3-1.1,4.3-2.6,4.3c-1.8,0-2.6-1.9-2.6-4.2c0-2.2,0.9-4.1,2.7-4.1
		C-217.4,419.7-216.8,421.8-216.8,423.7z M-220.3,423.8c0,1.8,0.3,2.8,1,2.8s0.9-1.2,0.9-2.8c0-1.4-0.2-2.7-0.9-2.7
		S-220.3,422.1-220.3,423.8z"/>
	<path class="st0" d="M-214.3,419.8v3.5h0.1l1.3-3.5h1.7l-1.8,3.7c0.8,0.3,1.1,1.1,1.3,2.1c0.2,0.8,0.3,1.5,0.6,2.3h-1.6
		c-0.2-0.6-0.3-1.2-0.4-1.9c-0.2-0.9-0.4-1.6-1.1-1.6h-0.1v3.4h-1.5v-8.1h1.5V419.8z"/>
	<path class="st0" d="M-203.7,423.7c0,3-1.1,4.3-2.6,4.3c-1.8,0-2.6-1.9-2.6-4.2c0-2.2,0.9-4.1,2.7-4.1
		C-204.2,419.7-203.7,421.8-203.7,423.7z M-207.2,423.8c0,1.8,0.3,2.8,1,2.8s0.9-1.2,0.9-2.8c0-1.4-0.2-2.7-0.9-2.7
		S-207.2,422.1-207.2,423.8z"/>
	<path class="st0" d="M-202,421.2h-1.4v-1.5h4.4v1.5h-1.4v6.6h-1.6V421.2z"/>
	<path class="st0" d="M-196.2,419.8h1.6v6.8h2.1v1.3h-3.6L-196.2,419.8L-196.2,419.8z"/>
	<path class="st0" d="M-190.3,426l-0.4,1.8h-1.5l1.8-8.1h1.9l1.6,8.1h-1.5l-0.3-1.8H-190.3z M-189,424.8l-0.3-1.7
		c-0.1-0.5-0.2-1.3-0.3-1.8l0,0c-0.1,0.5-0.2,1.4-0.3,1.8l-0.3,1.7H-189z"/>
	<path class="st0" d="M-182.4,427.7c-0.2,0.1-0.7,0.2-1.2,0.2c-2.1,0-3-1.7-3-4c0-3,1.7-4.2,3.3-4.2c0.6,0,0.9,0.1,1.1,0.2l-0.3,1.3
		c-0.2-0.1-0.4-0.2-0.7-0.2c-0.9,0-1.7,0.8-1.7,2.8c0,1.9,0.7,2.7,1.7,2.7c0.3,0,0.6-0.1,0.8-0.1V427.7z"/>
	<path class="st0" d="M-176.9,423.7c0,3-1.1,4.3-2.6,4.3c-1.8,0-2.6-1.9-2.6-4.2c0-2.2,0.9-4.1,2.7-4.1
		C-177.4,419.7-176.9,421.8-176.9,423.7z M-180.4,423.8c0,1.8,0.3,2.8,1,2.8c0.7,0,0.9-1.2,0.9-2.8c0-1.4-0.2-2.7-0.9-2.7
		C-180.1,421.1-180.4,422.1-180.4,423.8z"/>
	<path class="st0" d="M-176.1,426.3c0.3,0.2,0.9,0.3,1.3,0.3c0.7,0,1.1-0.4,1.1-0.9c0-0.6-0.4-0.9-1-1.3c-1.1-0.7-1.5-1.5-1.5-2.3
		c0-1.3,0.9-2.4,2.6-2.4c0.5,0,1,0.1,1.3,0.3l-0.3,1.4c-0.2-0.1-0.6-0.3-1-0.3c-0.7,0-1,0.4-1,0.8c0,0.5,0.2,0.7,1.1,1.3
		c1.1,0.6,1.5,1.5,1.5,2.3c0,1.5-1.1,2.4-2.7,2.4c-0.6,0-1.3-0.2-1.5-0.3L-176.1,426.3z"/>
	<path class="st0" d="M-170.3,421.2h-1.4v-1.5h4.4v1.5h-1.4v6.6h-1.6V421.2z"/>
	<path class="st0" d="M-163,424.3h-1.8v2.2h2.1v1.4h-3.7v-8.1h3.5v1.4h-1.9v1.9h1.8V424.3z"/>
</g>
<g>
	<path class="st0" d="M-251.1,433.7h-0.9v-0.5h2.3v0.5h-0.9v4.2h-0.5V433.7z"/>
	<path class="st0" d="M-248.9,433.2l0.6,1.9c0.1,0.3,0.2,0.6,0.2,0.8l0,0c0.1-0.2,0.1-0.5,0.2-0.8l0.4-1.9h0.5l-0.6,2.1
		c-0.1,0.5-0.3,1.4-0.7,2c-0.1,0.4-0.4,0.6-0.7,0.6c-0.1,0-0.2,0-0.3,0v-0.4h0.1c0.4,0,0.6-0.5,0.7-0.9c0-0.1,0-0.2,0-0.3l-1.1-3.2
		h0.7V433.2z"/>
	<path class="st0" d="M-246.2,436.5l-0.3,1.4h-0.5l1-4.7h0.6l1.1,4.7h-0.5l-0.3-1.4H-246.2z M-245.2,436l-0.2-1.2
		c-0.1-0.3-0.1-0.7-0.2-1.1l0,0c-0.1,0.4-0.1,0.8-0.2,1.1l-0.2,1.2H-245.2z"/>
	<path class="st0" d="M-241.5,433.2v4.7h-0.5v-4.3h-1v1.6c0,1.2,0,2.2-0.6,2.5c-0.1,0.1-0.3,0.1-0.4,0.1l-0.1-0.5
		c0.1,0,0.2-0.1,0.3-0.1c0.3-0.3,0.4-0.9,0.4-2V433h1.9V433.2z"/>
	<path class="st0" d="M-238.9,435.7h-1.2v1.8h1.3v0.5h-1.9v-4.7h1.8v0.5h-1.3v1.6h1.2v0.3H-238.9z"/>
	<path class="st0" d="M-237.6,433.7h-0.9v-0.5h2.3v0.5h-0.9v4.2h-0.5C-237.6,437.9-237.6,433.7-237.6,433.7z"/>
	<path class="st0" d="M-235.1,433.2v2h1.3v-2h0.5v4.7h-0.5v-2.2h-1.3v2.2h-0.5v-4.7H-235.1z"/>
	<path class="st0" d="M-231.9,436.5l-0.3,1.4h-0.5l1.1-4.7h0.6l1.1,4.7h-0.5l-0.3-1.4H-231.9z M-230.9,436l-0.2-1.2
		c-0.1-0.3-0.1-0.7-0.2-1.1l0,0c-0.1,0.4-0.1,0.8-0.2,1.1l-0.2,1.2H-230.9z"/>
	<path class="st0" d="M-229.7,437.9c0.1-0.1,0.1-0.3,0.2-0.5c0.1-0.5,0.1-1.2,0.5-1.5c0.1-0.1,0.2-0.2,0.4-0.2l0,0
		c-0.5-0.1-0.8-0.5-0.8-1.1c0-0.5,0.2-0.8,0.5-1c0.2-0.2,0.6-0.3,0.9-0.3s0.5,0,0.8,0.1v4.7h-0.5V436h-0.2c-0.2,0-0.4,0-0.5,0.2
		c-0.2,0.3-0.3,1-0.4,1.4c0,0.1-0.1,0.3-0.1,0.4h-0.8V437.9z M-227.9,433.6c-0.1,0-0.2,0-0.3,0c-0.6,0-0.8,0.4-0.8,0.9
		c0,0.6,0.4,0.9,0.9,0.9c0.1,0,0.1,0,0.2,0C-227.9,435.4-227.9,433.6-227.9,433.6z"/>
	<path class="st0" d="M-225.4,433.2c0.2-0.1,0.5-0.1,0.8-0.1c0.4,0,0.8,0.1,1,0.3c0.2,0.2,0.3,0.5,0.3,0.8c0,0.5-0.3,0.9-0.7,1.1
		l0,0c0.5,0.1,0.9,0.6,0.9,1.2c0,0.4-0.1,0.7-0.3,0.9c-0.3,0.3-0.7,0.4-1.2,0.4c-0.4,0-0.6,0-0.7,0L-225.4,433.2L-225.4,433.2z
		 M-224.9,435.2h0.2c0.4,0,0.8-0.3,0.8-0.8c0-0.4-0.2-0.8-0.8-0.8c-0.1,0-0.2,0-0.3,0v1.6H-224.9z M-224.9,437.5c0.1,0,0.2,0,0.3,0
		c0.6,0,0.9-0.3,0.9-0.9c0-0.7-0.5-1-1-1h-0.2C-224.9,435.6-224.9,437.5-224.9,437.5z"/>
	<path class="st0" d="M-220.1,435.5c0,1.8-0.6,2.5-1.4,2.5s-1.3-0.8-1.3-2.4s0.6-2.4,1.4-2.4C-220.5,433.1-220.1,434-220.1,435.5z
		 M-222.2,435.5c0,1,0.2,1.9,0.8,1.9c0.6,0,0.8-1,0.8-2c0-0.9-0.2-1.9-0.8-1.9C-222,433.6-222.2,434.6-222.2,435.5z"/>
	<path class="st0" d="M-217.2,433.2v4.3h0.3v1.4h-0.4v-1h-2.1v1h-0.4v-1.4h0.3c0.2-0.4,0.3-0.8,0.4-1.3c0.1-0.6,0.1-1.2,0.1-1.9
		v-1.1H-217.2z M-218.6,434.3c0,0.7,0,1.3-0.1,1.9c-0.1,0.4-0.2,0.8-0.3,1.2h1.3v-3.8h-0.9V434.3z"/>
	<path class="st0" d="M-215.7,436.5l-0.3,1.4h-0.5l1.1-4.7h0.6l1.1,4.7h-0.5l-0.3-1.4H-215.7z M-214.7,436l-0.2-1.2
		c-0.1-0.3-0.1-0.7-0.2-1.1l0,0c-0.1,0.4-0.1,0.8-0.2,1.1l-0.2,1.2H-214.7z"/>
	<path class="st0" d="M-212.1,433.2h0.5v4.3h1.3v0.5h-1.9L-212.1,433.2L-212.1,433.2z"/>
	<path class="st0" d="M-209.1,436.5l-0.3,1.4h-0.5l1.1-4.7h0.6l1.1,4.7h-0.5l-0.4-1.4H-209.1z M-208.1,436l-0.2-1.2
		c-0.1-0.3-0.1-0.7-0.2-1.1l0,0c-0.1,0.4-0.1,0.8-0.2,1.1l-0.3,1.2H-208.1z"/>
	<path class="st0" d="M-204.7,437.8c-0.1,0.1-0.4,0.1-0.7,0.1c-0.9,0-1.6-0.7-1.6-2.3c0-1.9,0.9-2.5,1.7-2.5c0.3,0,0.5,0.1,0.6,0.1
		l-0.1,0.5c-0.1,0-0.2-0.1-0.5-0.1c-0.5,0-1.1,0.5-1.1,1.9s0.5,1.9,1.1,1.9c0.2,0,0.4,0,0.5-0.1L-204.7,437.8z"/>
	<path class="st0" d="M-201.8,435.5c0,1.8-0.6,2.5-1.4,2.5s-1.3-0.8-1.3-2.4s0.6-2.4,1.4-2.4C-202.3,433.1-201.8,434-201.8,435.5z
		 M-203.9,435.5c0,1,0.2,1.9,0.8,1.9c0.6,0,0.8-1,0.8-2c0-0.9-0.2-1.9-0.8-1.9C-203.7,433.6-203.9,434.6-203.9,435.5z"/>
	<path class="st0" d="M-201.2,437.3c0.2,0.1,0.4,0.2,0.7,0.2c0.5,0,0.8-0.3,0.8-0.8c0-0.4-0.3-0.7-0.6-1c-0.4-0.3-0.9-0.7-0.9-1.3
		c0-0.7,0.5-1.2,1.2-1.2c0.3,0,0.6,0.1,0.7,0.2l-0.1,0.5c-0.1-0.1-0.3-0.2-0.6-0.2c-0.5,0-0.7,0.3-0.7,0.7c0,0.5,0.2,0.7,0.7,1
		c0.6,0.4,0.8,0.8,0.8,1.4c0,0.8-0.6,1.3-1.3,1.3c-0.3,0-0.7-0.1-0.8-0.2L-201.2,437.3z"/>
	<path class="st0" d="M-198.1,433.7h-0.9v-0.5h2.3v0.5h-0.9v4.2h-0.5C-198.1,437.9-198.1,433.7-198.1,433.7z"/>
	<path class="st0" d="M-194.4,435.7h-1.2v1.8h1.3v0.5h-1.9v-4.7h1.8v0.5h-1.3v1.6h1.2v0.3H-194.4z"/>
	<path class="st0" d="M-192.6,433.2h0.6v4.3h1.3v0.5h-1.9C-192.6,438-192.6,433.2-192.6,433.2z"/>
	<path class="st0" d="M-190.2,437.5c0-0.2,0.2-0.4,0.4-0.4s0.4,0.2,0.4,0.4s-0.1,0.4-0.4,0.4S-190.2,437.8-190.2,437.5z"/>
	<path class="st0" d="M-187.9,433.9L-187.9,433.9l-0.8,0.4l-0.1-0.4l1-0.6h0.4v4.6h-0.5V433.9z"/>
	<path class="st0" d="M-186.3,437.9v-0.4l0.4-0.5c0.5-0.8,1.2-1.6,1.2-2.5c0-0.5-0.2-0.8-0.7-0.8c-0.3,0-0.5,0.2-0.7,0.3l-0.1-0.4
		c0.2-0.1,0.5-0.3,0.9-0.3c0.8,0,1.1,0.6,1.1,1.2c0,0.9-0.6,1.7-1.1,2.5l-0.3,0.4l0,0h1.5v0.5C-184.1,437.9-186.3,437.9-186.3,437.9
		z"/>
	<path class="st0" d="M-183.5,437.5c0-0.2,0.2-0.4,0.4-0.4c0.2,0,0.4,0.2,0.4,0.4s-0.1,0.4-0.4,0.4
		C-183.3,437.9-183.5,437.8-183.5,437.5z"/>
	<path class="st0" d="M-181.1,433.9L-181.1,433.9l-0.8,0.4l-0.1-0.4l1-0.6h0.4v4.6h-0.5V433.9z"/>
	<path class="st0" d="M-179.5,437.9v-0.4l0.4-0.5c0.5-0.8,1.2-1.6,1.2-2.5c0-0.5-0.2-0.8-0.7-0.8c-0.3,0-0.5,0.2-0.7,0.3l-0.1-0.4
		c0.2-0.1,0.5-0.3,0.9-0.3c0.8,0,1.1,0.6,1.1,1.2c0,0.9-0.6,1.7-1.1,2.5l-0.3,0.4l0,0h1.5v0.5C-177.3,437.9-179.5,437.9-179.5,437.9
		z"/>
	<path class="st0" d="M-175.6,433.2c0.2-0.1,0.5-0.1,0.8-0.1c0.4,0,0.8,0.1,1,0.3c0.2,0.2,0.3,0.5,0.3,0.8c0,0.5-0.3,0.9-0.7,1.1
		l0,0c0.5,0.1,0.9,0.6,0.9,1.2c0,0.4-0.1,0.7-0.3,0.9c-0.3,0.3-0.7,0.4-1.2,0.4c-0.4,0-0.6,0-0.7,0v-4.6H-175.6z M-175,435.2h0.2
		c0.4,0,0.8-0.3,0.8-0.8c0-0.4-0.2-0.8-0.8-0.8c-0.1,0-0.2,0-0.3,0v1.6H-175z M-175,437.5c0.1,0,0.2,0,0.3,0c0.6,0,0.9-0.3,0.9-0.9
		c0-0.7-0.5-1-1-1h-0.2V437.5z"/>
	<path class="st0" d="M-172.6,433.2h0.5v4.3h1.3v0.5h-1.9L-172.6,433.2L-172.6,433.2z"/>
	<path class="st0" d="M-169.6,436.5l-0.4,1.4h-0.5l1.1-4.7h0.6l1.1,4.7h-0.5l-0.3-1.4H-169.6z M-168.7,436l-0.2-1.2
		c-0.1-0.3-0.1-0.7-0.2-1.1l0,0c-0.1,0.4-0.1,0.8-0.2,1.1l-0.2,1.2H-168.7z"/>
	<path class="st0" d="M-167.2,437.9v-4.7h0.5l0.9,2.2c0.2,0.5,0.4,1.1,0.6,1.6l0,0c0-0.7-0.1-1.4-0.1-2.2v-1.7h0.5v4.7h-0.5
		l-0.9-2.3c-0.2-0.5-0.4-1-0.6-1.6l0,0c0,0.6,0.1,1.2,0.1,2.2v1.6h-0.5V437.9z"/>
	<path class="st0" d="M-161.9,437.8c-0.1,0.1-0.4,0.1-0.7,0.1c-0.9,0-1.6-0.7-1.6-2.3c0-1.9,0.9-2.5,1.7-2.5c0.3,0,0.5,0.1,0.6,0.1
		l-0.1,0.5c-0.1,0-0.2-0.1-0.5-0.1c-0.5,0-1.1,0.5-1.1,1.9s0.5,1.9,1.1,1.9c0.2,0,0.4,0,0.5-0.1L-161.9,437.8z"/>
</g>
</svg>
