
<svg xmlns="http://www.w3.org/2000/svg" version="1.1" xmlns:xlink="http://www.w3.org/1999/xlink" preserveAspectRatio="none" x="0px" y="0px" width="664px" height="177px" viewBox="0 0 664 177">
<defs>
<radialGradient id="Gradient_1" gradientUnits="userSpaceOnUse" cx="0" cy="0" r="282.15000000000003" fx="0" fy="0" gradientTransform="matrix( 1, 0, 0, 0.44586213007265635, 9.05,-16) " spreadMethod="pad">
<stop  offset="0%" stop-color="#F8F8F8"/>

<stop  offset="100%" stop-color="#F0F0F0"/>
</radialGradient>

<linearGradient id="Gradient_2" gradientUnits="userSpaceOnUse" x1="-164.8375" y1="-55.550000000000004" x2="-129.76250000000002" y2="13.550000000000004" spreadMethod="pad">
<stop  offset="0%" stop-color="#C4C4C4"/>

<stop  offset="100%" stop-color="#E6E6E6" stop-opacity="0"/>
</linearGradient>

<linearGradient id="Gradient_3" gradientUnits="userSpaceOnUse" x1="172.9125" y1="-40.212500000000006" x2="141.48749999999998" y2="30.512500000000003" spreadMethod="pad">
<stop  offset="0%" stop-color="#C4C4C4"/>

<stop  offset="100%" stop-color="#E6E6E6" stop-opacity="0"/>
</linearGradient>

<g id="Mask_Mount1_0_3_MASK_0_FILL">
<path fill="#FFFFFF" stroke="none" d="
M -488.9 439.65
L -513.9 460.65 41.05 468.65 -203.95 316.65 -488.9 439.65 Z"/>
</g>

<g id="Mount1_0_Layer3_0_FILL">
<path fill="url(#Gradient_1)" stroke="none" d="
M 349 -125
L -302.95 -125 -302.95 132 349 132 349 -125 Z"/>
</g>

<g id="Mount1_0_Layer2_0_FILL">
<path fill="url(#Gradient_2)" stroke="none" d="
M 72.7 -21
Q 72.7 -70.7 8.25 -105.85 -56.15 -141 -147.3 -141 -238.45 -141 -302.85 -105.85 -367.3 -70.7 -367.3 -21 -367.3 28.7 -302.85 63.85 -238.45 99 -147.3 99 -56.15 99 8.25 63.85 72.7 28.7 72.7 -21 Z"/>
</g>

<g id="Mount1_0_Layer1_0_FILL">
<path fill="url(#Gradient_3)" stroke="none" d="
M 157.2 -124.85
Q 66.05 -124.85 1.65 -89.7 -62.8 -54.55 -62.8 -4.85 -62.8 44.85 1.65 80 66.05 115.15 157.2 115.15 248.35 115.15 312.75 80 377.2 44.85 377.2 -4.85 377.2 -54.55 312.75 -89.7 248.35 -124.85 157.2 -124.85 Z"/>
</g>
</defs>

<g transform="matrix( 1.17999267578125, 0, 0, 1.17999267578125, 338.55,90.05) ">
<mask id="Mask_Mask_1">
<g transform="matrix( 1, 0, 0, 1, 227,-392.95) ">
<use xlink:href="#Mask_Mount1_0_3_MASK_0_FILL"/>
</g>
</mask>

<g mask="url(#Mask_Mask_1)">
<g transform="matrix( 1, 0, 0, 1, 0,0) ">
<use xlink:href="#Mount1_0_Layer3_0_FILL"/>
</g>
</g>

<g mask="url(#Mask_Mask_1)">
<g transform="matrix( 1, 0, 0, 1, 3,3) ">
<use xlink:href="#Mount1_0_Layer2_0_FILL"/>
</g>
</g>

<g mask="url(#Mask_Mask_1)">
<g transform="matrix( 1, 0, 0, 1, 0,0) ">
<use xlink:href="#Mount1_0_Layer1_0_FILL"/>
</g>
</g>
</g>
</svg>
