<?xml version="1.0" encoding="utf-8"?>
<!-- Generator: Adobe Illustrator 19.1.0, SVG Export Plug-In . SVG Version: 6.00 Build 0)  -->
<svg version="1.1" id="Layer_1" xmlns="http://www.w3.org/2000/svg" xmlns:xlink="http://www.w3.org/1999/xlink" x="0px" y="0px"
	 viewBox="-243 399.9 108.8 43" style="enable-background:new -243 399.9 108.8 43;" xml:space="preserve">
<style type="text/css">
	.st0{fill:#213E7A;}
	.st1{fill:#FFFFFF;}
</style>
<rect x="-242.5" y="400.4" class="st0" width="107.8" height="42"/>
<g>
	<path class="st1" d="M-210.5,415.3v12.1h-1.4v-10.9h-3.3v10.9h-1.4v-12.1H-210.5z"/>
	<path class="st1" d="M-208.4,415.4c0.6-0.1,1.2-0.2,2-0.2c1.1,0,2.1,0.3,2.7,0.9c0.6,0.6,0.9,1.5,0.9,2.5c0,1.1-0.3,1.9-0.7,2.5
		c-0.7,0.9-1.8,1.4-2.9,1.4c-0.2,0-0.4,0-0.6,0v5h-1.4V415.4z M-207,421.3c0.2,0,0.3,0.1,0.5,0.1c1.4,0,2.3-0.9,2.3-2.6
		c0-1.2-0.5-2.4-2.1-2.4c-0.3,0-0.6,0-0.8,0.1v4.8H-207z"/>
	<path class="st1" d="M-199.8,415.3v4.8c0.3-0.1,0.6-0.1,0.9-0.1c2.2,0,3.6,1.4,3.6,3.6c0,1.1-0.3,1.9-0.9,2.6
		c-0.7,0.8-1.8,1.3-3.3,1.3c-0.8,0-1.4-0.1-1.7-0.1v-12.1H-199.8z M-199.8,426.3c0.2,0.1,0.4,0.1,0.6,0.1c1.5,0,2.4-1.1,2.4-2.6
		s-0.9-2.5-2.4-2.5c-0.2,0-0.5,0-0.7,0.1L-199.8,426.3L-199.8,426.3z M-192.8,415.3v12.1h-1.4v-12.1H-192.8z"/>
	<path class="st1" d="M-185.9,415.3v1.2h-3.4v10.9h-1.4v-12.1H-185.9z"/>
	<path class="st1" d="M-183.2,415.3v5.2h3.4v-5.2h1.4v12.1h-1.4v-5.7h-3.4v5.7h-1.4v-12.1H-183.2z"/>
	<path class="st1" d="M-175.6,415.3l1.4,4.9c0.2,0.8,0.4,1.4,0.6,2.1h0.1c0.1-0.6,0.3-1.4,0.5-2.1l1.1-4.9h1.4l-1.4,5.4
		c-0.4,1.3-0.9,3.5-1.7,5.1c-0.5,1-1.4,1.7-2.3,1.7c-0.3,0-0.5,0-0.6-0.1l0.1-1.1c0.1,0,0.2,0,0.4,0c1,0,1.7-1.4,1.9-2.3
		c0.1-0.2,0.1-0.4,0-0.7l-2.7-8.2h1.2V415.3z"/>
	<path class="st1" d="M-167.6,416.5h-2.2v-1.2h5.8v1.2h-2.2v10.9h-1.4V416.5z"/>
	<path class="st1" d="M-161.3,415.3v4.8c0.3,0,0.6-0.1,0.9-0.1c2.2,0,3.6,1.4,3.6,3.6c0,1.1-0.3,1.9-0.9,2.6
		c-0.7,0.8-1.8,1.3-3.3,1.3c-0.9,0-1.4-0.1-1.8-0.1v-12.1H-161.3z M-161.3,426.3c0.2,0.1,0.4,0.1,0.7,0.1c1.5,0,2.4-1.1,2.4-2.6
		s-0.9-2.5-2.4-2.5c-0.3,0-0.5,0-0.7,0.1V426.3z"/>
</g>
</svg>
