<!-- Generator: Adobe Illustrator 19.1.0, SVG Export Plug-In  -->
<svg version="1.1"
	 xmlns="http://www.w3.org/2000/svg" xmlns:xlink="http://www.w3.org/1999/xlink" xmlns:a="http://ns.adobe.com/AdobeSVGViewerExtensions/3.0/"
	 x="0px" y="0px" width="1241.4px" height="45.6px" viewBox="0 0 1241.4 45.6" style="enable-background:new 0 0 1241.4 45.6;"
	 xml:space="preserve">
<style type="text/css">
	.st0{fill:#FFFFFF;}
</style>
<defs>
</defs>
<rect y="2.2" class="st0" width="1241.4" height="43.4"/>
<g>
	<path d="M49.5,21.4L49.5,21.4l-1.3,0.7L48,21.4l1.6-1h0.8v7.8h-0.9V21.4z"/>
	<path d="M56.1,24.3c0,2.8-0.9,4-2,4c-1.2,0-1.9-1.4-1.9-4c0-2.6,0.8-4,2.1-4C55.5,20.3,56.1,21.8,56.1,24.3z M53.1,24.3
		c0,1.9,0.3,3.2,1.1,3.2c0.7,0,1-1.3,1-3.2c0-1.8-0.3-3.2-1-3.2C53.4,21.1,53.1,22.4,53.1,24.3z"/>
	<path d="M60.8,24.3c0,2.8-0.9,4-2,4c-1.2,0-1.9-1.4-1.9-4c0-2.6,0.8-4,2.1-4C60.1,20.3,60.8,21.8,60.8,24.3z M57.7,24.3
		c0,1.9,0.3,3.2,1.1,3.2c0.7,0,1-1.3,1-3.2c0-1.8-0.3-3.2-1-3.2C58,21.1,57.7,22.4,57.7,24.3z"/>
	<path d="M125.5,21.4L125.5,21.4l-1.3,0.7l-0.2-0.7l1.6-1h0.8v7.8h-0.9V21.4z"/>
	<path d="M128.3,28.2v-0.6l0.7-0.9c0.9-1.3,2-2.7,2-4.2c0-0.9-0.4-1.4-1.1-1.4c-0.6,0-0.9,0.3-1.1,0.4l-0.2-0.7
		c0.3-0.2,0.8-0.5,1.5-0.5c1.3,0,1.9,1,1.9,2.1c0,1.5-1,2.9-1.9,4.2l-0.5,0.7v0h2.6v0.8H128.3z"/>
	<path d="M136.8,24.3c0,2.8-0.9,4-2,4c-1.2,0-1.9-1.4-1.9-4c0-2.6,0.8-4,2.1-4C136.1,20.3,136.8,21.8,136.8,24.3z M133.7,24.3
		c0,1.9,0.3,3.2,1.1,3.2c0.7,0,1-1.3,1-3.2c0-1.8-0.3-3.2-1-3.2C134.1,21.1,133.7,22.4,133.7,24.3z"/>
	<path d="M201.5,21.4L201.5,21.4l-1.3,0.7l-0.2-0.7l1.6-1h0.8v7.8h-0.9V21.4z"/>
	<path d="M206.7,28.2v-2.1h-2.6v-0.6l2.5-5h0.9v4.9h0.9v0.8h-0.9v2.1H206.7z M206.7,25.3v-2.2c0-0.5,0-1,0.1-1.5h0
		c-0.3,0.6-0.4,1-0.7,1.5l-1.1,2.2v0H206.7z"/>
	<path d="M212.8,24.3c0,2.8-0.9,4-2,4c-1.2,0-1.9-1.4-1.9-4c0-2.6,0.8-4,2.1-4C212.2,20.3,212.8,21.8,212.8,24.3z M209.8,24.3
		c0,1.9,0.3,3.2,1.1,3.2c0.7,0,1-1.3,1-3.2c0-1.8-0.3-3.2-1-3.2C210.1,21.1,209.8,22.4,209.8,24.3z"/>
	<path d="M277.6,21.4L277.6,21.4l-1.3,0.7l-0.2-0.7l1.6-1h0.8v7.8h-0.9V21.4z"/>
	<path d="M283.8,21.1c-0.2,0-0.3,0-0.6,0.1c-1.3,0.3-1.8,1.6-2,2.8h0c0.3-0.4,0.7-0.7,1.3-0.7c1,0,1.7,0.9,1.7,2.4
		c0,1.5-0.7,2.7-1.9,2.7c-1.4,0-2-1.4-2-3.2c0-1.5,0.4-2.7,1-3.5c0.5-0.7,1.2-1.1,1.9-1.2c0.3,0,0.5-0.1,0.6-0.1V21.1z M283.3,25.7
		c0-1.2-0.4-1.8-1-1.8c-0.4,0-0.8,0.3-1,0.8c0,0.1-0.1,0.2-0.1,0.5c0,1.6,0.5,2.3,1.1,2.3C282.8,27.6,283.3,27.1,283.3,25.7z"/>
	<path d="M288.8,24.3c0,2.8-0.9,4-2,4c-1.2,0-1.9-1.4-1.9-4c0-2.6,0.8-4,2.1-4C288.2,20.3,288.8,21.8,288.8,24.3z M285.8,24.3
		c0,1.9,0.3,3.2,1.1,3.2c0.7,0,1-1.3,1-3.2c0-1.8-0.3-3.2-1-3.2C286.1,21.1,285.8,22.4,285.8,24.3z"/>
	<path d="M353.6,21.4L353.6,21.4l-1.3,0.7l-0.2-0.7l1.6-1h0.8v7.8h-0.9V21.4z"/>
	<path d="M356.3,26.3c0-1.1,0.6-1.8,1.3-2.2l0,0c-0.6-0.4-1-1.1-1-1.8c0-1.2,0.9-1.9,1.8-1.9c1.1,0,1.7,0.9,1.7,1.8
		c0,0.7-0.3,1.3-1,1.8v0c0.7,0.5,1.2,1.2,1.2,2.1c0,1.2-0.8,2.2-2,2.2C356.9,28.3,356.3,27.3,356.3,26.3z M359.3,26.2
		c0-0.9-0.5-1.4-1.1-1.8c-0.6,0.4-1,1.1-1,1.7c0,0.9,0.4,1.5,1.1,1.5C358.9,27.6,359.3,27.2,359.3,26.2z M357.4,22.2
		c0,0.8,0.5,1.2,1,1.5c0.5-0.3,0.8-0.9,0.8-1.4c0-0.8-0.3-1.3-0.9-1.3C357.8,21,357.4,21.5,357.4,22.2z"/>
	<path d="M364.9,24.3c0,2.8-0.9,4-2,4c-1.2,0-1.9-1.4-1.9-4c0-2.6,0.8-4,2.1-4C364.2,20.3,364.9,21.8,364.9,24.3z M361.8,24.3
		c0,1.9,0.3,3.2,1.1,3.2c0.7,0,1-1.3,1-3.2c0-1.8-0.3-3.2-1-3.2C362.2,21.1,361.8,22.4,361.8,24.3z"/>
	<path d="M425.9,28.2v-0.6l0.7-0.9c0.9-1.3,2-2.7,2-4.2c0-0.9-0.4-1.4-1.1-1.4c-0.6,0-0.9,0.3-1.1,0.4l-0.2-0.7
		c0.3-0.2,0.8-0.5,1.5-0.5c1.3,0,1.9,1,1.9,2.1c0,1.5-1,2.9-1.9,4.2l-0.5,0.7v0h2.6v0.8H425.9z"/>
	<path d="M434.4,24.3c0,2.8-0.9,4-2,4c-1.2,0-1.9-1.4-1.9-4c0-2.6,0.8-4,2.1-4C433.7,20.3,434.4,21.8,434.4,24.3z M431.4,24.3
		c0,1.9,0.3,3.2,1.1,3.2c0.7,0,1-1.3,1-3.2c0-1.8-0.3-3.2-1-3.2C431.7,21.1,431.4,22.4,431.4,24.3z"/>
	<path d="M439,24.3c0,2.8-0.9,4-2,4c-1.2,0-1.9-1.4-1.9-4c0-2.6,0.8-4,2.1-4C438.4,20.3,439,21.8,439,24.3z M436,24.3
		c0,1.9,0.3,3.2,1.1,3.2c0.7,0,1-1.3,1-3.2c0-1.8-0.3-3.2-1-3.2C436.3,21.1,436,22.4,436,24.3z"/>
	<path d="M501.9,28.2v-0.6l0.7-0.9c0.9-1.3,2-2.7,2-4.2c0-0.9-0.4-1.4-1.1-1.4c-0.6,0-0.9,0.3-1.1,0.4l-0.2-0.7
		c0.3-0.2,0.8-0.5,1.5-0.5c1.3,0,1.9,1,1.9,2.1c0,1.5-1,2.9-1.9,4.2l-0.5,0.7v0h2.6v0.8H501.9z"/>
	<path d="M508.4,21.4L508.4,21.4l-1.3,0.7l-0.2-0.7l1.6-1h0.8v7.8h-0.9V21.4z"/>
	<path d="M515.1,24.3c0,2.8-0.9,4-2,4c-1.2,0-1.9-1.4-1.9-4c0-2.6,0.8-4,2.1-4C514.4,20.3,515.1,21.8,515.1,24.3z M512,24.3
		c0,1.9,0.3,3.2,1.1,3.2c0.7,0,1-1.3,1-3.2c0-1.8-0.3-3.2-1-3.2C512.3,21.1,512,22.4,512,24.3z"/>
	<path d="M577.9,28.2v-0.6l0.7-0.9c0.9-1.3,2-2.7,2-4.2c0-0.9-0.4-1.4-1.1-1.4c-0.6,0-0.9,0.3-1.1,0.4l-0.2-0.7
		c0.3-0.2,0.8-0.5,1.5-0.5c1.3,0,1.9,1,1.9,2.1c0,1.5-1,2.9-1.9,4.2l-0.5,0.7v0h2.6v0.8H577.9z"/>
	<path d="M582.6,28.2v-0.6l0.7-0.9c0.9-1.3,2-2.7,2-4.2c0-0.9-0.4-1.4-1.1-1.4c-0.6,0-0.9,0.3-1.1,0.4l-0.2-0.7
		c0.3-0.2,0.8-0.5,1.5-0.5c1.3,0,1.9,1,1.9,2.1c0,1.5-1,2.9-1.9,4.2l-0.5,0.7v0h2.6v0.8H582.6z"/>
	<path d="M591.1,24.3c0,2.8-0.9,4-2,4c-1.2,0-1.9-1.4-1.9-4c0-2.6,0.8-4,2.1-4C590.4,20.3,591.1,21.8,591.1,24.3z M588,24.3
		c0,1.9,0.3,3.2,1.1,3.2c0.7,0,1-1.3,1-3.2c0-1.8-0.3-3.2-1-3.2C588.4,21.1,588,22.4,588,24.3z"/>
	<path d="M654,28.2v-0.6l0.7-0.9c0.9-1.3,2-2.7,2-4.2c0-0.9-0.4-1.4-1.1-1.4c-0.6,0-0.9,0.3-1.1,0.4l-0.2-0.7
		c0.3-0.2,0.8-0.5,1.5-0.5c1.3,0,1.9,1,1.9,2.1c0,1.5-1,2.9-1.9,4.2l-0.5,0.7v0h2.6v0.8H654z"/>
	<path d="M661,28.2v-2.1h-2.6v-0.6l2.5-5h0.9v4.9h0.9v0.8h-0.9v2.1H661z M661,25.3v-2.2c0-0.5,0-1,0.1-1.5h0c-0.3,0.6-0.4,1-0.7,1.5
		l-1.1,2.2v0H661z"/>
	<path d="M667.1,24.3c0,2.8-0.9,4-2,4c-1.2,0-1.9-1.4-1.9-4c0-2.6,0.8-4,2.1-4C666.5,20.3,667.1,21.8,667.1,24.3z M664.1,24.3
		c0,1.9,0.3,3.2,1.1,3.2c0.7,0,1-1.3,1-3.2c0-1.8-0.3-3.2-1-3.2C664.4,21.1,664.1,22.4,664.1,24.3z"/>
	<path d="M730,28.2v-0.6l0.7-0.9c0.9-1.3,2-2.7,2-4.2c0-0.9-0.4-1.4-1.1-1.4c-0.6,0-0.9,0.3-1.1,0.4l-0.2-0.7
		c0.3-0.2,0.8-0.5,1.5-0.5c1.3,0,1.9,1,1.9,2.1c0,1.5-1,2.9-1.9,4.2l-0.5,0.7v0h2.6v0.8H730z"/>
	<path d="M738.1,21.1c-0.2,0-0.3,0-0.6,0.1c-1.3,0.3-1.8,1.6-2,2.8h0c0.3-0.4,0.7-0.7,1.3-0.7c1,0,1.7,0.9,1.7,2.4
		c0,1.5-0.7,2.7-1.9,2.7c-1.4,0-2-1.4-2-3.2c0-1.5,0.4-2.7,1-3.5c0.5-0.7,1.2-1.1,1.9-1.2c0.3,0,0.5-0.1,0.6-0.1V21.1z M737.6,25.7
		c0-1.2-0.4-1.8-1-1.8c-0.4,0-0.8,0.3-1,0.8c0,0.1-0.1,0.2-0.1,0.5c0,1.6,0.5,2.3,1.1,2.3C737.1,27.6,737.6,27.1,737.6,25.7z"/>
	<path d="M743.1,24.3c0,2.8-0.9,4-2,4c-1.2,0-1.9-1.4-1.9-4c0-2.6,0.8-4,2.1-4C742.5,20.3,743.1,21.8,743.1,24.3z M740.1,24.3
		c0,1.9,0.3,3.2,1.1,3.2c0.7,0,1-1.3,1-3.2c0-1.8-0.3-3.2-1-3.2C740.4,21.1,740.1,22.4,740.1,24.3z"/>
	<path d="M806,28.2v-0.6l0.7-0.9c0.9-1.3,2-2.7,2-4.2c0-0.9-0.4-1.4-1.1-1.4c-0.6,0-0.9,0.3-1.1,0.4l-0.2-0.7
		c0.3-0.2,0.8-0.5,1.5-0.5c1.3,0,1.9,1,1.9,2.1c0,1.5-1,2.9-1.9,4.2l-0.5,0.7v0h2.6v0.8H806z"/>
	<path d="M810.6,26.3c0-1.1,0.6-1.8,1.3-2.2l0,0c-0.6-0.4-1-1.1-1-1.8c0-1.2,0.9-1.9,1.8-1.9c1.1,0,1.7,0.9,1.7,1.8
		c0,0.7-0.3,1.3-1,1.8v0c0.7,0.5,1.2,1.2,1.2,2.1c0,1.2-0.8,2.2-2,2.2C811.2,28.3,810.6,27.3,810.6,26.3z M813.6,26.2
		c0-0.9-0.5-1.4-1.1-1.8c-0.6,0.4-1,1.1-1,1.7c0,0.9,0.4,1.5,1.1,1.5C813.2,27.6,813.6,27.2,813.6,26.2z M811.7,22.2
		c0,0.8,0.5,1.2,1,1.5c0.5-0.3,0.8-0.9,0.8-1.4c0-0.8-0.3-1.3-0.9-1.3C812.1,21,811.7,21.5,811.7,22.2z"/>
	<path d="M819.2,24.3c0,2.8-0.9,4-2,4c-1.2,0-1.9-1.4-1.9-4c0-2.6,0.8-4,2.1-4C818.5,20.3,819.2,21.8,819.2,24.3z M816.1,24.3
		c0,1.9,0.3,3.2,1.1,3.2c0.7,0,1-1.3,1-3.2c0-1.8-0.3-3.2-1-3.2C816.5,21.1,816.1,22.4,816.1,24.3z"/>
	<path d="M882.2,27.2c0.2,0.1,0.7,0.3,1.1,0.3c0.8,0,1.3-0.6,1.3-1.6c0-1-0.6-1.6-1.6-1.6h-0.2v-0.7h0.2c0.6,0,1.4-0.4,1.4-1.4
		c0-0.8-0.4-1.2-1-1.2c-0.4,0-0.7,0.2-1,0.4l-0.2-0.7c0.3-0.2,0.8-0.4,1.4-0.4c1.1,0,1.7,0.8,1.7,1.8c0,0.8-0.4,1.5-1.2,1.8v0
		c0.7,0.2,1.4,0.8,1.4,2c0,1.3-0.8,2.3-2.2,2.3c-0.5,0-1.1-0.1-1.4-0.4L882.2,27.2z"/>
	<path d="M890.6,24.3c0,2.8-0.9,4-2,4c-1.2,0-1.9-1.4-1.9-4c0-2.6,0.8-4,2.1-4C889.9,20.3,890.6,21.8,890.6,24.3z M887.5,24.3
		c0,1.9,0.3,3.2,1.1,3.2c0.7,0,1-1.3,1-3.2c0-1.8-0.3-3.2-1-3.2C887.9,21.1,887.5,22.4,887.5,24.3z"/>
	<path d="M895.2,24.3c0,2.8-0.9,4-2,4c-1.2,0-1.9-1.4-1.9-4c0-2.6,0.8-4,2.1-4C894.6,20.3,895.2,21.8,895.2,24.3z M892.2,24.3
		c0,1.9,0.3,3.2,1.1,3.2c0.7,0,1-1.3,1-3.2c0-1.8-0.3-3.2-1-3.2C892.5,21.1,892.2,22.4,892.2,24.3z"/>
	<path d="M958.2,27.2c0.2,0.1,0.7,0.3,1.1,0.3c0.8,0,1.3-0.6,1.3-1.6c0-1-0.6-1.6-1.6-1.6h-0.2v-0.7h0.2c0.6,0,1.4-0.4,1.4-1.4
		c0-0.8-0.4-1.2-1-1.2c-0.4,0-0.7,0.2-1,0.4l-0.2-0.7c0.3-0.2,0.8-0.4,1.4-0.4c1.1,0,1.7,0.8,1.7,1.8c0,0.8-0.4,1.5-1.2,1.8v0
		c0.7,0.2,1.4,0.8,1.4,2c0,1.3-0.8,2.3-2.2,2.3c-0.5,0-1.1-0.1-1.4-0.4L958.2,27.2z"/>
	<path d="M962.7,28.2v-0.6l0.7-0.9c0.9-1.3,2-2.7,2-4.2c0-0.9-0.4-1.4-1.1-1.4c-0.6,0-0.9,0.3-1.1,0.4l-0.2-0.7
		c0.3-0.2,0.8-0.5,1.5-0.5c1.3,0,1.9,1,1.9,2.1c0,1.5-1,2.9-1.9,4.2l-0.5,0.7v0h2.6v0.8H962.7z"/>
	<path d="M971.2,24.3c0,2.8-0.9,4-2,4c-1.2,0-1.9-1.4-1.9-4c0-2.6,0.8-4,2.1-4C970.6,20.3,971.2,21.8,971.2,24.3z M968.2,24.3
		c0,1.9,0.3,3.2,1.1,3.2c0.7,0,1-1.3,1-3.2c0-1.8-0.3-3.2-1-3.2C968.5,21.1,968.2,22.4,968.2,24.3z"/>
	<path d="M1034.3,27.2c0.2,0.1,0.7,0.3,1.1,0.3c0.8,0,1.3-0.6,1.3-1.6c0-1-0.6-1.6-1.6-1.6h-0.2v-0.7h0.2c0.6,0,1.4-0.4,1.4-1.4
		c0-0.8-0.4-1.2-1-1.2c-0.4,0-0.7,0.2-1,0.4l-0.2-0.7c0.3-0.2,0.8-0.4,1.4-0.4c1.1,0,1.7,0.8,1.7,1.8c0,0.8-0.4,1.5-1.2,1.8v0
		c0.7,0.2,1.4,0.8,1.4,2c0,1.3-0.8,2.3-2.2,2.3c-0.5,0-1.1-0.1-1.4-0.4L1034.3,27.2z"/>
	<path d="M1041.2,28.2v-2.1h-2.6v-0.6l2.5-5h0.9v4.9h0.9v0.8h-0.9v2.1H1041.2z M1041.2,25.3v-2.2c0-0.5,0-1,0.1-1.5h0
		c-0.3,0.6-0.4,1-0.7,1.5l-1.1,2.2v0H1041.2z"/>
	<path d="M1047.3,24.3c0,2.8-0.9,4-2,4c-1.2,0-1.9-1.4-1.9-4c0-2.6,0.8-4,2.1-4C1046.6,20.3,1047.3,21.8,1047.3,24.3z M1044.2,24.3
		c0,1.9,0.3,3.2,1.1,3.2c0.7,0,1-1.3,1-3.2c0-1.8-0.3-3.2-1-3.2C1044.6,21.1,1044.2,22.4,1044.2,24.3z"/>
	<path d="M1110.3,27.2c0.2,0.1,0.7,0.3,1.1,0.3c0.8,0,1.3-0.6,1.3-1.6c0-1-0.6-1.6-1.6-1.6h-0.2v-0.7h0.2c0.6,0,1.4-0.4,1.4-1.4
		c0-0.8-0.4-1.2-1-1.2c-0.4,0-0.7,0.2-1,0.4l-0.2-0.7c0.3-0.2,0.8-0.4,1.4-0.4c1.1,0,1.7,0.8,1.7,1.8c0,0.8-0.4,1.5-1.2,1.8v0
		c0.7,0.2,1.4,0.8,1.4,2c0,1.3-0.8,2.3-2.2,2.3c-0.5,0-1.1-0.1-1.4-0.4L1110.3,27.2z"/>
	<path d="M1118.2,21.1c-0.2,0-0.3,0-0.6,0.1c-1.3,0.3-1.8,1.6-2,2.8h0c0.3-0.4,0.7-0.7,1.3-0.7c1,0,1.7,0.9,1.7,2.4
		c0,1.5-0.7,2.7-1.9,2.7c-1.4,0-2-1.4-2-3.2c0-1.5,0.4-2.7,1-3.5c0.5-0.7,1.2-1.1,1.9-1.2c0.3,0,0.5-0.1,0.6-0.1V21.1z M1117.8,25.7
		c0-1.2-0.4-1.8-1-1.8c-0.4,0-0.8,0.3-1,0.8c0,0.1-0.1,0.2-0.1,0.5c0,1.6,0.5,2.3,1.1,2.3C1117.3,27.6,1117.8,27.1,1117.8,25.7z"/>
	<path d="M1123.3,24.3c0,2.8-0.9,4-2,4c-1.2,0-1.9-1.4-1.9-4c0-2.6,0.8-4,2.1-4C1122.6,20.3,1123.3,21.8,1123.3,24.3z M1120.3,24.3
		c0,1.9,0.3,3.2,1.1,3.2c0.7,0,1-1.3,1-3.2c0-1.8-0.3-3.2-1-3.2C1120.6,21.1,1120.3,22.4,1120.3,24.3z"/>
	<path d="M1186.3,27.2c0.2,0.1,0.7,0.3,1.1,0.3c0.8,0,1.3-0.6,1.3-1.6c0-1-0.6-1.6-1.6-1.6h-0.2v-0.7h0.2c0.6,0,1.4-0.4,1.4-1.4
		c0-0.8-0.4-1.2-1-1.2c-0.4,0-0.7,0.2-1,0.4l-0.2-0.7c0.3-0.2,0.8-0.4,1.4-0.4c1.1,0,1.7,0.8,1.7,1.8c0,0.8-0.4,1.5-1.2,1.8v0
		c0.7,0.2,1.4,0.8,1.4,2c0,1.3-0.8,2.3-2.2,2.3c-0.5,0-1.1-0.1-1.4-0.4L1186.3,27.2z"/>
	<path d="M1190.8,26.3c0-1.1,0.6-1.8,1.3-2.2l0,0c-0.6-0.4-1-1.1-1-1.8c0-1.2,0.9-1.9,1.8-1.9c1.1,0,1.7,0.9,1.7,1.8
		c0,0.7-0.3,1.3-1,1.8v0c0.7,0.5,1.2,1.2,1.2,2.1c0,1.2-0.8,2.2-2,2.2C1191.4,28.3,1190.8,27.3,1190.8,26.3z M1193.8,26.2
		c0-0.9-0.5-1.4-1.1-1.8c-0.6,0.4-1,1.1-1,1.7c0,0.9,0.4,1.5,1.1,1.5C1193.3,27.6,1193.8,27.2,1193.8,26.2z M1191.9,22.2
		c0,0.8,0.5,1.2,1,1.5c0.5-0.3,0.8-0.9,0.8-1.4c0-0.8-0.3-1.3-0.9-1.3C1192.2,21,1191.9,21.5,1191.9,22.2z"/>
	<path d="M1199.3,24.3c0,2.8-0.9,4-2,4c-1.2,0-1.9-1.4-1.9-4c0-2.6,0.8-4,2.1-4C1198.7,20.3,1199.3,21.8,1199.3,24.3z M1196.3,24.3
		c0,1.9,0.3,3.2,1.1,3.2c0.7,0,1-1.3,1-3.2c0-1.8-0.3-3.2-1-3.2C1196.6,21.1,1196.3,22.4,1196.3,24.3z"/>
</g>
<line x1="55.7" y1="0" x2="55.7" y2="14"/>
<line x1="131" y1="0" x2="131" y2="14"/>
<line x1="207" y1="0" x2="207" y2="14"/>
<line x1="282.3" y1="0" x2="282.3" y2="14"/>
<line x1="358.3" y1="0" x2="358.3" y2="14"/>
<line x1="433.7" y1="0" x2="433.7" y2="14"/>
<line x1="509.7" y1="0" x2="509.7" y2="14"/>
<line x1="585" y1="0" x2="585" y2="14"/>
<line x1="660.3" y1="0" x2="660.3" y2="14"/>
<line x1="736.7" y1="0" x2="736.7" y2="14"/>
<line x1="812.7" y1="0" x2="812.7" y2="14"/>
<line x1="888" y1="0" x2="888" y2="14"/>
<line x1="965" y1="0" x2="965" y2="14"/>
<line x1="1039.3" y1="0" x2="1039.3" y2="14"/>
<line x1="1117.3" y1="0" x2="1117.3" y2="14"/>
<line x1="1192.7" y1="0" x2="1192.7" y2="14"/>
</svg>
