<?xml version="1.0" encoding="utf-8"?>
<!-- Generator: Adobe Illustrator 19.1.0, SVG Export Plug-In . SVG Version: 6.00 Build 0)  -->
<svg version="1.1" id="Layer_1" xmlns="http://www.w3.org/2000/svg" xmlns:xlink="http://www.w3.org/1999/xlink" x="0px" y="0px"
	 viewBox="-255 399.9 84.2 43" style="enable-background:new -255 399.9 84.2 43;" xml:space="preserve">
<style type="text/css">
	.st0{fill:#213E7A;}
	.st1{fill:#FFFFFF;}
</style>
<rect x="-255" y="400.4" class="st0" width="84.2" height="42"/>
<g>
	<path class="st1" d="M-219.5,426.5c-0.3,0.1-0.6,0.2-1.2,0.2c-1.6,0-2.7-1.3-2.7-4c0-3.2,1.6-4.2,2.9-4.2c0.5,0,0.8,0.1,1,0.2
		l-0.2,0.8c-0.2-0.1-0.4-0.2-0.8-0.2c-0.9,0-1.9,0.8-1.9,3.3c0,2.5,0.9,3.3,1.9,3.3c0.3,0,0.7-0.1,0.9-0.2L-219.5,426.5z"/>
	<path class="st1" d="M-217.4,419.4h-1.5v-0.8h3.9v0.8h-1.5v7.3h-0.9V419.4z"/>
	<path class="st1" d="M-213.8,424.3l-0.5,2.4h-0.9l1.8-8.1h1l1.8,8.1h-0.9l-0.5-2.4H-213.8z M-212.1,423.5l-0.4-2.1
		c-0.1-0.6-0.2-1.2-0.3-1.8h0c-0.1,0.6-0.2,1.3-0.3,1.8l-0.4,2.1H-212.1z"/>
	<path class="st1" d="M-209.5,418.7c0.4-0.1,0.8-0.2,1.3-0.2c0.7,0,1.4,0.2,1.8,0.6c0.4,0.4,0.6,1,0.6,1.7c0,0.7-0.2,1.2-0.5,1.7
		c-0.4,0.6-1.2,0.9-1.9,0.9c-0.2,0-0.3,0-0.4,0v3.3h-0.9V418.7z M-208.6,422.6c0.1,0,0.2,0,0.4,0c0.9,0,1.5-0.6,1.5-1.7
		c0-0.8-0.3-1.6-1.4-1.6c-0.2,0-0.4,0-0.5,0.1V422.6z"/>
	<path class="st1" d="M-203.9,419.4h-1.5v-0.8h3.9v0.8h-1.5v7.3h-0.9V419.4z"/>
</g>
</svg>
