<?xml version="1.0" encoding="utf-8"?>
<!-- Generator: Adobe Illustrator 19.1.0, SVG Export Plug-In . SVG Version: 6.00 Build 0)  -->
<svg version="1.1" id="Layer_1" xmlns="http://www.w3.org/2000/svg" xmlns:xlink="http://www.w3.org/1999/xlink" x="0px" y="0px"
	 viewBox="-255 409.2 83.3 22.7" style="enable-background:new -255 409.2 83.3 22.7;" xml:space="preserve">
<style type="text/css">
	.st0{fill:#2C447E;}
</style>
<path class="st0" d="M-251.5,409.3v2.7c0,0.8,0.3,1.4,1.1,1.4c0.3,0,0.7-0.1,0.9-0.3v-3.8h0.9v8.1h-0.9v-3.5l0,0
	c-0.4,0.2-0.8,0.3-1.2,0.3c-1.1,0-1.7-0.7-1.7-2v-2.9H-251.5z"/>
<path class="st0" d="M-246.2,410.1h-1.5v-0.8h3.9v0.8h-1.5v7.3h-0.9V410.1z"/>
<path class="st0" d="M-239.1,413.3c0,3-1,4.2-2.3,4.2c-1.3,0-2.2-1.4-2.2-4.1s1-4.1,2.4-4.1C-239.9,409.2-239.1,410.7-239.1,413.3z
	 M-242.7,413.3c0,1.7,0.3,3.3,1.3,3.3s1.3-1.8,1.3-3.3s-0.3-3.3-1.3-3.3S-242.7,411.7-242.7,413.3z"/>
<path class="st0" d="M-234.6,409.3v0.8h-2.5v2.4c0.2,0,0.4,0,0.6,0c0.7,0,1.3,0.2,1.7,0.6c0.4,0.4,0.7,1,0.7,1.8
	c0,0.7-0.2,1.3-0.6,1.7c-0.5,0.5-1.2,0.8-2.2,0.8c-0.6,0-1,0-1.2-0.1v-8C-238.1,409.3-234.6,409.3-234.6,409.3z M-237.1,416.6
	c0.2,0,0.3,0,0.5,0c0.6,0,1-0.2,1.2-0.6c0.3-0.2,0.4-0.6,0.4-1.1s-0.2-0.9-0.4-1.2c-0.2-0.3-0.7-0.5-1.2-0.5c-0.1,0-0.3,0-0.5,0
	V416.6z"/>
<path class="st0" d="M-232.1,409.3v3.2c0.2,0,0.4,0,0.6,0c1.4,0,2.4,0.9,2.4,2.4c0,0.7-0.2,1.3-0.6,1.7c-0.5,0.5-1.2,0.8-2.2,0.8
	c-0.6,0-0.9,0-1.2-0.1v-8C-233.1,409.3-232.1,409.3-232.1,409.3z M-232.1,416.6c0.2,0,0.3,0,0.4,0c1,0,1.6-0.7,1.6-1.8
	c0-1-0.6-1.7-1.6-1.7c-0.2,0-0.3,0-0.4,0V416.6z M-227.4,409.3v8.1h-0.9v-8.1H-227.4z"/>
<path class="st0" d="M-223.1,409.3v3.5h2.3v-3.5h0.8v8.1h-0.9v-3.8h-2.3v3.8h-0.9v-8.1H-223.1z"/>
<path class="st0" d="M-217.5,415l-0.5,2.4h-1l1.8-8.1h1l1.8,8.1h-0.9l-0.5-2.4C-215.8,415-217.5,415-217.5,415z M-215.9,414.2
	l-0.4-2c-0.1-0.6-0.2-1.2-0.3-1.8l0,0c-0.2,0.5-0.3,1.2-0.4,1.8l-0.4,2H-215.9z"/>
<path class="st0" d="M-212.5,409.3v2.7c0,0.8,0.3,1.4,1.1,1.4c0.3,0,0.7-0.1,0.9-0.3v-3.8h0.9v8.1h-0.9v-3.5l0,0
	c-0.3,0.2-0.7,0.3-1.2,0.3c-1.1,0-1.7-0.6-1.7-2v-2.9H-212.5z"/>
<path class="st0" d="M-207.1,415l-0.5,2.4h-0.9l1.8-8.1h1l1.8,8.1h-0.9l-0.5-2.4C-205.3,415-207.1,415-207.1,415z M-205.4,414.2
	l-0.4-2c-0.1-0.6-0.2-1.2-0.3-1.8l0,0c-0.1,0.6-0.2,1.3-0.3,1.8l-0.6,2H-205.4z"/>
<path class="st0" d="M-202.6,410.1h-1.4v-0.8h3.9v0.8h-1.5v7.3h-0.9v-7.3H-202.6z"/>
<path class="st0" d="M-198.3,409.3v3.2c0.2,0,0.4,0,0.6,0c1.5,0,2.4,0.9,2.4,2.4c0,0.7-0.2,1.3-0.6,1.7c-0.5,0.5-1.2,0.8-2.2,0.8
	c-0.6,0-0.9,0-1.2-0.1v-8C-199.3,409.3-198.3,409.3-198.3,409.3z M-198.3,416.6c0.2,0,0.3,0,0.4,0c1,0,1.6-0.7,1.6-1.8
	c0-1-0.6-1.7-1.6-1.7c-0.2,0-0.3,0-0.5,0L-198.3,416.6L-198.3,416.6z"/>
<path class="st0" d="M-191.5,409.3v2.9c0,1.4,0,2.4-0.1,3.7l0,0c0.3-0.9,0.7-1.9,1-2.8l1.5-3.8h0.9v8.1h-0.8v-2.8
	c0-1.7,0-2.7,0.1-3.8l0,0c-0.3,1-0.7,1.9-1,2.7l-1.5,3.9h-0.9v-8.1H-191.5z"/>
<path class="st0" d="M-183.6,409.3v0.8h-2.2v7.3h-0.9v-8.1H-183.6z"/>
<path class="st0" d="M-182.7,409.4c0.4-0.1,0.8-0.2,1.3-0.2c0.7,0,1.4,0.2,1.8,0.6c0.4,0.4,0.6,1,0.6,1.7s-0.2,1.2-0.5,1.7
	c-0.4,0.6-1.2,0.9-1.9,0.9c-0.2,0-0.3,0-0.4,0v3.3h-0.9C-182.7,417.4-182.7,409.4-182.7,409.4z M-181.8,413.3c0.1,0,0.2,0,0.4,0
	c0.9,0,1.5-0.6,1.5-1.7c0-0.8-0.3-1.6-1.4-1.6c-0.2,0-0.4,0-0.5,0.1V413.3z"/>
<path class="st0" d="M-177.7,409.3l1,3.3c0.2,0.5,0.3,0.9,0.4,1.4l0,0c0.1-0.4,0.2-0.9,0.3-1.4l0.7-3.3h0.9l-1,3.6
	c-0.3,0.9-0.6,2.3-1.1,3.4c-0.4,0.7-0.9,1.2-1.5,1.2c-0.2,0-0.3,0-0.4,0v-0.8c0.1,0,0.1,0,0.2,0c0.7,0,1.1-0.9,1.3-1.5
	c0-0.1,0-0.3,0-0.5l-1.8-5.4C-178.7,409.3-177.7,409.3-177.7,409.3z"/>
<path class="st0" d="M-254.1,423.7v3.5h2.3v-3.5h0.9v8.1h-0.9V428h-2.3v3.8h-0.9v-8.1H-254.1z"/>
<path class="st0" d="M-248.5,429.4l-0.5,2.4h-0.9l1.8-8.1h1l1.8,8.1h-0.8l-0.5-2.4H-248.5z M-246.8,428.6l-0.4-2.1
	c-0.1-0.6-0.2-1.2-0.3-1.8l0,0c-0.1,0.6-0.2,1.3-0.3,1.8l-0.4,2.1H-246.8z"/>
<path class="st0" d="M-243.8,423.7l1.8,3.7h0.2v-3.7h0.8v3.7h0.2l1.7-3.7h1l-2.1,3.8c1,0.2,1.4,1.2,1.6,2.1c0.2,0.7,0.3,1.5,0.5,2.2
	h-0.9c-0.2-0.5-0.3-1.4-0.5-1.9c-0.2-0.9-0.5-1.8-1.5-1.8l0,0v3.7h-0.9v-3.7h-0.1c-1,0-1.3,0.9-1.5,1.8c-0.1,0.5-0.3,1.5-0.5,1.9
	h-0.9c0.3-0.7,0.4-1.4,0.5-2.2c0.2-1,0.6-2,1.6-2.1l-2.1-3.8C-244.9,423.7-243.8,423.7-243.8,423.7z"/>
<path class="st0" d="M-232.3,428.3c-0.1-1.1-0.1-2.3-0.1-3.2l0,0c-0.2,0.9-0.4,1.9-0.6,2.8l-1,3.8h-0.6l-0.9-3.6c-0.3-1-0.5-2-0.7-3
	l0,0c0,0.9,0,2.1-0.1,3.2l-0.2,3.4h-0.8l0.5-8.1h1l0.9,3.7c0.3,1.1,0.5,1.9,0.6,2.8l0,0c0.2-0.9,0.3-1.7,0.6-2.8l0.9-3.7h1l0.5,8.1
	h-0.9L-232.3,428.3z"/>
<path class="st0" d="M-229.1,423.7v2.9c0,1.4,0,2.4-0.1,3.7l0,0c0.3-0.9,0.7-1.9,1-2.8l1.5-3.8h0.9v8.1h-0.8V429
	c0-1.7,0-2.7,0.1-3.8l0,0c-0.3,1-0.7,1.9-1,2.7l-1.5,3.9h-1v-8.1C-230,423.7-229.1,423.7-229.1,423.7z"/>
<path class="st0" d="M-223.5,424.5h-1.5v-0.8h3.9v0.8h-1.5v7.3h-0.9C-223.5,431.8-223.5,424.5-223.5,424.5z"/>
<path class="st0" d="M-217.3,427.9h-2v3h2.3v0.8h-3.2v-8.1h3.1v0.8h-2.2v2.8h2C-217.3,427.2-217.3,427.9-217.3,427.9z"/>
<path class="st0" d="M-213.2,423.7v3.5h2.3v-3.5h0.9v8.1h-0.9V428h-2.3v3.8h-0.9v-8.1H-213.2z"/>
<path class="st0" d="M-207.6,429.4l-0.5,2.4h-0.9l1.8-8.1h1l1.8,8.1h-0.9l-0.5-2.4H-207.6z M-205.9,428.6l-0.4-2.1
	c-0.1-0.6-0.2-1.2-0.3-1.8l0,0c-0.1,0.6-0.2,1.3-0.3,1.8l-0.4,2.1H-205.9z"/>
<path class="st0" d="M-200.5,423.7v3.7h0.2l1.7-3.7h1l-2,3.8c1,0.2,1.3,1.1,1.5,2.1c0.2,0.8,0.3,1.5,0.5,2.2h-0.9
	c-0.2-0.5-0.3-1.3-0.5-2c-0.2-1-0.5-1.7-1.4-1.7h-0.1v3.7h-0.9v-8.1C-201.4,423.7-200.5,423.7-200.5,423.7z"/>
<path class="st0" d="M-195.8,423.7v3.5h2.3v-3.5h0.9v8.1h-0.9V428h-2.3v3.8h-0.9v-8.1H-195.8z"/>
<path class="st0" d="M-187,427.7c0,3-1,4.2-2.3,4.2s-2.2-1.4-2.2-4.1c0-2.7,1-4.1,2.4-4.1C-187.8,423.6-187,425.1-187,427.7z
	 M-190.6,427.7c0,1.7,0.3,3.3,1.3,3.3s1.3-1.8,1.3-3.3s-0.3-3.3-1.3-3.3C-190.2,424.4-190.6,426.1-190.6,427.7z"/>
<path class="st0" d="M-181.8,423.7v8.1h-0.9v-7.3h-2.2v7.3h-0.9v-8.1H-181.8z"/>
<path class="st0" d="M-179.4,423.7v3.7h0.2l1.7-3.7h1l-2,3.8c1,0.2,1.3,1.1,1.5,2.1c0.2,0.8,0.3,1.5,0.5,2.2h-0.9
	c-0.2-0.5-0.3-1.3-0.5-2c-0.2-1-0.5-1.7-1.4-1.7h-0.1v3.7h-0.9v-8.1C-180.3,423.7-179.4,423.7-179.4,423.7z"/>
<path class="st0" d="M-175,423.7l1,3.3c0.2,0.5,0.3,0.9,0.4,1.4l0,0c0.1-0.4,0.2-0.9,0.3-1.4l0.7-3.3h0.9l-1,3.6
	c-0.3,0.9-0.6,2.3-1.1,3.4c-0.4,0.7-0.9,1.2-1.5,1.2c-0.2,0-0.3,0-0.4,0v-0.8c0.1,0,0.1,0,0.2,0c0.7,0,1.1-0.9,1.3-1.5
	c0-0.1,0-0.3,0-0.5l-1.8-5.4H-175z"/>
<path class="st0" d="M-175.3,419.6c0.3-0.7,0.6-2,0.7-2.9l1.2-0.1c-0.3,1-0.8,2.4-1.1,2.9L-175.3,419.6z"/>
</svg>
