<!-- Generator: Adobe Illustrator 19.1.0, SVG Export Plug-In  -->
<svg version="1.1"
	 xmlns="http://www.w3.org/2000/svg" xmlns:xlink="http://www.w3.org/1999/xlink" xmlns:a="http://ns.adobe.com/AdobeSVGViewerExtensions/3.0/"
	 x="0px" y="0px" width="86.8px" height="38.4px" viewBox="0 0 86.8 38.4" style="enable-background:new 0 0 86.8 38.4;"
	 xml:space="preserve">
<style type="text/css">
	.st0{fill:#2C447E;}
</style>
<defs>
</defs>
<g>
	<path class="st0" d="M7.1,1.6C7.5,1.5,8,1.4,8.5,1.4c0.7,0,1.4,0.2,1.8,0.6c0.3,0.3,0.5,0.8,0.5,1.4c0,0.8-0.5,1.5-1.2,1.8v0
		c0.9,0.3,1.5,1,1.5,2.1c0,0.7-0.2,1.2-0.6,1.6C10,9.4,9.3,9.6,8.4,9.6c-0.6,0-1,0-1.2-0.1V1.6z M8.1,4.9h0.4c0.8,0,1.4-0.6,1.4-1.4
		c0-0.7-0.3-1.3-1.3-1.3c-0.2,0-0.4,0-0.5,0.1V4.9z M8.1,8.8c0.1,0,0.3,0,0.5,0c1,0,1.6-0.6,1.6-1.6c0-1.1-0.8-1.6-1.6-1.7H8.1V8.8z
		"/>
	<path class="st0" d="M13.1,1.5v3.2c0.2,0,0.4,0,0.6,0C15.1,4.6,16,5.6,16,7c0,0.7-0.2,1.3-0.6,1.7c-0.5,0.5-1.2,0.8-2.2,0.8
		c-0.6,0-0.9,0-1.2-0.1v-8H13.1z M13.1,8.8c0.2,0,0.3,0,0.4,0c1,0,1.6-0.7,1.6-1.8c0-1-0.6-1.7-1.6-1.7c-0.2,0-0.3,0-0.4,0V8.8z
		 M17.7,1.5v8.1h-0.9V1.5H17.7z"/>
	<path class="st0" d="M22.6,1.5v0.8h-2.5v2.4c0.2,0,0.4,0,0.6,0c0.7,0,1.3,0.2,1.7,0.6c0.4,0.4,0.7,1,0.7,1.8c0,0.7-0.2,1.3-0.6,1.7
		c-0.5,0.5-1.2,0.8-2.2,0.8c-0.6,0-1,0-1.2-0.1v-8H22.6z M20.1,8.8c0.2,0,0.3,0,0.5,0c0.6,0,1-0.2,1.2-0.6C22,8,22.2,7.6,22.2,7.1
		c0-0.5-0.2-0.9-0.4-1.2S21,5.4,20.5,5.4c-0.1,0-0.3,0-0.5,0V8.8z"/>
	<path class="st0" d="M27.1,5.7h-2v3h2.3v0.8h-3.2V1.5h3.1v0.8h-2.2v2.7h2V5.7z"/>
	<path class="st0" d="M28.4,1.6c0.4-0.1,0.8-0.2,1.3-0.2c0.7,0,1.4,0.2,1.8,0.6c0.4,0.4,0.6,1,0.6,1.7c0,0.7-0.2,1.2-0.5,1.7
		c-0.4,0.6-1.2,0.9-1.9,0.9c-0.2,0-0.3,0-0.4,0v3.3h-0.9V1.6z M29.4,5.4c0.1,0,0.2,0,0.4,0c0.9,0,1.5-0.6,1.5-1.7
		c0-0.8-0.3-1.6-1.4-1.6c-0.2,0-0.4,0-0.5,0.1V5.4z"/>
	<path class="st0" d="M34.1,1.5v2.9c0,1.4,0,2.4-0.1,3.7h0c0.3-0.9,0.7-1.9,1-2.8l1.5-3.8h0.9v8.1h-0.8V6.7c0-1.7,0-2.7,0.1-3.8h0
		c-0.3,1-0.7,1.9-1,2.7l-1.5,3.9h-0.9V1.5H34.1z"/>
	<path class="st0" d="M39.6,2.3h-1.5V1.5H42v0.8h-1.5v7.3h-0.9V2.3z"/>
	<path class="st0" d="M45.9,5.7h-2v3h2.3v0.8h-3.2V1.5H46v0.8h-2.2v2.7h2V5.7z"/>
	<path class="st0" d="M52.8,1.5v8.1h-0.9V2.3h-1.7V5c0,2.1-0.1,3.7-1,4.4c-0.2,0.2-0.5,0.3-0.7,0.3l-0.2-0.8c0.2,0,0.3-0.1,0.4-0.2
		c0.5-0.4,0.6-1.5,0.6-3.5V1.5H52.8z"/>
	<path class="st0" d="M54.6,1.5l1,3.3c0.2,0.5,0.3,0.9,0.4,1.4h0c0.1-0.4,0.2-0.9,0.3-1.4L57,1.5H58L57,5c-0.3,0.9-0.6,2.3-1.1,3.4
		c-0.4,0.7-0.9,1.2-1.5,1.2c-0.2,0-0.3,0-0.4,0l0-0.8c0.1,0,0.1,0,0.2,0c0.7,0,1.1-0.9,1.3-1.5c0-0.1,0-0.3,0-0.5l-1.8-5.4H54.6z"/>
	<path class="st0" d="M59.6,1.5v2.7c0,0.8,0.3,1.4,1.1,1.4c0.3,0,0.7-0.1,0.9-0.3V1.5h0.9v8.1h-0.9V6h0c-0.4,0.2-0.8,0.3-1.2,0.3
		c-1.1,0-1.7-0.6-1.7-2V1.5H59.6z"/>
	<path class="st0" d="M64.9,1.5v7.3h1.7V1.5h0.9v7.3h1.7V1.5h0.9v8.1H64V1.5H64.9z"/>
	<path class="st0" d="M72.4,1.5v2.9c0,1.4,0,2.4-0.1,3.7h0c0.3-0.9,0.7-1.9,1-2.8l1.5-3.8h0.9v8.1h-0.8V6.7c0-1.7,0-2.7,0.1-3.8h0
		c-0.3,1-0.7,1.9-1,2.7l-1.5,3.9h-0.9V1.5H72.4z"/>
	<path class="st0" d="M78,1.5v2.9c0,1.4,0,2.4-0.1,3.7h0c0.3-0.9,0.7-1.9,1-2.8l1.5-3.8h0.9v8.1h-0.8V6.7c0-1.7,0-2.7,0.1-3.8h0
		c-0.3,1-0.7,1.9-1,2.7L78,9.5h-0.9V1.5H78z M78.5,0c0.1,0.3,0.2,0.7,0.7,0.7c0.4,0,0.6-0.3,0.7-0.7h0.7c-0.1,0.8-0.6,1.2-1.4,1.2
		c-0.8,0-1.3-0.4-1.3-1.2H78.5z"/>
	<path class="st0" d="M5.1,20.5C5,19.4,5,18.2,5,17.3h0c-0.2,0.9-0.4,1.9-0.6,2.8l-1,3.8H2.7l-0.9-3.6c-0.3-1-0.5-2-0.7-3h0
		c0,0.9,0,2.1-0.1,3.2l-0.2,3.4H0l0.5-8.1h1l0.9,3.7c0.3,1.1,0.5,1.9,0.6,2.8h0c0.2-0.9,0.3-1.7,0.6-2.8l0.9-3.7h1l0.5,8.1H5.3
		L5.1,20.5z"/>
	<path class="st0" d="M11.6,19.8c0,3-1,4.2-2.3,4.2C7.9,24,7,22.6,7,19.9c0-2.7,1-4.1,2.4-4.1C10.8,15.8,11.6,17.3,11.6,19.8z
		 M8,19.9c0,1.7,0.3,3.3,1.3,3.3c1,0,1.3-1.8,1.3-3.3c0-1.5-0.3-3.3-1.3-3.3C8.3,16.6,8,18.2,8,19.9z"/>
	<path class="st0" d="M17.5,20.5c-0.1-1.1-0.1-2.3-0.1-3.2h0c-0.2,0.9-0.4,1.9-0.6,2.8l-1,3.8h-0.6l-0.9-3.6c-0.3-1-0.5-2-0.7-3h0
		c0,0.9,0,2.1-0.1,3.2l-0.2,3.4h-0.8l0.5-8.1h1l0.9,3.7c0.3,1.1,0.5,1.9,0.6,2.8h0c0.2-0.9,0.3-1.7,0.6-2.8l0.9-3.7h1l0.5,8.1h-0.9
		L17.5,20.5z"/>
	<path class="st0" d="M22.8,20.1h-2v3H23v0.8h-3.2v-8.1h3.1v0.8h-2.2v2.7h2V20.1z"/>
	<path class="st0" d="M25,15.9v3.5h2.3v-3.5h0.9v8.1h-0.9v-3.8H25v3.8h-0.9v-8.1H25z"/>
	<path class="st0" d="M30.5,16.7H29v-0.8h3.9v0.8h-1.5v7.3h-0.9V16.7z"/>
	<path class="st0" d="M39.8,15.9v7.3l0.5,0l0,2.5h-0.7l-0.1-1.7h-3.6l0,1.7h-0.7l0-2.5l0.5,0c0.3-0.7,0.5-1.5,0.6-2.2
		c0.2-1,0.3-2.1,0.3-3.3v-1.8H39.8z M37.4,17.9c0,1.1,0,2.2-0.2,3.2c-0.1,0.7-0.3,1.4-0.6,2.1h2.3v-6.5h-1.5V17.9z"/>
	<path class="st0" d="M45.2,15.9v8.1h-0.9v-7.3h-1.7v2.8c0,2.1-0.1,3.7-1,4.4c-0.2,0.2-0.5,0.3-0.7,0.3l-0.2-0.8
		c0.2,0,0.3-0.1,0.4-0.2c0.5-0.4,0.6-1.5,0.6-3.5v-3.7H45.2z"/>
	<path class="st0" d="M46.1,23.9c0.1-0.3,0.2-0.5,0.3-0.8c0.2-0.8,0.2-2,0.8-2.6c0.2-0.2,0.4-0.3,0.6-0.4v0c-0.8-0.2-1.4-0.9-1.4-2
		c0-0.8,0.3-1.4,0.8-1.8c0.4-0.3,1-0.5,1.6-0.5c0.4,0,0.9,0,1.3,0.1v8h-0.9v-3.5h-0.3c-0.4,0-0.7,0.1-0.9,0.4
		c-0.4,0.5-0.5,1.7-0.7,2.4c0,0.2-0.1,0.5-0.2,0.7H46.1z M49.2,16.6c-0.1,0-0.3,0-0.5,0c-0.9,0-1.4,0.7-1.4,1.5c0,1,0.6,1.6,1.5,1.6
		c0.1,0,0.2,0,0.3,0V16.6z"/>
	<path class="st0" d="M57.5,15.9v8.1h-0.9v-7.3h-2.2v7.3h-0.9v-8.1H57.5z"/>
	<path class="st0" d="M58.9,16c0.4-0.1,0.8-0.2,1.3-0.2c0.7,0,1.4,0.2,1.8,0.6c0.4,0.4,0.6,1,0.6,1.7c0,0.7-0.2,1.2-0.5,1.7
		c-0.4,0.6-1.2,0.9-1.9,0.9c-0.2,0-0.3,0-0.4,0v3.3h-0.9V16z M59.8,19.8c0.1,0,0.2,0,0.4,0c0.9,0,1.5-0.6,1.5-1.7
		c0-0.8-0.3-1.6-1.4-1.6c-0.2,0-0.4,0-0.5,0.1V19.8z"/>
	<path class="st0" d="M64.6,15.9v3.2c0.2,0,0.4,0,0.6,0c1.4,0,2.4,0.9,2.4,2.4c0,0.7-0.2,1.3-0.6,1.7c-0.5,0.5-1.2,0.8-2.2,0.8
		c-0.6,0-0.9,0-1.2-0.1v-8H64.6z M64.6,23.2c0.2,0,0.3,0,0.4,0c1,0,1.6-0.7,1.6-1.8c0-1-0.6-1.7-1.6-1.7c-0.2,0-0.3,0-0.4,0V23.2z
		 M69.3,15.9v8.1h-0.9v-8.1H69.3z"/>
	<path class="st0" d="M71.2,15.9l1.8,3.7h0.2v-3.7H74v3.7h0.2l1.7-3.7h1l-2.1,3.8c1,0.2,1.4,1.2,1.6,2.1c0.2,0.7,0.3,1.5,0.5,2.2
		h-0.9c-0.2-0.5-0.3-1.4-0.5-1.9c-0.2-0.9-0.5-1.8-1.5-1.8H74v3.7h-0.9v-3.7H73c-1,0-1.3,0.9-1.5,1.8c-0.1,0.5-0.3,1.5-0.5,1.9h-0.9
		c0.3-0.7,0.4-1.4,0.5-2.2c0.2-1,0.6-2,1.6-2.1l-2.1-3.8H71.2z"/>
	<path class="st0" d="M78.7,15.9v3.7h0.2l1.7-3.7h1l-2,3.8c1,0.2,1.3,1.1,1.5,2.1c0.2,0.8,0.3,1.5,0.5,2.2h-0.9
		c-0.2-0.5-0.3-1.3-0.5-2c-0.2-1-0.5-1.7-1.4-1.7h-0.1v3.7h-0.9v-8.1H78.7z"/>
	<path class="st0" d="M83.5,21.5L83,23.9h-0.9l1.8-8.1h1l1.8,8.1h-0.9l-0.5-2.4H83.5z M85.2,20.8l-0.4-2.1c-0.1-0.6-0.2-1.2-0.3-1.8
		h0c-0.1,0.6-0.2,1.3-0.3,1.8l-0.4,2.1H85.2z"/>
	<path class="st0" d="M5.4,30.3v2.9c0,1.4,0,2.4-0.1,3.7h0C5.6,36,6,34.9,6.3,34l1.5-3.8h0.9v8.1H7.8v-2.8c0-1.7,0-2.7,0.1-3.8h0
		c-0.3,1-0.7,1.9-1,2.7l-1.5,3.9H4.5v-8.1H5.4z"/>
	<path class="st0" d="M12.9,30.3v3.5h2.3v-3.5h0.9v8.1h-0.9v-3.8h-2.3v3.8H12v-8.1H12.9z"/>
	<path class="st0" d="M18.5,35.9L18,38.3h-0.9l1.8-8.1h1l1.8,8.1h-0.9l-0.5-2.4H18.5z M20.2,35.2l-0.4-2.1c-0.1-0.6-0.2-1.2-0.3-1.8
		h0c-0.1,0.6-0.2,1.3-0.3,1.8l-0.4,2.1H20.2z"/>
	<path class="st0" d="M23.2,30.3l1.8,3.7h0.2v-3.7H26v3.7h0.2l1.7-3.7h1L26.9,34c1,0.2,1.4,1.2,1.6,2.1c0.2,0.7,0.3,1.5,0.5,2.2
		h-0.9c-0.2-0.5-0.3-1.4-0.5-1.9c-0.2-0.9-0.5-1.8-1.5-1.8H26v3.7h-0.9v-3.7H25c-1,0-1.3,0.9-1.5,1.8c-0.1,0.5-0.3,1.5-0.5,1.9h-0.9
		c0.3-0.7,0.4-1.4,0.5-2.2c0.2-1,0.6-2,1.6-2.1l-2.1-3.8H23.2z"/>
	<path class="st0" d="M34.7,34.9c-0.1-1.1-0.1-2.3-0.1-3.2h0c-0.2,0.9-0.4,1.9-0.6,2.8l-1,3.8h-0.6l-0.9-3.6c-0.3-1-0.5-2-0.7-3h0
		c0,0.9,0,2.1-0.1,3.2l-0.2,3.4h-0.8l0.5-8.1h1l0.9,3.7c0.3,1.1,0.5,1.9,0.6,2.8h0c0.2-0.9,0.3-1.7,0.6-2.8l0.9-3.7h1l0.5,8.1h-0.9
		L34.7,34.9z"/>
	<path class="st0" d="M37.9,30.3v2.9c0,1.4,0,2.4-0.1,3.7h0c0.3-0.9,0.7-1.9,1-2.8l1.5-3.8h0.9v8.1h-0.8v-2.8c0-1.7,0-2.7,0.1-3.8h0
		c-0.3,1-0.7,1.9-1,2.7l-1.5,3.9H37v-8.1H37.9z"/>
	<path class="st0" d="M43.5,31.1H42v-0.8h3.9v0.8h-1.5v7.3h-0.9V31.1z"/>
	<path class="st0" d="M49.7,34.5h-2v3H50v0.8h-3.2v-8.1h3.1v0.8h-2.2v2.7h2V34.5z"/>
	<path class="st0" d="M53.8,30.3v3.7H54l1.7-3.7h1l-2,3.8c1,0.2,1.3,1.1,1.5,2.1c0.2,0.8,0.3,1.5,0.5,2.2h-0.9
		c-0.2-0.5-0.3-1.3-0.5-2c-0.2-1-0.5-1.7-1.4-1.7h-0.1v3.7h-0.9v-8.1H53.8z"/>
	<path class="st0" d="M58.5,30.3v3.5h2.3v-3.5h0.9v8.1h-0.9v-3.8h-2.3v3.8h-0.9v-8.1H58.5z"/>
	<path class="st0" d="M67.4,34.2c0,3-1,4.2-2.3,4.2c-1.3,0-2.2-1.4-2.2-4.1c0-2.7,1-4.1,2.4-4.1C66.6,30.2,67.4,31.7,67.4,34.2z
		 M63.8,34.3c0,1.7,0.3,3.3,1.3,3.3c1,0,1.3-1.8,1.3-3.3c0-1.5-0.3-3.3-1.3-3.3C64.1,31,63.8,32.6,63.8,34.3z"/>
	<path class="st0" d="M72.5,30.3v8.1h-0.9v-7.3h-2.2v7.3h-0.9v-8.1H72.5z"/>
	<path class="st0" d="M74.9,30.3v3.7h0.2l1.7-3.7h1l-2,3.8c1,0.2,1.3,1.1,1.5,2.1c0.2,0.8,0.3,1.5,0.5,2.2h-0.9
		c-0.2-0.5-0.3-1.3-0.5-2c-0.2-1-0.5-1.7-1.4-1.7h-0.1v3.7H74v-8.1H74.9z"/>
	<path class="st0" d="M79.3,30.3l1,3.3c0.2,0.5,0.3,0.9,0.4,1.4h0c0.1-0.4,0.2-0.9,0.3-1.4l0.7-3.3h0.9l-1,3.6
		c-0.3,0.9-0.6,2.3-1.1,3.4c-0.4,0.7-0.9,1.2-1.5,1.2c-0.2,0-0.3,0-0.4,0l0-0.8c0.1,0,0.1,0,0.2,0c0.7,0,1.1-0.9,1.3-1.5
		c0-0.1,0-0.3,0-0.5l-1.8-5.4H79.3z"/>
</g>
</svg>
