<!-- Generator: Adobe Illustrator 19.2.0, SVG Export Plug-In  -->
<svg version="1.1"
	 xmlns="http://www.w3.org/2000/svg" xmlns:xlink="http://www.w3.org/1999/xlink" xmlns:a="http://ns.adobe.com/AdobeSVGViewerExtensions/3.0/"
	 x="0px" y="0px" width="429.2px" height="23.7px" viewBox="0 0 429.2 23.7" style="enable-background:new 0 0 429.2 23.7;"
	 xml:space="preserve">
<defs>
</defs>
<g>
	<path d="M9.5,3.1H0V0.5h21.9v2.6h-9.5v20H9.5V3.1z"/>
	<path d="M24.2,0.5H27v8.9h13.4V0.5h2.8v22.6h-2.8V12.1H27v11.1h-2.9V0.5z"/>
	<path d="M51.1,0.5h17.8v2.6h-15v6.6H63v2.6h-9.1v8.2h15.9v2.6H51.1V0.5z"/>
	<path d="M90.1,0.5h17.8v2.6h-15v6.6h9.1v2.6h-9.1v10.8h-2.8V0.5z"/>
	<path d="M112,0.4h2.9v22.9H112V0.4z"/>
	<path d="M122.6,0.5h13c4.5,0,7.1,2.4,7.1,6.3c0,3.2-2.1,5.8-5.4,6.4l5.7,10h-3.1l-5.7-9.9h-8.8v9.9h-2.8V0.5z M135.4,10.6
		c2.9,0,4.3-1.3,4.3-3.7c0-2.4-1.5-3.8-4.2-3.8h-10.1v7.5H135.4z"/>
	<path d="M148.3,17.3c3.2,2.5,6.8,3.8,10.1,3.8c4.3,0,7.1-2.1,7.1-4.7c0-2.1-1.8-3.7-5.3-4c-3.9-0.3-6.9-0.3-9.3-1.4
		c-2.1-1-3.2-2.6-3.2-4.7c0-3.5,3.4-6.3,8.8-6.3c3.8,0,7.6,1.3,10.8,3.7L165.6,6c-2.8-2.3-5.9-3.4-9.2-3.4c-3.6,0-5.9,1.6-5.9,3.5
		c0,0.8,0.4,1.5,1.1,2c1.9,1.5,5.2,1.1,9.3,1.6c4.7,0.5,7.5,3.3,7.5,6.7c0,3.9-3.6,7.3-10,7.3c-4.5,0-8.3-1.3-11.8-4L148.3,17.3z"/>
	<path d="M178.9,3.1h-9.5V0.5h21.9v2.6h-9.5v20h-2.8V3.1z"/>
	<path d="M208.5,0.5h17.8v2.6h-15v6.6h9.1v2.6h-9.1v10.8h-2.8V0.5z"/>
	<path d="M230.2,0.5h13c4.5,0,7.1,2.4,7.1,6.3c0,3.2-2.1,5.8-5.4,6.4l5.7,10h-3.1l-5.7-9.9h-8.8v9.9h-2.8V0.5z M243.1,10.6
		c2.9,0,4.3-1.3,4.3-3.7c0-2.4-1.5-3.8-4.2-3.8h-10.1v7.5H243.1z"/>
	<path d="M262.6,0.5h2.4l11.2,22.6h-3.1l-3.1-6.1h-12.5l-3,6.1h-3L262.6,0.5z M268.8,14.4l-5-10l-5,10H268.8z"/>
	<path d="M297.2,13.7h-6.2v-2.6h9v6.8c-2.2,3.8-5.8,5.8-10.2,5.8c-6.8,0-11.7-5-11.7-11.8C278.1,5,283,0,289.8,0
		c4.2,0,7.8,1.9,9.9,5.3L297.4,7c-1.4-2.7-4.3-4.3-7.6-4.3c-5,0-8.8,3.9-8.8,9.2s3.8,9.2,8.8,9.2c3.2,0,5.6-1.3,7.4-4.1V13.7z"/>
	<path d="M306.8,0.5h13c4.5,0,7.1,2.4,7.1,6.3c0,3.2-2.1,5.8-5.4,6.4l5.7,10H324l-5.7-9.9h-8.8v9.9h-2.8V0.5z M319.6,10.6
		c2.9,0,4.3-1.3,4.3-3.7c0-2.4-1.5-3.8-4.2-3.8h-10.1v7.5H319.6z"/>
	<path d="M339.2,0.5h2.4l11.2,22.6h-3.1l-3.1-6.1h-12.5l-3,6.1h-3L339.2,0.5z M345.3,14.4l-5-10l-5,10H345.3z"/>
	<path d="M357.2,0.5h1.5l14.7,16.9V0.5h2.8v22.6h-1.4L360,6.2v16.9h-2.8V0.5z"/>
	<path d="M404.3,17.6c-2.1,3.9-5.8,6.1-10.4,6.1c-6.8,0-11.7-5-11.7-11.8c0-6.9,5-11.9,11.7-11.9c4.2,0,7.8,1.9,9.9,5.3L401.5,7
		c-1.4-2.7-4.3-4.3-7.6-4.3c-5,0-8.8,3.9-8.8,9.2s3.8,9.2,8.8,9.2c3.5,0,6.3-1.8,8.1-5.2L404.3,17.6z"/>
	<path d="M410.4,0.5h17.8v2.6h-15v6.6h9.1v2.6h-9.1v8.2h15.9v2.6h-18.7V0.5z"/>
</g>
</svg>
