<!-- Generator: Adobe Illustrator 19.2.0, SVG Export Plug-In  -->
<svg version="1.1"
	 xmlns="http://www.w3.org/2000/svg" xmlns:xlink="http://www.w3.org/1999/xlink" xmlns:a="http://ns.adobe.com/AdobeSVGViewerExtensions/3.0/"
	 x="0px" y="0px" width="946.2px" height="149px" viewBox="0 0 946.2 149" style="enable-background:new 0 0 946.2 149;"
	 xml:space="preserve">
<defs>
</defs>
<path d="M379.1,149v-42.4c5.8-3,10-9.2,10-16.1V11.4h40.8v79.1C429.9,120.3,407.8,145,379.1,149 M362.7,106.6V149
	c-28.9-4-51-28.7-51-58.6V11.4h40.8v79.1C352.6,97.4,356.8,103.6,362.7,106.6 M233.7,138.1h40.8V11.4h-40.8V138.1z M137.3,0
	c32.7,0,59.2,26.5,59.2,59.2v78.9h-40.8V59.2c0-10.2-8.2-18.1-18.3-18.1h-2.2c-3.4-14.1-10.4-26.7-20.3-36.6
	C121.7,1.6,129.3,0,137.3,0 M59.2,0c32.7,0,59,26.3,59,59.2v78.9H77.3V59.2C77.3,49,69.1,41,59.2,41C49,41,41,49,41,59.2v78.9H0
	V59.2C0,26.3,26.5,0,59.2,0 M895.2,149v-42.4c6-3,10-9.2,10-16.1V11.4h41v79.1C946.2,120.3,924.1,145,895.2,149 M878.9,106.6V149
	c-28.7-4-51-28.7-51-58.6V11.4h41v79.1C868.9,97.4,872.9,103.6,878.9,106.6 M749.8,138.1h41V11.4h-41V138.1z M653.6,0
	c32.7,0,59.2,26.5,59.2,59.2v78.9h-41V59.2c0-10.2-8.2-18.1-18.1-18.1h-2.4c-3.2-14.1-10.4-26.7-20.1-36.6C638,1.6,645.6,0,653.6,0
	 M575.3,0c32.7,0,59.2,26.3,59.2,59.2v78.9h-41V59.2c0-10.2-8-18.1-18.1-18.1c-10,0-18.1,8-18.1,18.1v78.9h-41V59.2
	C516.1,26.3,542.6,0,575.3,0"/>
</svg>
