<!-- Generator: Adobe Illustrator 19.2.0, SVG Export Plug-In  -->
<svg version="1.1"
	 xmlns="http://www.w3.org/2000/svg" xmlns:xlink="http://www.w3.org/1999/xlink" xmlns:a="http://ns.adobe.com/AdobeSVGViewerExtensions/3.0/"
	 x="0px" y="0px" width="199.1px" height="443.4px" viewBox="0 0 199.1 443.4" style="enable-background:new 0 0 199.1 443.4;"
	 xml:space="preserve">
<style type="text/css">
	.st0{fill:#FFFFFF;}
</style>
<defs>
</defs>
<path class="st0" d="M142.3,133.6c1.6,0.2,3.5-0.5,3.7-2.5c0.2-2-0.8-3.5-3-3.6c-2.1-0.2-3.1,1.4-3.2,2.8
	C139.6,131.7,140.7,133.4,142.3,133.6"/>
<path class="st0" d="M142.4,138.7c-1.1-0.1-2.1,0.6-2.3,1.7c-0.2,1.1,0.7,2.3,1.6,2.4c1,0.2,2.1-0.1,2.5-1.5
	C144.6,140,144.2,138.9,142.4,138.7"/>
<path class="st0" d="M151.7,146c1.9,1.3,3.5-0.4,4-0.9c0.5-0.5,1.6-2.7,0.3-3.8c-1.3-1.1-3.5-1.4-4.6,0.4
	C150.6,143,149.8,144.7,151.7,146"/>
<path class="st0" d="M3.5,23.9c2.2-2.1,6.6-5.8,16.2-6.8c8.2-0.8,15.2,0.7,22.1,3.5c6.9,2.8,15.8,8.9,21.8,15.3
	c6,6.5,13.9,16.5,18.6,29.5s7.5,25,8.1,34c0.3,4.7,0.7,15.7-2.1,26.9c0,0-0.3-5.5-1.6-12.7c-0.8-4-2.2-7.2-3.3-10.4
	c0-4.1-0.2-12.3-1.1-17.9c-0.9-6-4.2-20.1-11.3-31.9c-5.7-9.4-13.9-19.7-24.6-25.2c-10.7-5.5-19.2-7.4-27-6.8
	C11.6,22,7.2,24,4.8,26.1c-1.8,1.6-2.7,2.5-2.7,2.5S1.3,26,3.5,23.9 M84.1,173.1c-0.2,0.6-0.9,1.9-1.1,2.7c-0.4-1-1.7-4.5-2.3-8.5
	c-0.9-6.2-0.7-16.9,0.4-26.5c1.1-9.6,1.9-16.8,1.4-23.9c-0.5-8.1-3.6-14-4.3-15.9c0.8,0.9,3.9,4.8,5,8.1c0.9,2.9,2.4,9.8,2.5,15.4
	c0.2,5.7-0.5,14.5-1.7,23.3c-1.2,8.9-2,13.7-1.6,18C82.8,168.9,83.3,171,84.1,173.1 M111.3,125.7c-1,1.5-6.1,9.2-8,12.5
	c-1.9,3.3-3.1,5.5-3.6,3.4c-0.6-2.1-1.1-6.5-0.3-10.3c0.8-3.4,3.2-6.1,6-7.2c2.4-0.9,4.8-0.9,5.7-0.3
	C112,124.5,111.8,125,111.3,125.7 M89,168.1c3.5-6.6,5.7-10.2,6.4-12c0,0,1.2-2.5,0.4-5c-0.5-1.4-2.2-5.8-3-10.8
	c-0.8-5,0.1-11.9,3.2-16.3c3.1-4.4,6.1-6.6,11.1-6.6c5.1,0,8.4,1.4,12.2,3.8c4.3,2.7,6.4,5.3,7.4,6.7c0.9,1.3,1,3.3-0.1,4
	c-1.1,0.7-2.8,1.3-4.2-0.1c-1.4-1.4-3.2-4.5-6.1-7c-2.6-2.2-5.2-3.3-9.6-2.7c-4.3,0.6-7.7,3.7-8.9,7.2c-1.2,3.6-1.2,7-0.4,11.2
	c0.8,3.8,2,5.4,2.4,5.9c0.4,0.5,0.8,0,1.7-1.6c0.9-1.6,3.7-6.4,6.2-10c2.5-3.5,5.4-8.9,6.2-9.1c0.8-0.3,1.8,0.6,3.5,2.6
	c-0.4,0.5-1.9,2.1-2.4,2.9c-1.4,2-6.1,9.7-9.1,15.3c-3,5.7-8,15.1-10.4,19.9c-2.2,4.3-2.1,6.1-2.3,6.5c-0.2,0.4,0.7,0.3,2.5-0.3
	c1.9-0.6,5-1.7,10.1,0c5.1,1.6,8.8,5.5,9.3,7.3c0.5,1.7,0.1,2.2-0.9,2.8c-2.1,1.2-2.5,0.1-4.4-2.1c-1.9-2.2-5.3-3.8-9-3.9
	c-3.7,0-9.3,0.5-13.2,7.6c-4,7.2-7.3,16.8-9.9,29.4c-3.5,16.6-3.6,27.7-3.6,27.7s3-2.8,7.1-3.3c4.1-0.5,7.6,1.2,10.8,3.9
	c3.6,3.1,5.1,10,5.7,12.2c0.6,2.2,0.7,4.3-1.3,5.2s-3.1-0.6-3.5-3.1c-0.4-2.4-1.1-5.1-2.5-7.4c-1.4-2.3-5.6-5.8-10.8-4.3
	c-5.9,1.7-6.4,8.7-6.3,12.1c0.2,6.6,0.9,13.2,1.4,18.4c0.5,5.2-0.2,15.9-0.6,20.3c-0.4,4.3-2.1,10.4-2.7,11.5
	c-0.5,1-1.4,0.8-2.4,0.2c-1.9-1.2-0.9-2.6,0.1-6.2c1-3.6,1.9-11.4,1.5-21.3c-0.4-9.9-1-22.7-0.8-28.2c0.1-2.6-0.1-6,1.2-23.7
	c1.4-17.7,6-31.7,6-31.7C80,187.5,84.7,176.3,89,168.1 M119.8,77.5c-0.5,0.9-3.6-3.7-3.7-8.2c-0.1-4.5,1.3-10.5,3.4-14.3
	c2.1-3.8,7.1-13.3,8.9-17.7c1.8-4.4,5.2-11.1,5.5-18s-1.1-11.4-1.1-11.4s7.5,6.3,10.8,13.3c3.7,7.9,2.7,13.1,2.5,15.9
	c-0.2,2.8-0.5,4.6-0.5,4.6s3.6-4,5.8-9.6c2.3-5.6,4.5-12.6,5-17.3c0.5-4.7,0.3-7.1,1-9.3c0.6-2.1,2-2.7,2-2.7s1.9,4.1,1.9,9.5
	c0,5.4-1.1,15.6-5.7,25.9c-3.6,8-6.8,12.9-8.1,14.9c-0.8,0.2-1.6,0.4-2.4,0.7c-7.1,2.6-14.9,8.2-19.2,14
	C123.8,70.5,121.6,74.5,119.8,77.5 M126,27.7c-0.7-2.3-2-4.2-4.5-4.5c-2-0.2-3,0.9-3.4,0.9c-0.4,0-1.5,0.2-2-1.1
	c-0.4-0.9,0.2-1.6,1.6-2.6c1.2-0.8,3.5-0.8,5.5,0.1c2.6,1.1,4.1,4.3,4.7,6.6c0.6,2.2,0.6,5,0.1,6.5c-0.6,1.9-1.1,1.3-1.1-0.2
	C126.9,32,126.7,29.9,126,27.7 M127.3,91.6c1.3,2.1,1.2,4.3,1.1,6.9c-0.2,2.5-2,5.1-2.6,6c-0.6,0.9-1.4,0.5-1.5-1
	c-0.2-1.5-0.2-4.7-0.2-7.1c0-1.6,0.3-3.1,0.6-4.3c0.2-1.2,0.2-2.6,0.6-2.8C125.7,89.1,126.1,89.6,127.3,91.6 M142.4,82.9
	c0.3-0.9,2.4-6.4,3.9-9.2c1.5-2.8,5.1-8.5,7.8-11.4c1.4-1.6,2.7-2.8,3.6-3.6c0.9,0,1.8,0.2,2.8,0.3c0,0,0.1,0,0.1,0
	c-0.8,0.8-2.3,2.2-3.9,3.8c-2.5,2.5-6.3,6.9-8.7,11c-2.4,4.1-4.1,7.5-4.6,9C142.8,84.3,142.1,83.8,142.4,82.9 M140.2,77.6
	c0,0-0.1-4.3,1-8.2c0.8-2.7,2-6,2.7-7.7c1-0.5,2.5-1.3,4.1-1.8c-0.8,1.5-2.8,5.2-4.5,9.2C141.4,74.2,140.2,77.6,140.2,77.6 M141,80
	c0.2-1.1,1.9-6,3.3-9.1c1.1-2.5,5-9.1,6.4-11.5c1.4-0.2,2.6-0.4,3.8-0.5c-1.7,1.8-5.5,6.1-7.9,11.3c-3.2,6.9-5.3,12.2-5.3,12.2
	S140.8,81.1,141,80 M157.7,54.3c8,0.9,14.1,4.3,16.9,10.7c2.9,6.4,0.8,11.8,0,12.9c-0.7,1.1-2,2.3-3,1.4c-1-0.9-0.7-1.5,0-2.6
	c0.7-1.1,2.2-5.5,1.3-8.8c-0.8-3.3-5.8-10-11-10.7c-5.2-0.7-11.4-1.3-18.4,2.9C137,64,130,70,126.3,78.4c-3.8,8.4-3.8,16-3.9,20.9
	c-0.1,4.9,0.3,11.2,0.3,11.9c0.1,0.8,0.3,0.6,0.6,0.1c0.2-0.5,0.3-1.7,1.4-2.8c1-1.1,4-4.4,4.8-7.8c0.9-3.4,1.1-8.1-0.2-10.5
	c-1.3-2.4-2.8-4-3.1-4.6c-0.3-0.6-0.2-2,1.2-4.8c1.4-2.8,5.7-9.7,8.3-12.3c2.6-2.7,5.6-4.9,5.6-4.9s-2.3,5.2-2.6,11.5
	c-0.3,6.3,0.5,8.7,2.1,10.3c1.5,1.6,2.8,1.1,3,0.4c0.1-0.7,2.8-6.9,5.3-10.3c2.5-3.4,7.2-9,9.7-11.1c2.5-2.2,4.3-4.4,4.3-4.4
	s5.1,1.6,7,5.9c1.9,4.4,1.2,8.1,0.5,9.4c-0.6,1.3-0.9,2.4-3.5,2.6c-2.6,0.2-9,1.6-13.1,5.1c-4.2,3.5-6.4,8-6.8,10.8
	c-2.1,0.6-4.7,2.4-6.9,4.1c-2.9,2.2-6.9,7.8-10.2,12.3c-2.7,3.8-6.7,9.5-7.7,10.9c-1.4-1-2.5-2-4.4-2.8c0.3-0.9,1.4-5.1,1.5-8.2
	c0-3.7-0.6-10.1-0.4-15c0.2-4.9,1.3-14.4,4.2-19.6c3-5.2,8.6-12.4,14.8-15.8C144.2,56.4,149.7,53.4,157.7,54.3 M162.1,41.2
	c2.2-4.6,6.3-15.5,6.7-21.5c0.5-6.1,0.5-11.1-0.2-13.8c-0.8-2.7-0.7-3.5,0.6-3.6c1.3-0.1,2.6,1.2,3.4,4.1c0.8,2.9,2.5,10.7-1.5,22.3
	c-3.8,11.2-8.2,19.8-11.9,24c-1.1-0.2-2.2-0.3-3.3-0.4C156.8,50.7,160.2,45.1,162.1,41.2 M174.9,4.2c1.1,0.1,3.6,0.9,4.6,5.7
	c1,4.8,0.4,15-4,26.2c-4,10.3-8.1,16.4-9.9,18.2c-1.2-0.4-2.3-0.8-3.5-1.1c1-1.2,4.7-5.8,7-11.5c2.6-6.7,5.9-15,6.6-20.4
	c0.7-5.4-0.5-13.6-1.1-15C173.7,4.8,173.8,4.1,174.9,4.2 M180,31.3c1.5-5.5,2.9-11.9,6.4-14.1c3.6-2.2,7.5-2.1,10.3,0
	c-3.2,1-5.6,2-9.3,9.1c-3.7,7.1-3.5,17.8-3.5,24.3c0,6.5-0.1,13.7-2.6,20.4c-2.4,6.4-3.8,6.7-4.4,6c0,0,0-0.1,0-0.1
	c0-1.1,1.5-5.4,0.7-9.1c-0.7-3.4-3.3-9-9-12.1c0.8-1.1,2.4-3.5,3.7-6.1C174.2,46.1,178.5,36.8,180,31.3 M165.9,102.9
	c-1.6-0.1-3.1-1.3-3.1-3.1c0-1.7,1.4-3.1,3.5-3c2.2,0.1,3,1.9,3,3.4C169.4,101.7,167.5,103,165.9,102.9 M161.9,91.3
	c-2.8-0.4-4-2.6-3.7-4.7c0.2-2.1,1.8-3.7,4.3-3.6c2.7,0.1,4.5,1.8,4.2,4.4C166.4,89.9,164.7,91.7,161.9,91.3 M155.4,98.5
	c-1.9-0.1-2.6-1.5-2.3-2.8c0.2-1.2,1.1-2.5,2.9-2.5c2.1,0,2.7,1.4,2.6,2.9C158.5,97.7,157.3,98.6,155.4,98.5 M129.2,129.6
	c-0.1-1-0.5-2.1-0.8-2.7c0,0,1.7-2.3,4.6-3.3c2.9-1.1,7.4-1.1,12.4,0.3c4.6,1.2,8.6,4.8,10.9,7.6c3,3.6,5,8.4,7.3,10
	c2.3,1.6,3.4,1.3,4.1,1.3c0.7,0,0.3,1.9-0.3,2.8c-0.6,0.9-2.1,2.1-3.5,2.3c0.4,1.4,1.4,4.1-0.3,5.6c-1.6,1.4-3,2.1-4.2,2.1
	c-1.2,0.1-3.8-0.8-5.2,0.6c-1.4,1.5-1.8,4.1-2.4,6c-0.7,1.9-1.7,3.3-2.8,3.8c-1.1,0.5-2.1,0.1-1.7-1.6c0.4-1.6,0.7-4.6-0.7-6.4
	c-1.4-1.8-2.9-3.3-6.1-4.2c-3.2-0.9-5.9-2.6-7.5-4.5c-1.7-1.9-2.9-3.7-3.4-4.8c-0.6,0.5,0.2,3.7,1.3,5.5c1.1,1.8,4.4,3.7,5.7,5.8
	c1.3,2,3.3,5.9,1.6,8.9c-1.7,3-4.2,3.7-5.9,3.6c-1.7-0.1-3.9-0.9-4.9-1.5c-0.9-0.6-1.9-0.7-1.9-0.7s1.3-1.1,1.2-3.8
	c-0.1-2.7-1.2-5.5-3.4-8.7c-2.2-3.2-5.1-7.6-4.7-11.4c0.4-3.9,0.6-5.6,4-8.1c1.2,0.6,2.6,0.9,4,0.2
	C129.3,133,129.3,130.5,129.2,129.6 M121.1,185.2c1.4,0.8,2.8,2.2,3.2,3.8c0.4,1.6-0.8,4.4-3.1,5.7c-2.3,1.3-5.2,0.6-6.9-1.3
	c-1.7-1.9-1.8-5.5,0.8-7.7C116.9,184.1,119.7,184.4,121.1,185.2 M141.9,183.5c3.6,3.2,4.6,6.9,5.9,10.5c1.4,3.7,3.1,11.2,5.5,14.7
	c2.4,3.6,5,4.8,8.2,5.4c3.1,0.6,6.3-0.3,7.3-0.5c1-0.3,1.1,0.7,0.5,1.1c-0.7,0.4-4.4,1.9-8.8,1.1c-4.4-0.8-6.6-2.9-9.6-7.2
	c-2.4-3.4-4.4-8.3-5.7-12.5c-1.1-3.4-2.7-5.1-2.7-5.1c-0.2,1.4-3.3,4.8-7.6,3.7c-4.3-1.1-5.1-5.3-4.8-7.6c0.3-2.3,2.3-3.8,3.9-4.3
	c-2.9-1.7-9.5-1.3-9.5-1.3C133.5,178.5,138.3,180.3,141.9,183.5 M140.1,208c-1.6-0.1-2.9-1.6-2.8-3.5c0.1-1.9,1.4-2.9,3.2-2.8
	c2,0.1,3.2,1.7,3,3.6C143.2,207.3,141.7,208.2,140.1,208 M129.9,204.2c-2.4,1.5-4.2,1.2-5.4-0.1c-1.2-1.4-1.4-4,0.2-5.3
	c1.8-1.5,4.5-1.5,5.6-0.1S132.3,202.6,129.9,204.2 M102.8,270.6c-0.2,2.2-2,3.8-4.3,3.4c-2.2-0.4-3.8-1.9-3.6-4.1
	c0.2-2.2,2.1-3.6,4.3-3.4C101.3,266.7,103,268.4,102.8,270.6 M105.5,286.2c0.6,1.2,0.3,3-1,4c-1.3,1.1-3.3,0.8-4.7-0.4
	c-1.4-1.2-1-4,0.8-4.9C102.4,283.9,104.6,284.5,105.5,286.2 M107.6,297.3c0.3,1.8-0.9,3.7-2,4.3c2,2.6,2.9,5.6,1.8,9
	c-1.1,3.4-7.5,6.9-9,7c-1.5,0.1-0.1-0.6,1.7-1.6c1.8-1,4-3.2,4.6-5.4c0.6-2.2,0.7-4.6-2.5-7.3c-3.1-2.7-8.8-6-12.9-14.3
	c-4.1-8.3-3.6-10.6-2.6-15.1c1.2-5.4,3.7-9.2,4.6-9.8c0.8-0.4,0.9,0.1,0.4,1.1c-0.5,1-1,3-1.7,6.2c-0.7,3.3-0.5,5.9,0,7.4
	c2-0.8,3.8-0.4,5.4,1.1c1.6,1.5,1.3,3.4,0.3,5.3c-1,1.9-3.9,2.4-3.9,2.4s0.9,1.6,2.4,3.8c1.5,2.1,3.9,4.2,3.9,4.2s2.6-2.9,5.5-2.5
	C106.4,293.4,107.3,295.5,107.6,297.3 M111.3,293.2c1.4-1.3,4-1,5.5,0.5c0.5,0.5,1.5,2.8-0.1,4.7s-4,1.7-5.6,0.4
	C109.5,297.4,109.8,294.4,111.3,293.2 M112.4,282.7c0.8-0.8,2.7-1.1,3.4,0.3c0.6,1.3,0.3,2.7-0.6,3.1c-1.1,0.6-2.3,0.2-3.1-0.6
	C111.4,284.8,111.6,283.5,112.4,282.7 M117.5,313.3c0,0,4.5,4.7,7.6,8.5c3.1,3.8,5.2,8,7.7,14.3c2.5,6.3,2.3,10.7,2.3,16.5
	c0,5.8-1.8,9.6-2.2,10.3c-0.4,0.7-1,1-2.8,1.7c2.4-7.5,2.9-14.4,1.7-21.3c-1.2-6.9-6.2-14.8-7.8-17c-1.7-2.3-6.5-6.8-8-8.8
	c-1.6-2-1.6-2.7-1.6-2.7s1.3-0.5,1.9-0.9C116.9,313.6,117.5,313.3,117.5,313.3 M123,308.1c0.4,2,1.8,3.6,3.3,5.6
	c1.5,2,4.7,5.4,7.9,10c3.3,4.6,5.3,9.5,6,16.5c0.7,7-0.5,13.5-0.9,16.3c-0.4,2.7-1.1,5.3-1.7,5.5c-0.6,0.2-2.4,0.7-2.4,0.7
	s0.9-2.2,1.6-5c0.6-2.8,0.8-7.7,0.3-12.8c-0.5-5.1-2.2-9.8-3.7-13.4c-1.5-3.6-3.7-7.1-5.5-9.6c-1.8-2.5-3.1-4.1-4.7-6.2
	c-1.6-2.1-2.5-3.2-3.2-4.6C122.5,309.2,123,308.1,123,308.1 M128.7,307.2c0.6,2.2,3.5,4.8,6.7,8.7c3.2,3.9,6,8.7,7.8,13.8
	s1.9,12.6,1.8,16c-0.1,3.4-1.7,13.3-2.2,14.9c-1.5,0.5-2.6,0.8-2.6,0.8s1.5-3.9,2.1-10.7c0.6-6.8,0.9-13.8-2.1-20.8
	c-2.9-7-4.9-10.5-8.1-14.2c-3.1-3.7-5.1-5.6-5.7-7.3C126.3,308.4,127.5,308.3,128.7,307.2 M132.2,302.5c0.4-1.1,0.7-0.9,1.2-0.7
	c0.5,0.2,1.7,1.6,4.6,5.2c2.9,3.6,6,10.2,8.4,16.5c2.4,6.3,2.8,14.9,2.7,22.4c-0.1,7.5-1.4,12.3-2,14.3c-1.1,0-2.5,0.3-2.5,0.3
	c2.9-10.9,2.4-18.3,1.6-25.6c-0.8-7.3-4-13.9-5.9-16.8c-1.9-2.9-6-7.8-7.6-10c-1.6-2.1-2.1-3.2-2.1-3.2S131.8,303.6,132.2,302.5
	 M151.8,313.3c1.2-2.3,3.7-4.5,5.7-6.7c1.9-2.2,4.4-5.4,6.1-7.7c1.7-2.3,3.5-6.3,4.1-10.8c0.6-4.5-1.5-8.3-3.2-9.9
	c-1.7-1.6-1.3-2.2-1.1-3.4c0.2-1.4,1-0.9,2-0.4c1,0.5,2.1,2.1,3.7,5c1.6,2.9,1.4,8.8,0.3,12.8c-1.1,4-5.8,9.5-9,13.4
	c-3.2,3.9-6.7,8.3-8.5,12.1c-1.8,3.8-2.1,7.1-2.3,9c-0.1-0.8-0.8-2.2-0.8-4.5C148.6,319.9,150.6,315.6,151.8,313.3 M151.4,362.2
	c2.8,0.3,6.9,1.9,9.2,5.5c2.3,3.5,2.3,8.4,0.6,11.3c-1.7,2.9-1.9,2.8-3.1,2.8c-1.1,0-2.9,0.2-2.9-0.3c0-0.4,0.8-0.7,1.8-1.8
	c1-1.2,3-5,2.4-7.4c-0.6-2.4-1.8-4.7-5.5-6.3c-3.9-1.7-8.5-1.3-13.6,0.4c-5.1,1.6-12.1,4.8-18,10.4c-5.9,5.6-10.3,10.6-13.3,16.9
	c-3.1,6.3-6.1,15.2-5.2,24.7c0.9,9.5,2.6,14.9,4.1,17.6c1.5,2.6,2.6,3.7,1.9,4.4c-0.7,0.8-1.9,1.5-2.5,0.4
	c-0.7-1.1-3.6-6.3-4.7-11.2c-1.1-4.8-2.7-15.5-1.4-22.9c1.3-7.4,5.6-17.5,10.6-23.6c5-6.1,12-14.1,23-18.1
	C145.8,361.1,148.6,362,151.4,362.2 M153.9,409.7c-1.6,1-3.4-0.3-4-1c-0.6-0.7-1.4-0.6-1.6,0.1c-0.2,0.7-0.3,1.5-1.6,2.7
	c-1.3,1.2-2.8,0.5-3.5-0.8s0.1-2.9,0-5.4c-0.1-2.5-1.3-1.9-2-6.4c-0.7-4.5,0.9-7.3,2.5-9.9c1.9-3.2,7.2-5.1,9.4-5.7
	c2.3-0.6,2.3,0.5,2,0.9s-0.8,0.8-1.5,2.6c-0.7,1.8-0.3,4.6,0.9,7.3s1.3,6.4,1.5,9.7C156.2,407.1,155.5,408.7,153.9,409.7
	 M109.8,403.6c3.2-4.4,8.2-8.9,11-11.3c2.8-2.4,9.7-9.5,12-12.8c2.2-3.3,4.7-8.3,4.9-10.3c0.5-0.3,2.7-1.1,2.7-1.1
	c0,0.4-0.4,1.7-1.9,5s-5.1,8.5-10.1,14.3c-5,5.8-9.5,10-13.9,14.5c-4.4,4.5-6.5,8.7-7.3,10.2c-0.8,1.5-1,3.1-1.1,2.3
	c-0.1-0.8-0.2-2.2-0.1-3.4C106,409.8,107.2,407.2,109.8,403.6 M113.7,388.8c1.4-1.9,5.1-6,7.6-8.4c2.5-2.5,5.8-5.6,6.7-6.1
	c0,0-1.6,3.5-3.5,5.7c-1.9,2.2-6,6-7.3,7.2c-1.3,1.2-3.1,2.8-3.6,3.3C113.2,390.9,112.3,390.8,113.7,388.8 M120.5,387.1
	c2.7-2.6,5.5-6.1,7.4-8.8c1.9-2.8,2.9-5.4,3.1-5.9c0.2-0.5,3.5-2.1,3.5-2.1c-0.2,1.2-0.4,2.2-1.9,5.6c-1.5,3.4-5.4,7.2-7.7,9.7
	c-2.3,2.5-8,7.9-10.3,10.1c-2.4,2.3-4.5,5.4-5.8,7.1c-2,2.7-1.4-0.2-0.2-2.7c0.9-1.7,1.7-2.8,2.6-4.3
	C112.2,394.3,117.9,389.7,120.5,387.1 M138.6,380.4c-3.3,6.1-10,13.5-14.5,17.7c-4.5,4.2-9.9,11-13.2,16c-3.3,5-4.6,9-4.6,9
	c-0.6-5.5,0.5-6.9,2.1-10.1c1.9-3.8,6.3-9,7.9-10.6c1.6-1.6,9.1-9.1,14.3-14.7c5.1-5.7,8.7-12.6,10.1-15.6s1.7-4.4,1.7-4.4
	s0.8-0.3,2.4-0.8C144.4,368.6,141.9,374.2,138.6,380.4 M115.6,351c-5.1-1.5-11.7-1.3-17.6,0.7c-5.9,2-10.3,5.8-13.4,9.7
	c-2.1,2.7-3.2,3.5-4.3,1.9c-0.8-1.1,0.2-2.1,2.1-4.2c1.9-2.1,6.8-7,14-10c7.8-3.3,15.9-2.4,20.6-1.3s7.7,3.6,8.3,4.8
	c0.1,0.1,0.1,0.2,0.2,0.4c0.1,0.8,0.1,1.5,0.2,2.2c-0.1,1.3-0.4,3-0.7,5.4c-0.1,0.3-0.1,0.6-0.2,0.9
	C124.3,355.1,120.5,352.5,115.6,351 M116.5,328.6c-3.4-3.8-6.3-7.2-7.3-10.8c0.6-0.7,1.1-1.4,1.4-1.9c0.6,0.7,1.7,2.1,3.9,4.3
	c2.2,2.2,7.8,6.2,11.1,12.2c3.3,6,5.1,11.4,5,18.8c-0.1,7.4-2.3,13.9-3,14.6c-0.7,0.8-1.4,1.8-2.5,2.3c-1.1,0.5-1.7,1.2-0.6-0.9
	c1.1-2.1,2.1-5.2,2.5-9c0.5-3.8,1-8.9-1.4-14.6C123.4,337.9,119.9,332.4,116.5,328.6 M69.8,187c-6.9-10.7-9.8-18-9.8-31.2
	c0-13.6,3.5-25.9,5-33.5c1.5-8.3-0.3-15.4-4-19.4c-2.4-2.6-6.5-3.5-11.9-2.7c1.8-1.3,4.6-2.5,7.2-2.5c2.4,0,7,1.5,9.7,5
	c2.7,3.6,5.6,9.5,5.4,17.2c-0.3,7.7-2.8,20.2-3.2,26.7c-0.4,6.5-0.5,16,1.3,23.6c2,8.5,4.5,12.8,8.3,17.3c-0.5,1.6-1.6,3.7-2.3,5.9
	C74.3,192.6,72.6,191.4,69.8,187 M52.7,113.3c-3.4,6.7-9.2,13.8-9.2,13.8s1.6-3.7,2.4-6.2c0.7-2.5,5.7-13.1,6.8-15.3
	c1.1-2.2,1.7-3.1,3-3c1.2,0.1,1.5,0.9,1.5,0.9C56.3,105.7,55,108.7,52.7,113.3 M36.2,134.5c-1.4,1.1-3.2,2.7-3.2,2.7s2.5-5,4.6-10.7
	c2.1-5.7,5.1-14,7.3-18c2.1-4,3.1-5.6,3.6-5.9c0.5-0.3,2.3-0.9,3.8-0.8c0,0-1.5,2.3-4.1,8.4c-2.6,6.1-7.1,17.5-8.3,19.9
	C38.8,132.6,37.6,133.4,36.2,134.5 M29.5,140.1c0,0-3,2.1-4.5,3.1c2.7-3.9,5.1-8.1,7-13.6c1.9-5.6,4-12.4,6.2-17
	c2.4-5,4.3-6.3,6.2-7.7c0,0-2.7,5.3-4.5,10.2c-1.8,4.9-5.6,15.4-7.6,19.8C30.4,139.1,29.5,140.1,29.5,140.1 M66.4,98.4
	c2.3,1.5,7.2,4.5,8.7,12.4c1.5,7.9,1,14,0.7,17.6c-0.3,3.6-2.1,12.6-2.7,20.4c-0.6,7.9,0.3,17.5,2.2,24.2c1.4,4.8,3.2,8.5,4,10.2
	c-0.3,0.7-0.6,1.5-0.9,2.2c-1.2-1.4-4-5-5.4-9.5c-1.9-6.3-3.9-15.2-3.4-23.9c0.4-8.7,3.3-22.1,3.5-30.8c0.2-8.8-2.3-15.6-5.7-19.5
	c-3.1-3.6-7.2-4.9-7.2-4.9S64.1,96.9,66.4,98.4 M60.1,67.2c-5.8-11.7-16-22.1-24.8-26.8c-8.6-4.6-16.8-5.2-21.4-4.2
	c-4.6,0.9-6.3,2.8-7.6,3.4c-1,0.4-2.5,0.2-2.9-1.1c-0.4-1.3,0.9-3.1,3.2-4.6c2.5-1.6,7.8-3.1,16.3-1.9c8.5,1.2,16,4.3,22.2,9.2
	c6.2,5,13.7,13.5,18.5,23.1c4.7,9.6,8.4,19.3,9.6,31.4c0,0-2.3-1.5-4.8-1.8C68.2,91,66.4,79.8,60.1,67.2 M78.2,155
	c-0.2,7,0.8,18.3,3.7,22.9c-0.5,1-1,1.9-1.5,2.9c-1-1.3-2.6-4.9-3.6-9.8c-1.6-7.6-2.8-16.9-1.6-24.6c1.2-7.7,2.8-16.6,3-24.5
	c0.2-7.9-1.8-16.2-4.8-19.8c-3-3.6-7.3-5.5-7.3-5.5s3.4-0.3,6.5,1.4c3.1,1.7,6.1,6.2,7.1,12.7c1,6.5,1.1,14.6,0.6,20.4
	C79.8,137,78.4,147.5,78.2,155 M3.2,30c1.8-2.3,7.4-6,14.2-6.6c6.8-0.6,14.6-0.1,25.4,5.2c9.5,4.6,15.9,10.8,22.5,19.5
	c6.6,8.8,10,18.7,12,25.3c2,6.6,3.7,18.4,3.8,28c-0.6-0.6-2.1-1.9-2.8-2.5c-0.2-0.2-1.9-1.6-2.9-2.1c-0.6-4.2-1.3-11.8-4.3-21
	C68,66.2,61.1,53.8,54.1,46.1c-6.8-7.4-15.3-13.9-25.7-15.7C18,28.6,11.3,29.3,7.9,31C4.4,32.7,3,34.2,3,34.2S1.4,32.3,3.2,30
	 M0.6,33.6C1.3,35.6,2.5,36,2.5,36s-1.2,2.3,0,4.3c1.2,2,3,2.4,5.2,1.2c2.2-1.2,6.9-3.8,13.5-2.4c6.6,1.3,14.3,5.2,20.2,10.3
	c5.9,5.2,13.5,14.7,17.2,24.2c3.7,9.6,5.1,19.9,5.1,19.9s-5.9-0.1-12.6,3.1c-6.7,3.2-11.1,8.3-13.8,14c-2.8,5.6-6,17.3-10.1,25.2
	c-4,7.7-7.7,10.3-9.4,11.7c-1.7,1.3-0.6,1.5,1.6,0.8c2.2-0.7,6.5-3.2,11.3-6.9c4-3.1,11.2-8.8,16.8-16.8c5.3-7.6,9.8-14.9,11.2-19.4
	c0.1,5.8-0.8,10.4-1.7,15.4c-0.9,5.6-4.4,18.5-3.6,35.5c0.8,16.8,6.5,24.4,10,29.8c2.9,4.5,8,11.2,9.7,13.4c0,0-6.2,22.1-5.5,54.5
	c0.2,8.3,0.4,17.2,0.6,23.1c0.2,5.2,0.2,13.6-0.3,19.1c-0.5,5.5-2.5,9.7-2.4,10.6c0.1,0.9,0.6,1.7,2.7,3c2.1,1.3,3.6,0.6,4.6-0.3
	c1.1-0.9,2.8-7.2,3.7-19.5c1-12.3,0-20.5-0.9-30.5c-0.7-8.4,2.1-12.4,6.4-12.4c4.8,0,7.1,3.8,7.8,6.5c0.7,2.7,0.4,5.7,0.4,5.7
	s-5.8,3.3-8.7,12.1c-2.2,6.4-2,9.9-1.8,14.4c0.1,0.9,0.8,6.8,3.7,11.6c2.9,4.9,7.1,7.6,8.8,10.5c1.6,2.9,1.7,4.8,0.8,7.7
	c-0.8,2.6-2.9,3.1,1.9,4.6c2.1,0.7,3.8,1,6.8,0.4c1.4-0.3,3-0.6,4.6-1.5c0.9,1.7,2.1,3.4,5.2,7.3c3.1,3.9,8.2,9.8,10.8,16
	c1,2.4,1.8,4.7,2.3,6.9c-1.7-1.2-5.8-3.2-11.7-3.8c-7.7-0.8-13.5-0.2-22.7,5.3c-6.7,4-11,8.5-11,8.5s-10-3.1-15.4,5.8
	c-5.4,8.9-1,17.5,1.7,19.1c2.7,1.6,8.5,1.6,11.3-2.1c2.8-3.7,3.4-6.8,3.2-8.2c-0.2-1.4,0.9-1.3,1.1,0.6c0.3,2-0.1,6.3-0.9,8.1
	c-0.8,1.8-0.9,3,0.2,3.7c1.1,0.8,4.8-1.4,6.2-5.2c1.3-3.8,2.1-10.5,0.8-13.6c-1.4-3.1-2-3.7-2-3.7s5.1-6.9,11.5-9.2
	c6.2-2.3,12.2-2.9,19-1.1c6.8,1.8,7,7.6,7.1,11.2c0,0.8-0.6,3.3-1,4.3c-1.3,3.1-7.9,8.8-9.7,11.1c-2,2.4-8.3,10.5-11.1,18.6
	c-2.7,8-3.5,18.1-1.4,27.8c1.7,8.1,4.1,13.5,5.6,15.5c1.5,2,2.2,2.2,4.1,1.3c1.8-0.9,2.3-2,2.6-2.6c0.2-0.6-1.7-2.9-2.3-4.2
	c-0.6-1.3-2.7-4.7-2.4-7.6c0.4-4.2,1.7-8.3,5.4-13.4c3.6-5.1,9.8-12.1,14.4-17c4.5-4.9,11.2-11.9,14.7-18.7
	c3.5-6.8,5.8-12.7,5.8-12.7s2.6-0.4,5.3,0.8c3.1,1.3,5.7,3.7,4.4,7.7c-1.3,4.1-4.1,6-5.3,6.3c-1.3,0.4-3.3,0.5-4.6,1
	c-1.9,0.7-5.2,1.9-8.1,6.4c-2.9,4.5-2.3,9.6-2.1,12.4c0.2,2.8-0.3,5.9-0.9,7c-1.3,2.4-0.9,4.2,1.4,4.9c2.1,0.6,3.9-0.9,4.3-1.6
	c0.9,1.8,2.9,2.6,4.8,1.7c1.9-0.9,3-2.6,3-2.6s1.4,1.8,4.8,0.7c3.4-1.1,3.2-5.8,3.2-5.8s0.6,1.6,1.5,3.5c1,1.9,3.6,3.9,6.2,2.8
	c2.6-1.1,2-1.7,0.9-4.5c-1.1-2.8-0.6-4.9-0.6-4.9c0.7-2.9,3-5.1,2.4-11.1c-0.4-4.4-3.9-8.6-7.3-9.1c0.8-0.6,2.2-1.6,2.9-5.2
	c0.6-3.5,0.7-8.6-3.4-12.6c-3.1-3-6.2-4.6-11-4.5c0,0,1.3-7.5,1.8-13.6c0.5-6.1-0.5-11.3-0.6-16.2c-0.1-4.9,1.5-9.3,3.1-13.1
	c1.6-3.7,5.2-7.5,8.5-11.3c3.3-3.8,6.9-9,8.4-13.1c1.5-4,1-9.4,0.5-11.9c-0.5-2.5-3.2-6.3-3.9-7.4c-0.7-1.1-0.8-1.6-0.6-3.2
	c0.2-1.5-0.5-4.7-1.9-7.4c-1.4-2.6-5.4-4.2-7.4-4.4c-1.9-0.2-3.6,0.3-4.6,0.3c-1-0.1-1.6-0.3-2.4-0.6c-0.8-0.3-0.8-0.8-0.8-0.8
	c0-0.2,0.1-0.5,0.3-0.6c0.2-0.1,0.4-0.5,0.5-0.7c0-0.2-0.2-0.5-0.6-0.8c-0.4-0.2-1.7-0.9-1.9-1c-0.3-0.1-1.1,0-1.3,0.1
	c-0.2,0.1-1.1,0.3-2.1,0.7c-1,0.5-1.2,0.9-1.4,2.1c-0.2,1.2,0.4,2.2,0.6,2.7c0.3,0.5,1.1,0.9,1.4,0.9s2.1,0.8,2.8,1.2
	c0.6,0.4,2.5,2.8,3,3.6c0.5,0.8,1.3,1.1,1.8,1.1c0.5,0,1.6,0.3,3.6,0.8c1.9,0.5,3.1,3.8,3.1,5.1c0.1,1.3,0,1.9-0.1,1.9
	c-0.3,0.1-0.4-0.4-0.5-0.7c0-0.3-0.6-2.2-1.2-2.9c-0.6-0.7-1.6-1.6-2.1-1.8c-0.5-0.1-1.6-0.3-2.5-0.4c-0.9-0.1-2.1-0.1-2.5-0.6
	c-0.5-0.5-1.4-1.6-1.8-2.2c-0.4-0.6-1.5-2-1.8-2.2c-0.3-0.2-1.2-0.6-1.6-0.7c-0.4-0.1-2.2-0.5-2.6-0.5c-0.4,0-1.4,0.2-1.7,0.5
	c-0.3,0.3-1.1,1.8-1.3,2.5c-0.2,0.7-0.4,2.8-0.2,4.2c0.2,1.1,1.1,3.6,1.3,4.2c0.2,0.6,1.8,3.9,3.3,5.4c0.9,0.9,3.5,2.9,4.9,3.8
	c1.1,0.7,2.6,1.4,3.7,1.6c1,0.2,3.7,0.5,5,0.4c1.3-0.1,2.8-0.9,3.2-1.3s2-1.9,2.3-2.2c0.3-0.3,0.5-0.8,0.5-1c0-0.2,0.1-0.5,0.2-0.3
	s1,1.2,1.2,1.5c0.2,0.3,0.6,1.2,0.9,2c0.2,0.8,0.4,1.2,0.4,2.8c0,1.6-0.1,3.8-0.6,5.4c-0.5,1.6-1.7,3.9-2.4,5
	c-0.7,1-3.6,4.8-4.3,5.7c-0.8,0.9-6.6,7-7.4,8.1c-0.8,1.1-2.3,3.5-2.9,5.3c-0.6,1.8-0.8,2.8-0.8,3c0,0-1.4-4-3.6-7.9
	c-2.2-3.9-6.8-9.6-7.7-10.5c-0.9-0.9-1.6-1.5-1.6-1.5s1.4-1.2,2.9-3.4c1.6-2.4,1.6-4.4,1.5-5.5c2.7-1.1,3.6-4.3,3.6-4.3
	s-3.3-1.1-6.8-4.4c-3.5-3.4-2.6-12.9-7.8-20.3c-3.9-5.5-10.2-9.2-16.6-9.6c-6.5-0.4-9.2,1.2-9.9,1.6c-0.7,0.4-0.5,0.2-0.9-0.9
	c-0.3-1.2-1.5-3.8-2.8-7.4c-1.3-3.7-5.9-8.5-9.4-9.5c-3.5-0.9-8.5-0.8-11.5,0.8c-0.3-0.5,2-17.1,3.9-25.9c2.1-9.6,4.9-19,8.6-24.7
	c3-4.5,6.7-7,11.1-7c3.4,0,5.9,1.7,7.5,3.6c1.6,2,2.2,2.9,1.5,3.3c-2.2,1.4-4,3.4-6.3,7.1c-2.3,3.7-3.6,8-3.5,13.3
	c0.1,5.7,3.7,14.1,6.8,16.9c3.1,2.8,6.6,7.3,9.6,11.7c3,4.5,3.3,8.6,3.5,10.5c0.2,2-0.9,2.9-0.8,3.5c0.1,0.6,0.6,0.6,2.3,1.5
	c1.7,0.9,3.9,0.6,7-1c3.1-1.6,5-3.2,5.4-4.6c1.3,0.4,3.5,0.1,6.1-1.3c2.6-1.5,4.3-3.9,4.3-3.9s1.9,1.2,3.2,1c1.3-0.3,3-1.1,3.6-3.7
	c0.5-2.6,0.6-4.1,3.2-7.1c2.6-3,5.4-2.1,8.6-2.7s3.6-2.7,2.5-4.7c-1-1.9-2.9-2.3-2.2-3.1c0.7-0.9,2.9,1,4.6,1.4
	c1.7,0.4,2.9,0.4,5.2-1.2c2.3-1.6,1.7-4,1.7-4s2.2-0.7,3-2.2c0.8-1.6,0-2.6,0-2.6s-0.2,0.2-2.8-0.4c-2.6-0.6-5.7-2.3-9.7-7.7
	c-4-5.5-4.4-11.5-8.9-16.8c-4.5-5.3-8.9-9.5-18.8-10.3c-9.9-0.8-17.7,4.3-17.7,4.3c-0.5,0.3-1.2,0.5-1.8-0.4
	c-0.6-0.9-2.8-4.7-6.5-7.2c-3.3-2.3-7.5-3.2-10.5-2.7c-3.6,0.6-4.3,0.8-3.9-0.2c0.4-1,4.1-8.3,5.9-12c1.8-3.7,7.1-13.5,10.4-19.1
	c2.5-4.3,4.6-7.3,5.9-8.5c0.3,0.6,1,1.7,1.5,2.4c0.1,0.1,0.1,0.2,0.2,0.3c-0.9,0.8-2.4,2.4-3.6,4.6c-1.9,3.6-3.7,9.2-1.7,13.9
	c2.1,4.8,5,7.1,5.5,11.2c0.5,4.1-0.9,6.3-1.3,7.5c-0.4,1.2,0.6,2,2.7,2.2c2.1,0.2,3.9-0.7,5-2.6c2.6,1.2,3.8,1.5,5.9,1.2
	c2.1-0.3,3.8-2.1,5.1-1.9c1.3,0.2,3.1,2.6,7.6,2.2s7.5-3.7,8.5-6.5c1-2.7,0.7-4.6,1.9-5.3c1.1-0.7,4.3-0.2,6.4-1.3
	c2.2-1.1,4.5-3.4,4.6-4.8c0.1-1.5-0.4-2.5-0.4-2.5s2.7-1.1,3.5-4.7c0.8-3.6,0.6-4.5,0.2-5.1c-0.4-0.5-1.1-0.2-2.7-0.2
	c-1.7,0-2.7,0.6-4.7-2.3s-4.6-7.8-8.5-10.8c-4-3-8.4-5.8-13.6-6.3c-3.6-0.3-6.5,0.1-8.8,1.2c-2,1-4.3,3-5,3.6
	c-0.7-0.9-2.1-2.3-3.3-3.3c-0.2-0.1-0.3-0.2-0.5-0.3c1.4-1.9,6.4-8.1,8.7-11.4c2.9-4,6.7-9.3,10-11.5c3.4-2.2,4.9-2.7,4.9-2.7
	s0.8,5.8,2.2,10.1c1.4,4.3,2.6,7.8,2,9.8c-0.5,2-1.2,2.7-1.5,3.2c-0.4,0.5-0.2,1.2,0.7,1c0.9-0.2,2.6-1.3,3-2.9
	c0.4-1.6,0.4-4.4-0.4-6c2.2,2,3.8,2.9,7,3.4c3.1,0.4,6.4-2.1,6.4-2.1s1.6,2.6,5.9,3.1c4.3,0.5,6.5-1.1,6.5-1.1s-0.9-6.1,0-8.8
	c0.9-2.7,3.4-5.7,4.2-9.2c0.7-3.5,1.1-7.4,0-9.9l-1.1-2.5c0,0,2.5,0.8,3.5,5.3c1,4.5,0.2,9.1-1.6,14.1c-1.8,5-3.3,7.4-2.6,12.8
	c0.7,5.4,3.1,6.2,4.2,6.1c1.1-0.1,1.3-0.2,1.3-0.2s-0.3-3.2,1.2-6.6c1.5-3.4,6.4-9.6,7-14.3c0.5-4.8-1.4-12.3-5.3-16.2
	c-3.9-4-7.2-5.8-9.9-6.3c-0.1,0-0.1,0-0.2,0c3.2-4,5.5-9.7,5.9-15.1c0.4-5.4,0.8-9.3,0.6-14.7c-0.1-5.4,0.5-12.4,1.4-16.8
	c1-4.4,2.8-8.8,5.3-11c2.4-2.2,3.9-2.6,5.2-2.8c1.3-0.2,1.5-0.4,1-1.6c-0.5-1.2-1.9-2.4-4.8-3c-2.9-0.6-5.4-0.4-7.6,0.7
	c-2.3,1-3.7,2.2-3.7,2.2s0.1-6-1.5-8.8c-1.6-3-3.1-4.9-5.1-5.6c-2-0.7-3.4-0.2-3.4-0.2s-2.3-2.9-5-2c-2.7,0.9-1.7,2-1.4,4.1
	c0.3,2,1.6,14-1.8,24.6c-2.7,8.4-8.6,19.3-10.9,23.4c-0.9,0-1.7,0.1-2.6,0.2c0.8-1.3,2.3-3.8,3.5-6c1.7-3.3,5.6-12.1,7.4-18.7
	s2.9-12.6,2.1-16.8c-0.8-4.2-2.6-9.7-3.4-10.7C159,1,156.8,2,155.9,4.7c-0.9,2.7-1.4,7.1-1.9,11.4c-0.5,4.3-2.1,9.2-2.7,10.2
	c-0.7,1-1.3,2.4-1.5,1s-2.4-8.2-5-11.5c-2.6-3.3-7.6-8.4-11.8-10.9c-4.2-2.5-7.6-4.3-9-4.7c-1.5-0.4-1.7,0,0.2,1
	c1.9,1,5.2,3.7,6.3,8.2c1.1,4.5,0.8,10.6,0.2,13.5s-1.2,4.6-1.7,3c-0.5-1.6-1.9-5.4-4.9-6.6c-2.3-0.9-4.8-1.4-7-0.1
	c-0.7-0.4-0.8-1.3-1.7-2.7c-0.8-1.3-2.7-3-6.2-2.9c-3.5,0.1-5.9,0.9-9.4,3.3s-6.6,2.1-8.1,1.6c-1.5-0.5-2.7-1.7-3.1-2.8
	c0,0-1.5,0.9-1.9,2.2c-0.4,1.3-2.3,2.3-2.2,6.6c0.1,4.3,2.4,6.3,2.4,6.3s-0.5,2,0.7,3.9c1.1,1.9,2.9,2.1,3.3,2.6
	c0.3,0.5-0.2,2.7,1.4,5.2c1.6,2.5,4.5,4.2,6,4.8c0.6,1.3,1.8,2.5,3.3,3.4c1.5,0.8,3.4,1.7,4.5,1.6c1.2-0.1,1-0.5,1-0.8
	c0-0.4-0.4-2,0.4-4.3c0.8-2.2,2.8-4.8,6.9-6.9c4.1-2.1,6.2-5.3,6.6-8.3c0.5-3,0.1-4.6-0.5-5.8c-0.6-1.2-0.6-1.7,0.4-1.7
	c1,0,3,0.5,3.8,4.7c0.8,4.1,1.1,7-0.2,11.1c-1.3,4.1-7.4,13.4-9,18.1s-2.5,10.2-1.4,14.6c1.2,4.4,3,6.2,3.3,7.1
	c0.3,0.7,0.6,1.5,0.7,2.5c-0.5,1.8-0.9,3.7-1.1,5.7c-0.8,8.1-0.1,13.2,0.1,18.2c0.1,3.9-0.3,9.5-1.2,11.1
	c-5.6-1.7-12.4-2.7-17.3,0.9c-4.1,3-7,7.6-7.6,15.4c-0.6,7.9,0.9,11.6,1.6,14.7c0.7,3.1,1.6,4.4,0.2,7.7c-1.5,3.3-4.1,8-6.4,12.1
	c-0.4,0.8-0.8,1.3-1.3,2.3c-0.6-1.3-1.4-5.7-1.2-9.4c0.3-5.9,4.2-27.1,6.5-37.9c3.6-16.9,0.8-34.9-3.6-49.4
	C82.1,57.8,71.8,34.2,49,22c-15.1-8.1-29.6-7.9-37.8-4.8c-7.7,2.9-10.8,7-11.1,9.6C-0.3,29.2,1,30,1,30S-0.1,31.7,0.6,33.6"/>
<path d="M80.3,382.4c0.8-1.8,1.2-6.1,0.9-8.1c-0.3-2-1.3-2.1-1.1-0.7c0.2,1.4-0.4,4.6-3.2,8.2c-2.4,3.1-6.9,3.5-9.8,2.7
	c0.8,1.1,2.7,2.7,6.6,2.7c2.9,0,4.8-1.2,6-2.5C79.6,384.1,79.9,383.3,80.3,382.4"/>
<path d="M98.3,317.6c0,0,3.5,0.1,6.9-2.2c4.1-2.8,4.1-6.6,4.1-6.6s4.7,1.4,8-1.2c3.3-2.5,5.2-6.2,5.2-6.2s2.5,1.5,6.3-0.7
	c3.8-2.2,5.1-4,5.7-5.1c0.7-1.2,0.7-2.4,0.7-2.8c-0.5,0.8-3,3.4-6,4.7c-3.1,1.4-5.8,1.3-6.8,0.8c-1-0.5-0.8-0.3-1.2,0.5
	c-0.3,0.8-1.7,3.9-5.2,5.8c-3.5,1.9-5.5,1.9-6.8,1.3c-1.3-0.6-1.9-1.2-1.9-1.2s0.1,5-1.4,7.3C104.1,314.5,101.9,316.2,98.3,317.6"/>
<path d="M87.4,19.3c0,0-0.6,2.4,0.5,5c1.1,2.5,3.9,3.6,3.9,3.6s0,2.4,1.1,4.1c1.1,1.7,3.6,2.4,3.6,2.4s-0.5,3.1,1.6,5.5
	c2.1,2.3,3.9,2.7,3.9,2.7s-0.4,2.2,0.2,3.8c0.5,1.6,1.7,2.9,1.7,2.9s-1.3,0.4-2.8-1.1c-1.5-1.6-2.2-3.9-2.2-3.9s-2.3,0-4.3-2.9
	c-2-3-1.4-5.2-1.4-5.2s-1.9-0.7-3.1-3.4S90,29.2,89,28.5c-0.9-0.7-3.2-2.4-3-5C86.3,20.3,87.4,19.3,87.4,19.3"/>
<path d="M169.3,214.8c-0.7,0.4-4.4,1.9-8.8,1.1c-2.6-0.5-4.5-1.5-6.2-3.1c-0.1,1.8-0.4,5.5-1.7,7.5c-1.8,2.7-4.7,4.8-10.3,4.2
	c-0.2,3.4-1.9,6.3-4.6,8c-2.7,1.7-4.3,2.4-8.4,2.1c-0.7,4.2-3.1,9-5.1,10.7c-1.4,1.1-1.3,1.3,0,1.1s4-1.6,5.5-3.4
	c1.5-1.8,2.4-2.7,3.3-2.7c0.9,0,4,1.1,8.5-2.3c4.5-3.4,3.6-5.5,6.6-8.3c3.1-2.8,4.3-3.6,8.9-4.6c4.6-1,4.4-3,4.1-3.8
	c-0.4-0.9-2.3-1.5-2.4-2.5c-0.1-0.9,0.2-1.7,1.5-1.7c1.3-0.1,4.5-0.3,6.1-0.8c1.3-0.5,2.5-0.9,3.1-1.6
	C169.4,214.8,169.3,214.8,169.3,214.8"/>
<path d="M186.6,122.5c-0.1,0-0.4,0.1-1.3,0.2c-1.1,0.1-3.4-0.7-4.2-6.1c-0.7-5.4,0.8-7.8,2.6-12.8c1.8-5,2.7-9.5,1.6-14.1
	c-1-4.5-3.5-5.3-3.5-5.3L183,87c1.1,2.5,0.8,6.4,0,9.9c-0.7,3.5-3.3,6.5-4.2,9.2c-0.9,2.7,0,8.8,0,8.8s-2.2,1.6-6.5,1.1
	c-4.3-0.5-5.9-3.1-5.9-3.1s-3.2,2.5-6.4,2.1c-3.1-0.4-4.7-1.3-7-3.4c0.8,1.6,0.8,4.3,0.4,6c-0.4,1.6-2.1,2.7-3,2.9
	c-0.1,0-0.2,0-0.3,0c0.1,0.4,0.4,0.9,1.5,1.3c2,0.6,3.2-0.3,3.2-0.3s1.9,1.4,4.1,1.6c2.2,0.1,4.1-1.3,4.1-1.3s0.6,1.4,2.9,1.6
	c2.2,0.1,3-0.5,3-0.5s0.2,1.6,2.8,1.7c2.6,0.1,3.2-1,3.7-1.3s0.8-0.1,1.2,0.6c0.4,0.7,2.6,1.8,5.7,1.1c3.1-0.7,3.7-1.8,4-2
	C186.5,122.8,186.6,122.7,186.6,122.5"/>
<path d="M159.1,409.2c-1-1.9-1.5-3.5-1.5-3.5s0.2,4.6-3.2,5.8c-3.4,1.1-4.8-0.7-4.8-0.7s-1.1,1.7-2.9,2.5c0.3,0.8,1.2,2.6,4.2,2.8
	c3.9,0.3,6.2-2,6.2-2s2,1.5,4.4,0.3c1.3-0.6,1.9-1.5,2.3-2.1C161.6,412.2,159.8,410.7,159.1,409.2"/>
</svg>
