<!-- Generator: Adobe Illustrator 19.2.0, SVG Export Plug-In  -->
<svg version="1.1"
	 xmlns="http://www.w3.org/2000/svg" xmlns:xlink="http://www.w3.org/1999/xlink" xmlns:a="http://ns.adobe.com/AdobeSVGViewerExtensions/3.0/"
	 x="0px" y="0px" width="190.9px" height="454.4px" viewBox="0 0 190.9 454.4" style="enable-background:new 0 0 190.9 454.4;"
	 xml:space="preserve">
<style type="text/css">
	.st0{fill-rule:evenodd;clip-rule:evenodd;fill:#FFFFFF;}
	.st1{fill-rule:evenodd;clip-rule:evenodd;}
</style>
<defs>
</defs>
<g>
	<g>
		<path class="st0" d="M190.8,63.6c-2.9-9.7-19.3-15-32.6-12.7c-22.6,3.8-36.8,19.6-47,36c-8.4,13.5-14.8,28.5-15.8,48
			c-1.3,23.8,6.1,43.9,2.2,61h-0.2c-1.8-2.5-7.3-14.3-7.9-18.7c1.4-3.6,2.9-7.2,4.3-10.8c3.9-18.3-5.1-29.6-21.6-26.2
			c-2.8-6.6,0.2-16.3,1-23c-0.1-3.8-0.2-7.7-0.2-11.5c1.8-2.6,6.3-8.6,5.5-14.6C77.3,84,76,78.3,73.9,72.7
			c-4-10.9-12.5-27.6-7.7-43.2c1.5-4.8,3.9-6.1,8.2-9.1v-0.2c-5.6,2.3-11.5,4.4-15.4,8.4c-0.8-1.1,6.7-9.9,7.9-11
			c10.5-10.4,28-14.6,42-4.6c2.9,2.1,8.2,7.5,7.7,11.8c-11.1-5.2-23.7-3.4-29.3,5.3c-2.2,3.5-2.8,8-3.6,12.5
			c-0.8,4.5-5.1,6.7-4.6,9.6c0.5,2.5,11.3,2,27.4,20.6c8.2-6,20.1-9.9,24.5-19.7c4.7-10.7-1.1-20.9-6-24.5c-0.9-3.3-1.8-6.6-2.6-9.8
			c-4.1-8.2-12.2-15.1-21.6-17.5C74.8-5.4,54.1,17.2,48,31.9c-1.1,4.5-2.2,6.8-3.4,13.4c-4.1-10.3,3-22.5-5.5-28.8
			c-0.3-0.3-0.6-0.1-1,0.1c-1.6,1.3-2.2,4.7-3,7.2c-5.6,18.4,4.1,40.9,10,51.9c-1.3-0.3-2.7-0.6-2.7-0.6
			c-1.3-2.2-8.9-12.9-11.7-35.7c-0.8-6.9,0.6-12.4,1.9-18.5c0.2-1.1,0.4-1.7,0.7-2.8c-0.1-2.2-1-2.5-1.9-3c-0.7-0.4-1.6-0.7-2.9-0.7
			c-9.1-0.1-12.8,11.1-13,19.9c-5.5-3.6-9.4-2.9-14.2,0.2c-1,1.1-0.7,2.1,1.9,3.6s6.1,5.6,7,8.9C14,62.1,5,82.8,14.1,97.2
			c-5,2.4-9.1,3.9-11.5,11c-2.5,7.4,1.2,15.5,1.9,22.1c0.5,4.2-2.1,6.8-2.9,9.8c0.3,0.3,0.6,0.6,1,1c3.7,0.7,4.5-0.9,6.5-2.4
			c2,2.8,3.6,4.4,7.9,2.2c2.6,5.1,10,5.2,12.2,0.2c4.6,0.9,8.1-0.1,8.2-5c4.4,0.1,6.6-3.4,4.6-7.2c3.2,0.9,6,0.4,6.7-2.6
			c-1.1-2.7-3-4.3-3.8-7.4c10.9,4.4,10.7,18.5,18,25.9l0.2,0.2c-0.8,0.7-1.6,1.4-2.4,2.2c-0.2,0.1-0.3,0.2-0.5,0.2
			c-1.6-2.6-4.4-3.8-7.9-4.6c-16.4-3.7-22.7,10-28.8,15.1c0,0-1.7,0.8-3.6,0.7c0,0-2.1-0.8-2.4,1.2c0,0-1.3,5.3,2.4,7.9l0.7,0.7
			c0,0-0.9,2.6,1.2,4.8c0,0,1.5,2.2,3.6,2.9c0,0,1.3,0.2,2.9,0.2c0,0,2,0.1,2.6,2.6c0,0-0.4,5,4.6,8.4c0,0,1.6,2.2,5.8,2.2
			c1.7-0.6,3.4-1.1,5-1.7c1.5,0.8,2.5,2,4.6,2.4c2.4,0.4,4.1,0.2,6.5-0.2c1.6,2.2,1.3,2.6,5,2.6c0.7-0.1,0.9-0.3,1.2-1
			c0.2-2.6-0.9-5.9,0.2-8.9c2.1-5.5,8.6-8.9,7.4-18.7c-1.4-4.1-3-6.1-4.6-9.1c0.1-0.8,0.5-1.1,1-1.4c0.2-0.1,0.3-0.1,0.5,0
			c7.1,9.7,14.9,29,18.2,39.4c-0.1,0.1-0.2,0.2-0.2,0.2c0,0-3.5-1.8-7.2-1.4c0,0-9.6,1.2-13.4,8.2c0,0-0.9,2.1-2.2,1
			c0,0-1.3-3.2-8.6-4.6c-25.7-4.7-29.8,8.8-38.2,22.6c-2.4,4-7.5,4.4-11.8,6.7c-0.1,0.2-0.2,0.5-0.2,0.7c0.3,3.2,1.5,3.5,2.9,4.1
			c-0.2,1.3-0.1,2.2,0.5,3.1c2.3,3.2,4.9,1.8,8.4,2.9c-0.9,0.8-1.6,2.4-1,4.1c1.3,3.7,7.2,2.9,10.1,5c3.8,2.8,0.9,10.5,6.7,11.8
			c0.8,0,1.6-0.2,2.2-1.2c0.5,0.6,1.9,2.2,1.9,2.2c3.4,3.9,7.9,3.8,7.9,3.8l1.4,2.2c4.1,5.4,9.8,4.1,9.8,4.1
			c2.6-0.3,2.4-4.6,2.4-4.6c0.2-5,3.1-9.1,3.1-9.1c4.3-6.6,9.4-8.3,13.2-13.2c7.6-9.8,8.3-26.1-1.9-34.3c4.1-8.5,14.7-6,18.5,0.7
			c4.7,8.4,10.2,36.7,9.8,50.6c-15.5-5.2-19.2,3.9-24.5,15.4c-3.1-1.5-5.3-1.8-8.2-2.2c-9.9-1.4-18.7,6.1-22.6,11.3
			c-5.4,7.2-6,15.7-16.1,18c2.6,5.3,5.8,5.2,5.8,5.3c0.1,3.4,1.2,5.3,3.6,7.7v0.7c-5.8,4.5-10.1,10.6-13.4,17.5
			c-1-2.7-1.2-5.1-3.1-8.2c-4.4-6.3-17.8-17.7-9.8-29.8c2.3,0.7,3.5,4.3,7.4,5c7,1.3,16.2-6.4,17.4-13.9c0.6-3.9,0.3-5.1-1.1-6.3
			c-6-2.3-6.8,3.2-9.6,4.1c-4.6,1.4-5.9-1-8.9,5.3c-0.5-6.9,6.7-6.7,6.7-6.7c2.1-0.4,3.1-2.2,3.1-2.2c1.4-2,4.1-2.6,4.1-2.6
			c1.9-0.4,2.6-1.7,2.6-1.7c1.8-2.7-0.9-4.4-2.9-5c-1.8-0.5-3-0.1-3.6,1.2c-0.1,0.9,0.2,1.1,0.7,1.7c-4.1,2.5-8.1-2.7-14.9,3.6
			c-2.8,2.6-2.8,9.5-2.9,9.6c-2.8,2-4.2,4.8-5.3,8.4c-4.9,16.6,14.6,26,15.4,39.6c1,17-3.5,23.2-0.7,37.2
			c-12.7-1.9-21.3,10.9-12.7,20.6c0.1,0.2,0.2,0.5,0.2,0.7c-9.1,1.5-7.9,11.3-6,19.2c0,0,0.3,5.1-1.2,7.9c0,0-0.8,1.5,0.7,2.2
			c0,0,1.2,0.5,2.4-0.5c0,0-0.1,3.4,3.6,3.4c0,0,3.3,0,4.8-2.4c2.5,5,7.5,3.4,9.6-1.2c5.2,2.6,7.4,0.8,11-1.9
			c0.4-0.3,0.9-0.8,0.5-1.2c-2-0.8-2.8-1.4-3.8-3.4c-3.2-7.4,2.7-11.5-3.7-20.7c-3.6-5.1-11.3-2.9-11.3-2.9c-2.3-2-3.4-4.8-3.4-4.8
			c-2.1-6.3,4.9-11.2,10.6-8.9c1.2,4,1.3,7.2,7.2,18.7c5,9.9,19.7,24,24,37c0,0,3.9,8.2-3.1,16.8c0,0-1.1,0.9-0.5,1.9
			c0,0,0.9,1.5,2.4,2.2c0,0,1.5,0.5,2.6-0.5c0,0,2.1-1.7,4.1-6.2c7.6-17.2,6.8-32.5,0.7-45.4c-3.3-7.1-9.7-11.9-11.3-20.6
			c-1.5-8.2,5.6-17.4,14.2-12.7c5,2.7,6.1,11.5,8.2,16.8c-2.9,3.8-4.9,6.2-4.3,12c1,11.1,10.9,17,1.9,23.5c1.7,2,5.2,3.2,9.4,2.6
			c1.3-0.4,2.5-1.1,3.4-1.9c0.8,1.3,3,1.9,6,1.7c5.7-1.4,6.8-4.5,7-4.6c3.7-0.4,7.1-0.8,9.6-4.3c1.6-2.2,1.7-4.2,2.2-8.6
			c0.9-0.2,2.2-1,2.2-1c4.1-3.1,1.9-9.6,1.9-9.6c-0.1-1.1,0.2-1.7,0.2-1.7c0.5-2.7-1.2-4.1-1.2-4.1c-1.3-0.7-3.9,0.6-5.3-1
			c-4.6-5.2-7.1-13-20.6-12.5c-2.7,0.1-5.3,2.1-6.5,4.6h-0.2c-2.1-8.6-5.4-16.5-13.4-18.7c-11-3-18.2,4.5-18.5,12.2
			c-2.5-21.2,16.4-29.8,20.9-39.8c4.3,2.8,8.6,2.9,13.2-0.2c-0.4-7.9,6.5-10.3,10.1-15.1c2.9-3.9,4.4-8,6.5-13.9
			c1.4-1.1,2.9-2.2,4.3-3.4c6.1-5,12.6-12.5,16.1-20.2c8.3-18.5-3.2-39.8,2.9-51.4c-3.8,2.2-6.1,5.8-8.2,9.6
			c-1-5.4-2.1-10.9-3.1-16.3c3.3-3.5,6.6-7,9.8-10.6c6.3-8.5,11-17.1,13.2-29.8c1.9-11,0.7-22.5-0.5-36c-0.3-3.6-1.4-9-0.5-13
			c0.7,2.2,1.4,4.5,2.2,6.7c5.6,13,12.5,24,23.5,32.2c3.1,2.3,5.8,6.1,10.8,6.5c0.1-0.1,0.2-0.2,0.2-0.2c-0.8-1.3-3.7-3.8-5.5-5.8
			c-1.4-3-2.9-6.1-4.3-9.1c-6.6-21.2-7.7-38.6-30.5-41.8c3.7-23.4,20.4-43.5,40.8-48c5.2-1.1,12.7-0.5,16.4,2.1
			c3,2.1,4.1,1.2,4.7,0.8c2.8-2.6,0.7-3,1.9-4.8c1.1-1.6,1.9-2.5,1.9-5.8C190.1,66.2,191.3,65.1,190.8,63.6z M5,111.9
			c-0.7-4,0.6-5.4,3.4-6.7c0.9-0.2,1.6,0,2.1,0.3c1.9,1,3.5,2.8,2.7,5.5c-0.6,2.2-2,2.9-4.3,3.4C6.4,114,5.6,113.3,5,111.9z
			 M9.6,124.4c-1.1-0.2-1.7-1-2-1.6c-0.5-1.7-0.2-2.4,0.4-4c0.6-0.7,1.1-1.1,1.9-1.2c1.6,0,2.7,0.5,3.4,1.4
			C14.4,121.6,13.2,125.9,9.6,124.4z M42.7,232.1c-0.6,2.9-2.3,4.7-6,4.6c-1.2-0.3-1.9-0.9-2.6-1.7c-1.7-3.6,0.1-6.2,3.6-7.7
			c1.7-0.4,2.5,0,3.1,0.7C42.2,229.1,42.9,230.8,42.7,232.1z M58.1,220.1c-0.6,2.3-2,2.9-4.1,3.6c-1.9,0.4-2.8-0.2-3.8-1.4
			c-1.3-4.2,0.4-6.1,3.1-7.7c3.1-0.3,4.1,0.8,4.8,2.4C58.4,218.5,58.3,219.1,58.1,220.1z M57.4,210.8c-4.8,1.5-8.5-4-6-7.4v-0.7
			c-6.1,0.7-11.9,4.7-13.7,9.6c3.9-1.8,8.8,1.3,7.2,6.2c-1.5,4.7-9.2,5.4-10.3,0c-4.4,2.1-3.6,11.6-9.8,12.2v-0.2
			c4.7-2.9,4.5-9.3,7.2-14.2c4.7-8.4,8.8-14,18.2-16.1c6.4-0.4,9.7,1.7,10.3,3.6C61.4,207.5,60.3,209.9,57.4,210.8z M57.6,301.5
			c0.3-1.9,2.4-1.7,2.4-1.7s2.5,0.5,1.4,3.1c0,0-1.3,1.9-3.4,0.5C57.6,302.5,57.6,301.5,57.6,301.5z M36.2,372.5
			c0.3,1.9,0.6,3.8,1,5.8c-0.6-0.6-2.6-1.9-2.6-1.9c-1.4-6.8-1-12.5-1-12.5c2.2-18.2,10.1-25.2,20.2-34.7c1,0.5,1.6,1.3,2.6,1.8
			c-5.9,7.4-14.2,12-18,22.3C36.5,358.4,35.1,365.5,36.2,372.5z M48.2,324.5c1.2,1,2.3,1.8,3.2,2.9c-2.6,2.9-5.3,5.8-7.9,8.6
			c-7.9,8.9-14.2,22.7-11.3,39.4c-0.6-0.2-1.1-0.3-1.7-0.5c-1.6-2.7-1.4-7.2-1.4-11.5c0-14.2,5.4-23.2,12-30.2
			C43.8,330.2,46.7,328.7,48.2,324.5z M45.8,323.5c-1.8,3.9-6.1,6.4-8.6,9.6c-8,10.4-11.9,20.3-9.4,40.6h-0.2
			c-0.7-0.2-1.4-0.5-2.2-0.7c-2.9-18.2,1.3-33.5,9.6-41.5c2.6-2.9,5.8-6.3,8.4-9.2C44.2,322.7,45,323.1,45.8,323.5z M18,325.3
			c-5.6-9.5-21.1-23.1-7.2-37.2c0,0,1.2-1.2,2.2-0.1c0,0,0.6,0.8,0.5,1.8c-0.1,0.4-0.2,1-0.9,1.4c0,0-0.9,0.6-1.4,1
			c-11.2,10.9,6.1,27.6,10,35c2.3,4.4,1.8,8.5,0.7,12.2C21.4,333,20.5,329.5,18,325.3z M39.4,317.1c0,0,0.7-0.1,1,0.5
			c0,0,0.3,0.6,0.5,1.2c0,0,0.3,0.7,0.5,1.2c-1.9,4.9-6.7,7.8-9.6,11.8c-7.3,10.2-10.5,23-8.2,40.6c-0.7-0.1-1.4-0.2-2.2-0.2
			C16.3,347.7,28.5,325.5,39.4,317.1z M47,419.1c-9.4-12.2-19.4-21.7-24.2-40.3c0.5,0.2,1.7,0.3,2.2,0.5c1.9,7.8,4.7,12.9,6,15.1
			c7,12.1,25.4,26.4,23.5,41.3C53.2,430.4,50.8,424,47,419.1z M39.1,393.9c5.4,7,13.8,13.5,15.8,22.3c0.1,0.2,0.2,0.3,0.2,0.5
			c-1.5-2.2-3-4.3-4.6-6.5c-6.4-7.6-18.5-19.5-18-27.4c0.9,0.6,2.2,0.7,2.4,1.7C35.9,387.8,37.2,391.5,39.1,393.9z M38.9,387.9
			c4.6,3.7,10.3,10.5,12,15.8C46.9,399.4,40.3,393.2,38.9,387.9z M55.9,427.3c-1.7-4.3-3.6-8.2-6.2-11.8
			c-8.1-11.6-18.8-19.2-22.6-35.3c0.9,0.4,1.8,0.8,2.6,1.2C34.3,403.3,55.2,408.5,55.9,427.3z M56.4,363.7
			c12.6,0.1,13.6,9.7,17.3,19.2c0,0.1,1.2,1.9,1.2,1.9c1.7,2,2.2,2.9,2.2,2.9c0.9,2,0,2.6,0,2.6c-1.2,0.6-2.9-1-2.9-1
			c-4.5-3.8-5.5-9.6-5.5-9.6c-1.3-8.7-6.2-11.5-6.2-11.5c-8.8-4-16,0.9-17.3,8.4c0,3.8,0.3,5.7,1.2,9.1
			C38.5,375.2,48.2,363,56.4,363.7z M58.6,407.8c3,8.6,3.1,18.5,1,27.6c-1.6,6.8-3.1,11-6.5,16.8c-1.8,1.7-2.9-0.2-2.9-0.2
			c-0.3-0.8,0.7-1.7,0.7-1.7c11.8-19.8,9.6-44-8.4-61.9c-6.3-6.3-14.2-10.8-23.8-12c-10.5-1.3-13.5,9.7-7.2,14.9
			c0,0,0.7,0.9,0.2,1.4c0,0-0.8,0.7-1.4,1c0,0-0.5,0.3-1,0c-8.2-8.3-4.2-19.7,7-20.4C36.8,374.5,52.6,390.6,58.6,407.8z M49.2,347.8
			c-7,8.3-11.8,20.1-6.2,34.3c-4.7-2.4-6-8.9-4.8-18.5c1.3-10,5.8-18,12.5-23.5c3-2.4,6.7-4.5,8.6-7.9h2.6
			C61.3,337.6,52.5,343.9,49.2,347.8z M60.7,316.4c-2.2,0.8-2.9,0.3-4.1-0.5c-1.3-0.8-1.9-2.1-1.4-4.1c0.4-1,1-1.8,2.4-2.2
			c1-0.2,1.4,0,2.2,0c1.6,0.6,2.3,1.6,2.4,4.1C62.1,315.3,61.5,315.8,60.7,316.4z M99.8,181.3c-1.4-19.5-1.8-43.8,9-52.2
			c-0.2,0.3-0.6,1-0.8,1.3c-2.1,4.2-3.1,7.6-4.1,13c-3.4,18.8,1.7,42.8-5,56.9h-0.2c-0.2-0.2-0.3-0.3-0.5-0.5
			C96.9,195.5,100.9,195.3,99.8,181.3z M107.5,164c0.2,5,0.5,10.1,0.7,15.1c-1.5,10.8-1.9,14.5-5.3,22.8c-0.1,0-2.3,3.6-2.4,3.6
			c0.2-1-1.7-2-0.5-4.1c1.4-2.4,3.5-10.8,4.3-15.8c3-19.1-5-44.4,7.9-57.8c1.6-1.7,3.9-2.2,6.4-2.3c0.7,0,2.2,0.1,2.4,0.2
			C109.6,129.8,105.6,146.5,107.5,164z M105.6,39.2c-4-3.1,0-6.7,0-6.7c1.8-1.3,4.1-0.5,4.1-0.5c3.8,2,1.9,5.5,1.9,5.5
			C109.8,41.2,105.6,39.2,105.6,39.2z M113.5,51.4c-2.9-0.3-1.4-3.4-1.4-3.4c0.8-0.8,1.9-0.7,1.9-0.7c1.5,0.2,1.7,1.7,1.7,1.7
			C115.6,51.5,113.5,51.4,113.5,51.4z M119.3,44.2c-0.7,1.6-2.9,1.2-2.9,1.2c-2.5-1.2-0.5-3.6-0.5-3.6c1.1-1,2.4-0.2,2.4-0.2
			C120.1,42.1,119.3,44.2,119.3,44.2z M119.8,37c-2.3,1.5-3.8-0.7-3.8-0.7c-1.3-2.6,1.2-3.8,1.2-3.8c2.4-0.5,3.1,0.7,3.1,0.7
			C121.7,35.2,119.8,37,119.8,37z M51.1,30.5C57,18.9,64.4,9.4,77,4.6c4.2-1.6,8.1-2.4,12.5-2.9c5.7,0.1,9,0.7,13.4,2.2
			c8.3,3.7,19.7,13.4,19,24.7c-0.4,0.5-0.8,0.6-1.4,0.7c-0.6,0.2-1.1,0-1.7-0.2c-1.6-1.5,0.2-3.3-0.7-6c-2-6.2-7-11.3-12.5-13.9
			c0,0-11.4-8-28.3-0.5c0,0-13.1,4.6-21.4,19.9c0,0-1.7,4-3.6,6.5c0,0-3.6,3.3-6.7,13.2C45.5,42,49.1,34.5,51.1,30.5z M39.1,56.2
			c-3.1-10.7-4.3-18.7-3.4-24.7c0.9-3.9,1-8.1,2.6-11.8c3.5,3.5,1,11.8,1.9,18c1.5,9.6,3.1,17.8,7.9,24c0.3-3.8,0.6-7.7,1-11.5
			c2.5-9.6,7.7-16.3,13.4-21.1c-1,5.8-2,13.8-0.5,20.2c6,25.3,15.3,35.4,11,48.7c-0.8,2.8-2.9,5.8-3.6,1.7c-4-7.6-5.6-9.5-8.2-12.7
			c-3.9-4.8-8.6-7.6-14.2-10.3C47.1,76.5,42.3,67,39.1,56.2z M28.8,17.6c0.7-0.5,1.3-0.5,1.9,0c0.9,0.8,0.3,2.1,0.3,2.1
			c-1.8,4.1-2.4,7.2-2.4,7.2c-0.1,5.4-0.2,10.7-0.2,16.1c2,12.7,6.5,23.4,11.5,32.2c-1.4-0.1-2.9-0.2-4.3-0.2
			C30.8,66.4,15.6,32,28.8,17.6z M22.6,19.3c0.8-0.8,1.7-0.4,2,0c0.4,0.4,0.3,1.3,0.1,2.2c-2.1,4.6-2.8,7.7-3.1,12.2
			c-1.2,16.8,7.2,33.1,11.5,41.5c-1.2,0.2-2.4,0.5-3.6,0.7C24,66.4,11.1,36.4,22.6,19.3z M12.7,67.5c0.5-13.6,0.5-26.8-10.1-31.7
			c0.8-0.8,1.6-1.1,2.6-1.2c3.8,0,6.7,1,8.4,3.1c2.4,3.1,2,8.7,2.9,13.2c1.6,7.9,5.1,17.4,9.8,25.4c0.1,0.3,0.2,0.6,0.2,1
			c-5.1,1.7-9.4,5.9-10.8,11.3c-0.2,2.2-0.3,4.5-0.5,6.7C11.4,87.2,12.4,77.3,12.7,67.5z M15.1,104.2c-0.5-0.3-0.8-0.7-1-1.4
			c-0.1-0.7,0-1.2,0.2-1.9c0.3-0.5,0.6-0.7,1.2-1c1.9-0.5,2.8,0.7,3.1,1.9c0.1,0.7-0.1,1.2-0.5,1.7c-0.4,0.6-0.8,0.8-1.4,1
			C16.1,104.5,15.6,104.4,15.1,104.2z M25.4,113.6c-1,2.1-2.1,2.4-3.8,2.9c-3,0.2-4.4-1.5-4.8-2.6c-0.6-3.6,1.2-5.7,3.1-6.2
			c2.3-0.5,3.2,0.2,4.1,1C25.3,109.7,26,112,25.4,113.6z M44.4,117.9c-0.3-3.3-0.6-6.6-1-9.8c-2.1-9.3-9.7-14.4-19.9-12.7
			c-2.5-6.5,2-11.9,7.4-13.4c2.4,2.6,4.6,5.5,7,8.2c3.6,5.4,7.2,11.4,8.4,15.4c1.4,4.7,1.6,2.8,1.9,3.4c7.2-1.2,4.8-16,3.1-21.8
			c3.3,2.5,12.2,13.9,13,22.1c-1.3,1.4-2.3,2.5-3.6,4.6c-3.9,7.6,1,15.8,4.1,20.9c0.5-4.2,1-8.3,1.4-12.5
			c3.2-21.3-10.7-39.4-26.6-43c-12.3-2.7-23.2,7.8-17.8,19.2c-0.8,0.8-0.4,0.9-1.9,1.2c-4.9-7.7,0.4-17,6-20.2
			c2.6-1.4,5.3-2.3,8.6-2.6c22.1,1.2,33.6,17,35.5,36.2c1.1,11-2.8,17-0.7,28.8c-1.8,0.9-3.7,1.8-5.5,2.6
			C58.4,136.4,55.3,120,44.4,117.9z M49.9,105.2h-0.2c-2.5-9.4-4.7-16.9-10.6-24c1,0.2,1.9,0.5,2.9,0.7C44.6,83.4,52,103,49.9,105.2
			z M45.4,83.1c1.5,0.4,2.6-0.1,4.2,4.3c1.8,5,1.9,8.5,1.8,13.3C49.6,95.6,48.1,87.9,45.4,83.1z M48.7,105.7c0,0.2,0,0.3,0,0.5
			c-0.1,0.3-0.6,0.6-1,0c-2.1-6.4-2.8-7.3-4.8-11.6C40,90,37.8,85.7,33.5,81c1.2-0.3,2.7-0.1,2.7-0.1
			C42.2,87.1,46.3,95.9,48.7,105.7z M64.8,113.1c0.9,3.9,0,10.3-0.5,14.4c-0.1,0.6-0.3,1.2-0.5,1.5c-0.4-0.2-0.5-0.5-0.7-0.8
			c-2.9-4.8-3.1-12.1,0.7-15.1C64.4,112.7,64.8,112.8,64.8,113.1z M66.7,161.1c2.8,11.3-10.8,14-8.9,26.4c-5,2.9-13.6,0.7-11.5-6.7
			c1.7-6.2,8.7-6.4,10.1-13.9c-2.1,2.7-4.6,5.3-6,5.8c-8.6,3.4-13,2.4-13,13c-0.1,0.1-0.2,0.2-0.2,0.2c-5-1.4-2.4-8.3-6-10.8
			c-2.3-1.6-6.3-0.6-7.9-2.9c-1.3-1.8-0.7-3.3,0-4.8v-0.5c-2.2-0.5-3.1-1.8-3.6-4.1c0,0,0-0.7,0.1-1.5c0,0,1.5,1,4.2-0.4
			c1.7-2.1,3.4-4.2,5-6.2c4.5-5.5,10.1-8.7,17-9.8c5.6-0.2,10.5,0.9,12.2,4.6c-0.7,2.7-1.3,3.9,0,6
			C60.7,159.1,65.1,154.5,66.7,161.1z M87.8,261.4c8.5-3.4,13.9,1.4,13.9,1.4c-0.3,1.1-2.2,3.8-2.2,3.8c-0.7,0.7-1.4,0.5-1.4,0.5
			l-1.2-0.7c-6.2-1.9-10.3,3.1-10.3,3.1c-2.7,1.9-2.6,9.4-6,10.6c-0.5-0.2-1-0.5-1.4-0.7C76.9,274,83.6,263.7,87.8,261.4z
			 M71.8,287.1c0.5-0.9,1.1-1.3,2.6-1.9c2.8-0.3,4.2,0.7,4.8,1.9c1.5,4.3-0.7,6.6-3.9,6.8c-1.8,0.1-2.9,0.4-4-1.5
			C70.7,290.6,70.6,288.4,71.8,287.1z M67.7,302.2c0.6-0.5,0.8-0.9,1.9-1.2c2.6,0,3.8,1.3,3.8,3.8c-0.5,1.8-1.2,2.5-2.6,2.6
			C67.6,307.6,65.7,304.5,67.7,302.2z M67,321.9c-3,3.1-1.3,8.3,1.4,10.6c0.1,0.1,0.2,0.6,0.2,0.7c-4.1,0.5-6.3-8.5-2.6-13
			c-1.7-2.1-2.6-4.8-1.3-7c0.8-1.3,1.5-2.3,3.5-2.6c2.5,0.1,4.2,1.2,4.8,3.1c3.1-1.6,4.7-4.6,7-7c-1.6-1.3-4.5-2.5-3.4-5.8
			c0.9-3.8,4.1-4.1,6.7-3.4c0.7-5.2-0.2-10.3-1.4-13.7c2.2,1.6,3.3,5,3.6,8.2C86.9,310.6,74,314.5,67,321.9z M85.9,279.4l-0.5,0.5
			c-0.1-0.1-0.2-0.2-0.2-0.2c1.1-5.9,2.6-9.1,7.9-11c0,0,1.5-0.3,2.9,0.7c0,0,0.3,0.6-0.2,1.2C95.8,270.5,89.8,276.5,85.9,279.4z
			 M94.3,302.5l-0.2,0.2v-5.5c2.7-2.5,5.4-5,8.2-7.4c4.7-5.8,9.6-12.2,12.5-19.7C112.2,287.9,99.7,296.9,94.3,302.5z M94.6,294.5
			c-0.2,0.1-0.5,0.2-0.7,0.2c-0.2-1.3-0.5-2.6-0.7-3.8c9.9-8,18.6-18,21.1-33.4C117.5,271.3,99.6,289.2,94.6,294.5z M111.8,259
			c0,0-1.2,9.1-5.5,14.9c0,0-3.5,4.7-6.2,8.2c0,0-5.7,5.4-7.7,7c0,0-0.8-1.4-1.4-2.4l-0.2-0.2c17.1-11.7,16.9-20.7,22.3-41.8
			C114.1,249.6,112.8,255.4,111.8,259z M111.6,240.1c1.1,0.5-2.2,10.6-2.9,13.2c-4.1,15.2-7.7,23.8-19,31.4
			c-0.4-0.4-0.8-0.8-1.2-1.2c-0.1-0.2-0.2-0.3-0.2-0.5c4.3-4.2,8.6-8.5,13-12.7C106.7,261.5,109,246.6,111.6,240.1z M106.3,243.9
			c0,0,0.1,1.4-0.5,3.4c0,0-1.9,6.1-2.6,9.8c-0.5-4.9-1-9.8-1.4-14.6c-1.5-10.9-4.8-23.5-4.8-23.5c-3.9-17.8-12.7-19-12.7-19
			c-6.8-1.9-11.8,2.4-11.8,2.4c-1.2,1.2-2.9,2.2-2.9,2.2c-2,0.5-2.6-0.5-2.9-1.2c0.1-2,1.4-2.8,1.9-3.6c6.8-5.6,12.4-4.8,20.2-2.4
			H89c-4-12.9-7.2-21.9-14.2-34.3c-2.1-3.8-2.9-7.8-5.8-10.8c0.2-2,1.5-2.6,3.6-2.6l0.2,0.2c4.1,6.8,7.7,13.6,10.8,21.4
			c0.2,0.1,0.3,0.2,0.5,0.2c12.9-23.5-8-33.9-21.4-16.1c-5,1-3.5-4.6-1.4-6.2c4.8-3.8,7.9-6.2,15.1-7.7c9.4,0.1,15.1,5.7,15.6,18.5
			c0.2,6.1-5.8,15.1-4.6,20.2c2.1,4.7,3.9,9.9,6,14.6c0,0,6.7,15.2,9.1,28.8C102.7,223.5,106,240.9,106.3,243.9z M75.1,147.9
			c12.6-0.4,13.1,11.3,9.6,19c-0.1,0.2-0.6,0.2-1-0.2c-2.2-3.3-7-13.8-9.4-17.8C74.2,148,75,148,75.1,147.9z M130.8,138.3
			c0,0-0.8-2-1.4-4.8c0,0-0.1-0.7,0.5-1.1c0,0,1-0.9,1.9,0.1c0,0,0.9,1.1,2.2,4.6c0,0,4.2,11.7,6.2,19.9
			C140.2,157,133,144.7,130.8,138.3z M151.9,164c1.4,3.2,2.7,6.4,4.1,9.6c-6.9-4.1-10.1-26.9-14.6-37.4
			C148.2,141.4,147.8,154,151.9,164z M140,139c2.8,8.5,6.8,22.3,9.5,28.9c-3-3-5.1-4.5-7-10c-1.9-5.6-5.4-18.5-8.9-26
			C135.9,132.2,137.7,132,140,139z M136.8,130.6c-9.4-2.9-14.2,2-15.8,8.4c-3.4,13.5,2.6,30.9,1,43.7c-3.1,24-16.6,34.1-16.6,34.1
			c-1.2,0.9-1.3,0.6-1.7,0.5c-0.3-1.7-0.6-3.4-1-5c7-5.6,13.4-24.2,12.2-40.8c-1-13.8-2.3-30.1,4.6-38.6c2.4-3,5-3.8,9.1-5
			C132,127.7,135,128.9,136.8,130.6z M126,126.5c-8.6,3.8-11.2,7.8-13.7,20.2c-1.2,5.8,0.4,14,0.7,19.2c1.1,17.1-3.5,38.1-10.8,44.2
			c-0.3-0.7-0.6-1.4-1-2.2c17.7-29.9,0.4-59.5,13.9-76.6c2.1-2.6,5.6-3.6,8.9-5C124.7,126.4,125.4,126.5,126,126.5z M180.6,74.1
			c-2.3-1.1-6.4-4.3-15.1-2.7c-21.7,3.9-42.1,26.3-46.5,51.5c-1.7,0.2-3.1,0.6-4.6,1.3c5.3-25.4,18.8-43.7,36.7-53
			c4.3-2.2,8.4-3,13.9-3.8c8.1-0.2,20.5,0.3,21.1,7.4C185.7,75.7,184.4,77.8,180.6,74.1z M187.2,70.1c-0.1,0.3-0.2,0.6-0.2,1
			c-2.9-3.1-6.8-5-11.8-6c-31.4-6.3-59.8,30.7-62.9,59.8c-2,1.4-3.9,2.3-6,4.3c-0.1-7.2,3-16.6,4.6-22.1c6-21.3,20.4-37,39.8-44.9
			c4.1-1,8.2-2.1,12.2-3.1c2.9-0.5,6.2-0.4,9.8,0C177.8,60,189.1,64.3,187.2,70.1z M188.2,66.3c-9.4-14.2-34.2-8.8-46.3-1.7
			c-16.8,9.8-28.4,27.3-34.6,47.3c-1.1,6.8-2.6,11.9-3.4,20.4c-4,4.2-6.2,14.5-6.5,25.7c-3-14.2,0-30.6,2.6-40.3
			c7.5-27.4,21.1-50.7,45.6-61c4.7-2,8.4-3.2,15.4-4.1C171,51.6,190.8,56.8,188.2,66.3z"/>
	</g>
</g>
<g>
	<g>
		<path class="st1" d="M109.6,64.8c-5.9-0.1-9-3-10.1-7.9c-4.9,0-8.8-2.6-9.8-6.5c2.2-1.9,3.9-3,5-5.8c3.2-9,5.2-15.8,12.5-17.8
			c0-0.1,0-0.2,0-0.2c-0.9-0.4-2,0-2.5-0.1c-6.2,1.9-6,3.2-9,7.3c-4.2,5.6-4.7,19.7-16.5,17.3c0,0-1.1,4.5,4.7,6.2
			c0,0,1,0.1,1.6,0.5c0,0,0.6,0.3,0.8,0.9c0,0,0.1,1.6,1.8,2.9c0,0,0.8,0.7,2.1,1c0,0,0.5,0.1,0.9,0.4c0,0,1.7,2.1,4.8,2.6
			c0,0,1.5,3.7,4.8,4.8c0,0,1.2,0.4,1.9,0.5c0,0,0.9,2.6,3.9,1.6c0,0-0.3-0.6-0.6-1.5C105.3,68.3,107.2,66.4,109.6,64.8z
			 M36.8,136.1c-1.9-1.7-3.2-3.2-3.6-6.2c-0.9-7,2-12-2.2-15.6C33.7,123,27.8,135.8,36.8,136.1z M34.4,253c0.2,0,3.2,7.7,10.8,5.8
			c1.5,4.2,3.3,5.7,7.2,7c0.2,0,0.3,0,0.5,0c0,0,0.6-0.2,0-1c0,0-4.3-2.9-5-13.2c-6.6,0-9.9-4.1-11-9.6c-7.1,0.1-12.2-4-11.5-9.8
			c0,0,0-1.4-0.5-1.7c0,0-0.5,0.8-1.5,1.2c0,0-2.7,1.1-5.9,0.1c0,0-2.7-0.9-4.4-1.8c0,0-0.8-0.5-1.5-0.7c-1.1-0.4-1.3,0.6-1.3,0.6
			c-0.1,0.7,0.7,1.2,0.7,1.2c3.1,2.1,4.7,3,9.6,3.1c0.2,0.2,0.3,0.5,0.5,0.7c-1,0.6-1.7,1.1-1.9,2.2c-0.5,5.1,4.9,4.2,8.6,6.5
			c2.8,1.7,2.4,4.9,3.6,8.2C31.9,253,32.5,253,34.4,253z M99.5,402.5c0.8,4.5-1.7,7.2-1.7,7.2c-1.8,2.9-5.3,2.6-5.3,2.6
			c-0.7,1.2-3.4,3.6-3.4,3.6c-3.6,2.3-6.7,1.2-6.7,1.2c-2.4-1.3-0.8-6.8-1.7-9.6c-1.5-4.9-4.5-6.2-6.7-7.2c0,0,5.1,3.5,5.3,10.1
			c0,0,1,4.5-3.4,7.9c0,0-1.6,1.2-4.1,2.4c0,0.1,0,0.2,0,0.2c2.8,0.9,5.8-1,7.4-2.2c1.1,0.9,3.4,1.2,3.4,1.2
			c5.9,0.5,9.6-3.6,9.6-3.6c0.8-1.1,1.9-1.2,1.9-1.2c3.6-1.2,6-4.3,6-4.3c1.4-2.1,2.3-4.8,1.9-6.7c0,0,3.9-2.7,2.6-6.2
			C104,400,101.7,401.9,99.5,402.5z M10.9,398.4c-6.4,10.3,4.2,14.3,0.5,24.5C17.7,416.9,9,407.6,10.9,398.4z M67.1,331.1
			c-0.8-1-1.2-1.8-1.2-1.8c-1.8-4,0-8,0-8c0.3-0.6,0.2-0.9,0.2-0.9c0-0.3-0.3-0.4-0.4-0.4c-0.2,0-0.4,0.2-0.4,0.2
			c-0.5,0.7-1.3,1.2-1.3,1.2c-3.6,1.9-7.7-1.2-7.7-1.2c-4.5-2.5-5-6.7-5-6.7c-2.7,2.9-7.4,0.7-7.4,0.7c-3.3-1.2-4.8-4.8-4.8-4.8
			c-1.1-3.8-1.9-4.6-1.9-4.6c-0.7-0.6-3.6-1.4-3.6-1.4c-1-0.3-1.9-1.2-1.9-1.2c-0.4-0.2-0.5,0-0.5,0c-0.2,0.2,0,0.5,0,0.5
			c0.7,0.9,2.9,2.2,2.9,2.2c1.9,1,2.6,2.4,2.6,2.4c0.7,1.7,1.4,3.6,1.4,3.6c1.7,3.2,3.8,4.6,3.8,4.6c1.6,1,2.2,1.9,2.2,1.9
			c1.5,2.4,3.1,2.9,3.1,2.9c1.2,0.3,2.4-0.7,2.4-0.7c0.7,1.4,2.2,2.9,2.2,2.9c4.4,4.7,9.8,3.1,9.8,3.1c0.1,4.5,1.9,6.5,3.7,7.3
			c2.2,1,3.8,0.3,3.8,0.3C67.9,332,67.7,331.8,67.1,331.1z"/>
	</g>
</g>
</svg>
