<!-- Generator: Adobe Illustrator 19.2.0, SVG Export Plug-In  -->
<svg version="1.1"
	 xmlns="http://www.w3.org/2000/svg" xmlns:xlink="http://www.w3.org/1999/xlink" xmlns:a="http://ns.adobe.com/AdobeSVGViewerExtensions/3.0/"
	 x="0px" y="0px" width="182.6px" height="221px" viewBox="0 0 182.6 221" style="enable-background:new 0 0 182.6 221;"
	 xml:space="preserve">
<style type="text/css">
	.st0{fill:#FFFFFF;}
</style>
<defs>
</defs>
<path class="st0" d="M146.8,61.9c2-0.3,3.1-1.9,3.1-3.1c0-1.2-1.4-2.6-3.1-2.8c-1.9-0.2-3.9,1.4-3.8,3.1
	C143.1,60.9,144.8,62.2,146.8,61.9"/>
<path class="st0" d="M132.1,36.4c0.3,5.8-2.6,12.7-2.6,12.7s-1,0.3-2.8,1.5c1.6-3.4,3.1-8.8,2.9-14.4c-0.2-5.6-2.3-9.9-3.3-12.2
	c0,0,1.9,0.5,3.4,0C130.9,26.6,131.8,30.6,132.1,36.4 M135.4,36.7c0-0.3,0-0.6,0-0.8C135.5,36,135.5,36.3,135.4,36.7 M141,50.8
	c3.1,0.2,9,3,9,3s1.4,6.9,7.8,6.2c6.3-0.7,7.4-5.9,6.6-8.1c1.2-0.7,2.7-1.6,3.1-2c0,0,3,3.1,2.6,7c-0.4,3.9-3.6,10.4-8.3,12.4
	c-4.7,2-11.7,1.7-16.5,0.9c-4.8-0.8-12.8-2.5-19.5-0.2C119,72,117,73.6,115.1,76c1-5.5,1-7.9,2.3-11.3c1.4-3.4,3.7-6.2,6-8.9
	c1,2.5,3,4.7,6.2,3.6c3.2-1.1,6.2-3.3,4.8-7.6C135.8,51.2,137.9,50.5,141,50.8 M134,81.2c0.2,1.5-1.6,3.3-3.7,3.3
	c-2.1,0-3.4-1.6-3.4-3.3c0-1.7,1.5-3.5,3.9-3.3C132.2,78,133.8,79.7,134,81.2 M123.4,81.1c0.1,1.4-0.9,3.7-3.5,3.3
	c-2.6-0.3-2.9-2.1-2.8-3.8c0.1-1,0.8-2.3,2.7-2.8C121.7,77.5,123.3,79.8,123.4,81.1 M129.3,90.5c0,1.5-1.3,3.1-3.1,3.5
	c-1.8,0.5-3.3-1.3-3.5-3.1c-0.3-1.8,1.8-3.6,3.6-3.6C127.5,87.4,129.2,89,129.3,90.5 M109.2,84.6c-1.3,1.5-3.4,3.4-5.8,6.6
	c-1.9,2.5-3.1,5.3-4,7.1c-3.2,2.9-11.5,10-17.7,14.7c-8,6.1-25,17.5-35.1,26c-10.7,9.1-18.5,18.5-21.9,27.6
	c-3.7,3.2-7.1,6.6-10.1,10.5c0.4-3.1,4.1-10.1,8.4-18.4c5.2-9.9,13.7-16.9,26.6-28c12.9-11.1,34.4-27.7,47.9-41.4
	c13.1-13.3,13.6-22.7,15.3-28c1.7-5.3,2.7-15.6-0.6-27.7c-3-10.8-7.1-15.8-12.8-19.4c-3.1-2-7.5-2.9-9.1-3c3.1-1.6,8-2,10.8-1.2
	c2.3,0.6,4.6,2.8,7.1,6.2c3.9,5.1,7.4,11.9,8.4,20.3c1,8,1.4,15,0.2,21.3c-0.9,3.1-2.2,5.5-3.1,9.6C113.2,72,111.9,79,111,81
	C110.5,82.4,109.8,83.9,109.2,84.6 M111.5,90.6c-1.5,1.4-4.4,4.3-6.6,8.2c-2.8,5-4.1,11.1-4.6,15.2c-0.3,2.7-1.4,9.7-2.4,14
	c-1.1,4.9-1.9,6.8-1.9,6.8s0.9-0.6,3-1c3.2-0.7,6.8,0.3,6.8,0.3s0.5,1.5-1,1.3c-1.5-0.2-5-0.5-7.3,0.8c-2.3,1.3-4.1,2.9-5.4,5.1
	c-1.3,2.3-4,7.3-11.7,12.6c-7.7,5.3-17.5,9.1-26.4,9.8c-10.8,0.9-15.8,0.9-17.6,0.5c-1.4-0.3-2.4-0.3-2.2-0.4
	c0.6-0.6,1.7-1.7,3.2-2.6c2.1,0.1,6,0.3,10.2,0c6.3-0.4,17.7-0.9,29.5-9.4c11.9-8.5,14.5-14.2,16.5-21.2c2.8-9.9,4.1-16.5,4.8-22.1
	c1-7.1,3.2-10.9,6.5-15.3c2.2-2.9,5-5.3,7.2-6.7C112.2,87.6,112.2,87.7,111.5,90.6 M114.2,97.9c0,0-6,9.7-12.3,16.3
	c0.4-0.6,1.5-6.2,1.8-8.3c1.1-1.3,3.6-4.8,5.3-7.2c2-2.8,3.5-5.3,3.5-5.1C113.7,97.3,114.2,97.9,114.2,97.9 M92.4,127.2
	c-0.8,3-2.2,6.6-3.7,9.3c-3.4,5.9-10.2,11.8-18,16c-7.9,4.2-15.1,5.4-20.3,5.7c-3.2,0.2-6.7,0.3-8.9,0.3c4.4-2.9,9.2-5.9,15.9-9.2
	C67.6,144.2,81.1,136.9,92.4,127.2 M74.2,136.5c-8,4.4-20.3,11.3-28.1,15.4c6.7-6.1,14.6-12.6,21.6-17.4c7.6-5.2,15.6-9.3,19.7-12.5
	c3.8-3,6.2-5.6,7.2-6.6c-0.1,0.4-0.6,1.8-0.7,2.2c-0.3,1.7-0.4,2.7-0.7,4.6C87.9,127,81.4,132.5,74.2,136.5 M29.2,163
	c0.3-1.1,2.8-5.2,5.3-8.4c4.5-5.8,10.2-11.2,18-17.2c7.8-6,20.2-14.3,29.1-21.2c6.7-5.2,13.1-10.9,15.5-13.3
	c-0.9,2.6-1.6,5.6-2.1,8.9c-2,2.4-6.9,7.5-15.6,12.7c-10.7,6.4-17.4,11.1-25,17.4c-7.6,6.3-12.1,11.1-13,12.5
	C40,155.4,32.9,159.6,29.2,163 M20.7,178.6c4.4-2.9,11.9-5.1,19.5-6c6.3-0.7,11.1,0.9,12.3,1.3c1.2,0.4,1.4,0,2-1.3
	c0.7-1.3,2.4-3.6,4.8-4.5c2.4-0.8,5-1.5,7.3-0.9c2.3,0.5,5.1,1.8,7,1.9c1.9,0.1,3.5,0.1,3.6,1.1c0.1,1-1.1,1.7-2.7,2.1
	c-1.6,0.4-3.1,0.4-3.6,0.7c1.2,0.7,2.3,2.1,1.6,3.4c-0.7,1.3-2.2,2.3-3.4,2.2c-1.3-0.1-1.9-0.8-2.4-0.4c-0.5,0.4-0.1,2.2-2,2.6
	c-1.9,0.4-3.8,0-4.4-1.1c-0.6-1.1-0.4-3-2-4.1c-1.6-1-3.6-0.3-3.6-0.3s1.7,1.4,1.9,3c0.3,1.6,1.3,3.9,3.5,4.9c2.2,1,5,0.7,6.3,1
	c1.3,0.4,2.8,1.6,2.4,2.6c-0.4,1.1-1.5,1.7-3,1.6c-1.5-0.1-1,0.7-0.7,1.2c0.3,0.5,0.6,1.7-0.6,2.6c-1.3,0.9-2.3,0.7-2.3,0.7
	s1.1-1.7-0.7-3.4c-1.8-1.6-3.1-2-4.2-2.5s-2.9-1.7-4.4-4.6c-1.5-2.8-1.3-4-0.7-5.3c0.6-1.3,0.2-2.2-0.9-2.3
	c-1.1-0.1-5.7-0.8-8.4-0.8c-2.7,0-7.3,0.1-11,1.2c-3.6,1-6.8,2.2-10.8,4.6c-4,2.4-5.6,3.6-5.6,3.6S16.8,181.2,20.7,178.6 M4.6,194.5
	c0,0,2.2-11.2,5-19.3c2.8-8,5-14.9,11.8-24.6c6.8-9.7,11.6-15.5,20.1-23.3c8.5-7.7,32.1-25.9,42.9-36.9c10.8-11,18.2-19.7,21.4-32.6
	c3.2-12.9,2.4-24.1-1.7-30.6c-4-6.5-8.9-9.7-12.5-10.4c-3.7-0.8-8.4,0.2-10.3,0.8c1.5-1.3,3-2.9,5.5-4c2.6-0.3,7.9,0.9,11.2,2.7
	c4,2.1,8.1,6.5,10.5,12.7c2.3,6.3,4.3,17.1,3.5,25.1c-0.9,8-4.4,18.2-9.5,25.7c-5.1,7.6-17.2,18.1-27.5,27s-22.9,19-32.6,27.1
	c-9.7,8.2-14.7,13.6-19.2,20.8c-4.9,7.9-7.4,13.5-8.8,17.5c-0.8,2.3-2,6.6-1.9,7.8C7.5,188.5,4.6,194.5,4.6,194.5 M54.9,104.8
	c0.1-2.2-0.5-5.1-0.6-5.4c0,0,0,0,0,0s0,0,0,0c0.1,0.1,0.4,0.2,2.6-0.3c-0.1,0.7,0.4,3.4,0,6.4c-0.1,0.7-0.3,1.3-0.6,1.8
	c-0.8,0.7-1.3,1.1-2.2,1.9C54.2,108.8,54.9,107.2,54.9,104.8 M107.1,11.3c5.6,1.7,9,6.4,9,6.4s0.3,0.6,1.2,2.2
	c1.4,2.4,2.7,6,3.8,9.2c1.4,4.1,1.7,7.7,2.3,13.9c0.8,9.1-1,10.2-3.6,12.9c-0.1,0.1,0.9-10.4-0.6-19.1c-1.8-10.8-3.9-14.3-6.5-18.6
	C111.5,16.1,108.5,12.7,107.1,11.3 M123.1,24c1.3,1.4,2.3,2.7,3.2,6.1c0.9,3.4,1.1,7.5-0.8,16.6c1-11.9-5.3-25-5.3-25
	S121.8,22.7,123.1,24 M134.6,1.1c-1.1,0.2-1.6,1.7-1.6,2.6c0,0-1.8-2.5-4.3-2.9c-2.6-0.4-3.7,1.1-3.7,1.1s-2.2-2.4-4.8-1.7
	c-2.7,0.7-4.4,2.4-4.5,4.5c-0.2,2.1-0.1,7.8-0.1,7.8s-5.9-3.8-11.1-4.9c-9.5-2-17.5,1.8-22.5,6.5c-4.9,4.8-7.5,10.2-7.3,11.8
	c0,0,2.8-4.5,6.8-6.1c4-1.6,11.2-2.4,17.1,4.6c5.9,7,6.4,14.9,5.6,23.2c-0.7,7.2-3.7,19-15,31.4c-6,6.6-16.1,14.4-26,22.6
	c0,0-2,1.7-4.8,4.1c0.2-1.9,0.6-5.1,0.3-7.3c1.9-0.4,4.5-1.2,8-3.9c3.5-2.7,5.9-7.2,5.4-11.8c-0.5-4.5,0.7-9.5,3.2-12.2
	c2.6-2.9,5-5.1,5-5.1s-0.5-0.8-1.7-0.7c-1.3,0.1-1.9-1-3.9-1c-1.9,0-2.2-1.2-2.6-2.2c-0.4-1-1.2-5.4-5.9-5.8
	c-4.6-0.5-7.1,3.1-7.1,3.1s-1.4-2.2-3.9-3.2c-2.5-0.9-5.7-1-7.8,0.5c-2.1,1.5-2.4,4.2-2.4,4.2s-1.2-1.3-2.6-2.1
	c-1.4-0.8-5.9-0.6-7.1-0.8c-1.2-0.2-2-1-2.5-0.4c-0.5,0.5-0.7,1.3-0.1,2.6c0.6,1.3,2,3.8,2.3,8.2c0.3,4.4,0,9.5,0.8,15.3
	c0.9,5.8,4.6,10.7,8.3,13.3c3.6,2.6,7.8,2.5,7.8,2.5s0.8,2.3,1.1,5.8c0.2,2.3-0.8,5.2-1.5,6.8c-5.3,4.6-10.9,10.1-12.9,12.4
	c-13.9,15.4-24,29.6-31.5,52.5C-0.3,199.4,0,217.5,0,219.2c0.1,1.6,0.2,1.8,0.9,1.8c0.7,0,0.9-0.6,1.1-1.7c0.2-1.1,0.7-9.3,3.3-16.5
	c1.5-4.1,3.8-9.2,6.3-13.8c2.5-3.3,6-5.5,10.4-8.1c6-3.5,13.1-4.7,19.1-5.4c6-0.7,10.1,0.9,10.1,0.9c-1.5,2.6-0.6,5.8,1.4,8.7
	c2,2.9,5.1,3.7,6.3,4.1c1.2,0.4,2.2,2,1.9,3.3c-0.3,1.2-0.2,1.6,0.9,2c1.2,0.4,3-0.1,4.2-1.5c1.2-1.4,0.6-3.2,0.6-3.2
	s1.2,0.2,2.3-0.4c1.2-0.6,2.3-1.4,2.6-4.1c1.1-0.2,2.5-0.2,3.4-2.3c0.8-2.2-0.9-3.4-0.9-3.4s2.4-1.2,2.8-3.1
	c0.4-1.9-0.9-3.2-0.9-3.2s2.9-1.2,2.9-2.7c0.1-1.5-1.6-2.5-3.6-2.4c-2,0.1-3.5-0.8-7.1-1.7c-3.7-0.9-7.3-0.5-10.6,1.4
	c-3.3,1.9-4.4,5-4.4,5s-2-0.8-7.9-1.2c-5.9-0.4-12.7,1-18.3,2.8c-3.2,1-5.6,2.4-7.1,3.5c3-3.5,6.9-7.7,10.7-11.1
	c1.7,0.1,4.8,0.3,6.5,0.3c2.9,0,13.9-0.1,23.9-2.4c10-2.3,16.7-5,22.5-9.7c5.8-4.7,8.6-8.2,10.2-11.7c2.1-4.8,5.9-6.5,8.2-6.2
	c2.3,0.3,2.9,0.5,2.9,0.5s0,2.6,2.5,5.7c2.5,3.1,6.7,6.8,7.6,8c1,1.1,3,1.4,4.4,0.4c1.4-0.9,1.3-2.4,1-3c0,0,2,1.1,4.1-1.2
	c2.1-2.2-0.4-4.8-0.4-4.8s1.4,0.5,3.5-0.7c2.1-1.3,2.3-2.9,2.1-3.8c1.5-1,1.1-2.4,1.1-2.4s-2.3-1-4.3-2.3c-2-1.4-4.8-4.2-7.8-5
	c-3-0.8-4.8-0.2-6.1,0.1c-4.5,1-6,3.9-6,3.9s-2.7-0.9-4.4-0.8c-1.7,0.1-3.3,0.4-3.3,0.4s1.2-4.2,1.6-7.3c0.2-1.6,0.9-4.4,1.1-6.2
	c5-6,12.5-15.7,14.1-18.6c1.5,3.7,6.5,7.5,11.6,9.1c5.1,1.6,8.8,1.3,15.4-0.6c6.5-1.9,12.2-2.8,16.1-1.7c4,1.1,6.5,2.7,8.6,3.8
	c2.1,1,3.8,1.3,5.7-0.9c1.9-2.2,3.2-4.4,2.6-7.9c-0.6-3.5-1.4-4.5-1.4-4.5s2.9-0.5,4.4-3.6c1.4-3,0.3-6,0.3-6s4.5-3.3,3.7-7.7
	c-0.8-4.4-3.9-7.7-5.5-8.6c-1.6-0.9-1.9-1.2-1.9-1.2s2.1-3.5,1.3-6.9c-0.8-3.4-3.5-6.2-3.5-6.2s0-3.5-1.8-6.3
	c-1.8-2.7-2.6-4.2-3.4-3.8c-0.8,0.5-2.2,1.3-5.5,2.6c-3.3,1.3-5.7,1.5-9.9-0.1c-5.4-2-10.6-2.9-15.2-2.2c-2.1,0.3-4.2,0.7-4.2,0.7
	c1.2-2.6,1.9-10.2,2.3-13c0.8,4.5,4.4,7.4,7.5,7.7c3.4,0.3,8.2-1.7,9-5.9c0.8-4.1-0.4-8.1-5-9.7c-4.6-1.6-7.4-0.2-9.2,1.1
	c-1.7,1.2-2.4,2.8-2.8,3c-0.4-4.5-1.8-7.4-1.8-7.4s3.3-0.5,6.8-6.2c3.5-5.7,0.8-10.9-0.3-13.3C138.4,2.3,135.6,1,134.6,1.1"/>
<path d="M117.3,147.3c0.5,1.3,0.5,2.1,0.4,2.5c-0.1,0.5,0.5,0.5,0.9-0.2c0.4-0.7,0.3-1.6,0-2.3c-0.3-0.9-0.5-1.2,0-1.4
	c0.5-0.2,1,0.3,2.3,0.8c1.3,0.5,2.1,0,2.4-0.8c0.3-0.8,0.3-1.6-0.2-2.8c-0.5-1.2-0.8-1.8-0.4-2.1c0.9-0.8,1.6,0.2,3.2-0.5
	c1.6-0.7,1.9-1.3,1.9-1.9c0-0.6-0.1-0.9-0.8-0.3c-0.7,0.6-1.8,0.9-2.8,0.6c-1.1-0.3-2.4-1.1-2.4-1.1s-0.1,2.4-1.3,4.4
	c-1.2,2-2.1,2.4-3.2,2.8c-1.1,0.4-1.6,0.5-1.1,1C116.6,146.5,117,146.5,117.3,147.3"/>
<path d="M35.9,60c0,0,0.9,2.4,2.4,2.9c1.5,0.5,3.6,0.7,4.1,3.9c0.5,3.2-0.1,10,0.4,13.2c0.5,3.2,1.8,5.4,3,6.7
	c1.2,1.3,3.4,2.8,3.4,2.8s-3.4-3.8-4.1-7.3c-0.7-3.5-0.5-6.9-0.2-9.5c0.3-2.7-0.1-5.7-0.1-5.7s2-2.8,5.1-2.8c3.2-0.1,4.8,2,7.2,5
	c0,0,1.3-4.1,4.6-3.9c3.3,0.2,4.4,1.2,6.8,4.4c1.7-1.7,3.4-2.9,6.3-3.3c-2.2-1.2-4.7-0.4-5.5,0c-1.3-1.4-3.4-3.7-5.9-3.7
	c-2.5-0.1-4.6,1.2-6.2,3.3c-2-1.8-4-3.8-6.4-3.8c-2.4-0.1-4.3,0.8-6.2,2.7c0,0-0.8-1.8-2.8-2.3c-2.1-0.6-3.7-0.4-4.6-1.2
	C36.5,60.2,35.9,60,35.9,60"/>
<path d="M128,3.6c1.5,0.3,2.4,1.4,3.5,2.7c1.1,1.4,1.3,1.4,1.9,1.2c0.6-0.2,1.2-0.4,1.2,0.6c0,1,0,2.1-1.8,3.7
	c-1.8,1.6-3.2-0.2-3.7-1c-0.5-0.8-1.2-1.9-2.5-2.1c-1.2-0.2-2.3,0.5-3.2,1c-0.9,0.5-1.6-0.4-2.4-1.5c-0.8-1.1-0.9-3-0.8-3.9
	c0.1-0.8,0.6-1.4,1.4-1.2c0.8,0.2,1.6,0.8,2.4,1.9C125.1,4.1,126.7,3.3,128,3.6"/>
<path d="M114.7,86.9c0,0-0.2,4.3,4.1,8.8c4.3,4.6,8.7,6.5,15.5,6.4c6.8,0,11.9-3.9,16.4-4.5c4.5-0.6,11.9,0.2,14.9,3.6
	c3.1,3.4,3.3,4.7,3.5,5.8c0.2,1,0.5,1.7,1.9,1c1.4-0.7,3.1-4,2.4-6.2c-0.7-2.2,0.1-2.7-0.6-4c-0.8-1.3-0.8-1.4,0.1-1.8
	c0.8-0.3,3.1-2.2,3.8-4.8c0.6-2.6-0.2-5.2-0.2-5.2s4.4-1.9,4.1-6.3c-0.3-4.4-4.6-7.8-6.5-8.4c-1.9-0.5-2.7-0.8-2.1-1.9
	c0.7-1.1,1.7-3.4,1.5-5.6c-0.2-2.2-1.5-4.5-1.5-4.5s0.3,1.8-0.7,4.4c-0.7,1.7-0.5,2.7-1.3,4c-0.4,0.6-0.9,1.6-1.1,2
	c-0.2,0.3-0.5,0.6-0.2,0.9c0.3,0.3,0.9,1,0.8,2c-0.2,2-0.2,3.3-1.2,5.7c-1,2.4-3.5,4.2-3.5,4.2s2.2,2.5,3,5.2
	c0.9,3.2,0.8,7.5,0.3,9.2c-0.5,1.7-1.1,2-2.4,1.1c-1.2-0.9-4.5-2.3-7.4-2.5c-2.8-0.2-8-0.4-11.2,1c-3.2,1.4-7.4,3-12.6,2.7
	c-5.1-0.3-11-2.5-14-5.3C117.3,91.3,114.7,86.9,114.7,86.9"/>
</svg>
