<?xml version="1.0" encoding="utf-8"?>
<!-- Generator: Adobe Illustrator 16.0.0, SVG Export Plug-In . SVG Version: 6.00 Build 0)  -->
<!DOCTYPE svg PUBLIC "-//W3C//DTD SVG 1.1//EN" "http://www.w3.org/Graphics/SVG/1.1/DTD/svg11.dtd">
<svg version="1.1" id="Livello_1" xmlns="http://www.w3.org/2000/svg" xmlns:xlink="http://www.w3.org/1999/xlink" x="0px" y="0px"
	 width="75.988px" height="29px" viewBox="0 0 75.988 29" enable-background="new 0 0 75.988 29" xml:space="preserve">
<path fill="#D41117" d="M67.274,4c2,0,3,1,3,3v16c0,2-1,2-3,2h-60c-2,0-3,0-3-2V7c0-2,1-3,3-3H67.274z"/>
<polygon fill="#FFFFFF" points="62.444,18.289 62.444,11.957 66.199,15.089 "/>
<g>
	<path fill="#FFFFFF" d="M11.241,7.915h2.641c0.456,0,0.823,0.054,1.103,0.161c0.278,0.108,0.487,0.264,0.627,0.466
		c0.139,0.202,0.221,0.443,0.247,0.722c0.024,0.279,0.012,0.589-0.038,0.932l-0.438,3.153c-0.102,0.723-0.352,1.279-0.75,1.672
		c-0.398,0.394-1.022,0.589-1.872,0.589h-0.836l-0.778,5.605H9.379L11.241,7.915z M12.913,13.975c0.241,0,0.415-0.057,0.522-0.171
		c0.106-0.114,0.174-0.278,0.199-0.494l0.419-3.04c0.075-0.443-0.108-0.665-0.552-0.665H12.76l-0.607,4.37H12.913z"/>
	<path fill="#FFFFFF" d="M19.01,13.177c-0.063-0.013-0.116-0.019-0.161-0.019s-0.093,0-0.143,0c-0.406,0-0.7,0.117-0.884,0.352
		s-0.301,0.535-0.352,0.902l-0.95,6.802h-1.672l1.33-9.5h1.045l0.247,0.475c0.215-0.253,0.455-0.446,0.722-0.579
		c0.266-0.133,0.621-0.199,1.063-0.199L19.01,13.177z"/>
	<path fill="#FFFFFF" d="M23.078,17.947l-0.171,1.216c-0.051,0.329-0.127,0.633-0.228,0.912c-0.103,0.278-0.255,0.516-0.456,0.712
		c-0.203,0.196-0.456,0.349-0.761,0.456c-0.304,0.107-0.678,0.162-1.121,0.162c-0.456,0-0.822-0.055-1.102-0.162
		s-0.491-0.26-0.637-0.456c-0.146-0.196-0.234-0.434-0.267-0.712c-0.031-0.279-0.021-0.583,0.029-0.912l0.76-5.396
		c0.038-0.329,0.114-0.633,0.229-0.912c0.113-0.278,0.271-0.516,0.475-0.712c0.202-0.196,0.459-0.349,0.771-0.456
		c0.31-0.107,0.687-0.162,1.13-0.162c0.431,0,0.785,0.055,1.063,0.162c0.278,0.107,0.487,0.26,0.627,0.456
		c0.14,0.196,0.226,0.434,0.256,0.712c0.032,0.279,0.029,0.583-0.009,0.912l-0.418,2.908h-2.87l-0.36,2.545
		c-0.038,0.268-0.006,0.457,0.095,0.57c0.102,0.114,0.247,0.172,0.437,0.172c0.178,0,0.33-0.058,0.456-0.172
		c0.126-0.113,0.209-0.304,0.247-0.57l0.19-1.271L23.078,17.947L23.078,17.947z M22.033,13.729c0.038-0.278,0.006-0.475-0.095-0.589
		c-0.103-0.114-0.241-0.171-0.418-0.171c-0.406,0-0.646,0.254-0.723,0.76l-0.247,1.691h1.235L22.033,13.729z"/>
	<path fill="#FFFFFF" d="M23.286,21.216l1.33-9.5h0.969l0.267,0.494c0.392-0.456,0.912-0.685,1.558-0.685
		c0.671,0,1.115,0.178,1.33,0.532s0.271,0.912,0.171,1.672l-1.045,7.485h-1.672l1.045-7.485c0.025-0.215,0.006-0.396-0.057-0.541
		c-0.063-0.146-0.216-0.219-0.456-0.219c-0.229,0-0.399,0.07-0.514,0.209c-0.113,0.14-0.184,0.323-0.209,0.551l-1.045,7.485h-1.672
		V21.216z"/>
	<path fill="#FFFFFF" d="M30.791,21.405c-0.456,0-0.823-0.055-1.102-0.162c-0.279-0.107-0.491-0.26-0.638-0.456
		c-0.146-0.196-0.233-0.431-0.266-0.703c-0.032-0.271-0.021-0.571,0.029-0.901l0.76-5.435c0.05-0.329,0.13-0.63,0.237-0.902
		s0.263-0.507,0.466-0.703c0.202-0.196,0.459-0.349,0.77-0.456c0.311-0.107,0.688-0.162,1.131-0.162
		c0.442,0,0.804,0.055,1.082,0.162c0.278,0.107,0.491,0.26,0.638,0.456c0.145,0.196,0.236,0.431,0.274,0.703
		s0.031,0.573-0.019,0.902l-0.76,5.435c-0.052,0.33-0.13,0.631-0.237,0.901c-0.108,0.272-0.263,0.507-0.465,0.703
		c-0.203,0.196-0.459,0.349-0.771,0.456C31.611,21.351,31.234,21.405,30.791,21.405z M31,19.962c0.19,0,0.346-0.058,0.466-0.172
		c0.12-0.113,0.199-0.304,0.237-0.57l0.779-5.49c0.038-0.278,0.009-0.475-0.086-0.589c-0.096-0.114-0.237-0.171-0.428-0.171
		c-0.189,0-0.349,0.057-0.475,0.171c-0.126,0.114-0.209,0.311-0.247,0.589l-0.779,5.49c-0.037,0.268-0.006,0.457,0.096,0.57
		C30.664,19.904,30.81,19.962,31,19.962z"/>
	<path fill="#FFFFFF" d="M34.534,11.715h0.95l0.342-2.432l1.729-0.456l-0.399,2.888h1.368l-0.209,1.482h-1.368l-0.855,6.004
		c-0.075,0.507,0.102,0.761,0.532,0.761c0.14,0,0.26-0.011,0.361-0.029c0.101-0.02,0.233-0.061,0.398-0.123l-0.209,1.425
		c-0.089,0.038-0.225,0.075-0.408,0.114c-0.185,0.037-0.333,0.058-0.446,0.058c-0.444,0-0.801-0.051-1.074-0.151
		c-0.272-0.102-0.478-0.248-0.618-0.438c-0.139-0.188-0.222-0.421-0.247-0.693c-0.025-0.271-0.013-0.579,0.038-0.921l0.855-6.004
		h-0.95L34.534,11.715z"/>
	<path fill="#FFFFFF" d="M37.859,17.813c0.05-0.342,0.146-0.646,0.285-0.912c0.139-0.266,0.342-0.509,0.607-0.731
		c0.267-0.221,0.596-0.424,0.988-0.606s0.861-0.364,1.406-0.542l0.189-1.311c0.076-0.494-0.089-0.741-0.494-0.741
		c-0.215,0-0.369,0.063-0.465,0.19c-0.095,0.126-0.162,0.316-0.2,0.569l-0.075,0.514h-1.653l0.076-0.552
		c0.088-0.633,0.326-1.152,0.712-1.558c0.386-0.406,0.991-0.608,1.813-0.608c0.432,0,0.782,0.055,1.056,0.162
		c0.271,0.107,0.483,0.26,0.637,0.456c0.152,0.196,0.244,0.428,0.275,0.693c0.03,0.266,0.027,0.558-0.011,0.874l-1.045,7.505h-0.969
		l-0.266-0.475c-0.179,0.229-0.377,0.396-0.6,0.503c-0.222,0.106-0.516,0.162-0.883,0.162c-0.672,0-1.127-0.185-1.368-0.552
		c-0.239-0.367-0.31-0.924-0.209-1.672L37.859,17.813z M40.975,16.274c-0.241,0.103-0.447,0.2-0.618,0.295s-0.313,0.199-0.427,0.313
		c-0.114,0.114-0.203,0.244-0.267,0.391c-0.063,0.146-0.107,0.32-0.133,0.521l-0.171,1.141c-0.013,0.113-0.025,0.23-0.038,0.352
		s-0.006,0.23,0.019,0.333c0.025,0.103,0.076,0.185,0.152,0.247s0.19,0.096,0.342,0.096c0.253,0,0.432-0.07,0.532-0.209
		c0.101-0.141,0.171-0.33,0.209-0.57L40.975,16.274z"/>
	<path fill="#FFFFFF" d="M47.074,21.405c-0.456,0-0.823-0.055-1.102-0.162c-0.279-0.107-0.491-0.26-0.638-0.456
		c-0.146-0.196-0.233-0.431-0.266-0.703c-0.032-0.271-0.022-0.571,0.029-0.901l0.76-5.435c0.05-0.329,0.13-0.63,0.237-0.902
		s0.263-0.507,0.466-0.703c0.202-0.196,0.459-0.349,0.77-0.456c0.311-0.107,0.688-0.162,1.13-0.162c0.443,0,0.805,0.055,1.083,0.162
		c0.278,0.107,0.491,0.26,0.638,0.456c0.145,0.196,0.236,0.431,0.274,0.703s0.031,0.573-0.019,0.902l-0.761,5.435
		c-0.051,0.33-0.13,0.631-0.236,0.901c-0.108,0.272-0.264,0.507-0.465,0.703c-0.203,0.196-0.459,0.349-0.771,0.456
		C47.894,21.351,47.517,21.405,47.074,21.405z M47.283,19.962c0.19,0,0.345-0.058,0.466-0.172c0.12-0.113,0.199-0.304,0.237-0.57
		l0.779-5.49c0.038-0.278,0.009-0.475-0.086-0.589c-0.096-0.114-0.237-0.171-0.428-0.171c-0.189,0-0.349,0.057-0.475,0.171
		c-0.126,0.114-0.209,0.311-0.247,0.589l-0.779,5.49c-0.038,0.268-0.006,0.457,0.096,0.57
		C46.947,19.904,47.093,19.962,47.283,19.962z"/>
	<path fill="#FFFFFF" d="M54.218,13.177c-0.063-0.013-0.116-0.019-0.161-0.019c-0.046,0-0.093,0-0.143,0
		c-0.406,0-0.7,0.117-0.884,0.352s-0.301,0.535-0.352,0.902l-0.95,6.802h-1.672l1.329-9.5h1.046l0.247,0.475
		c0.215-0.253,0.455-0.446,0.722-0.579c0.266-0.133,0.621-0.199,1.063-0.199L54.218,13.177z"/>
	<path fill="#FFFFFF" d="M53.477,17.813c0.05-0.342,0.146-0.646,0.285-0.912c0.139-0.266,0.342-0.509,0.607-0.731
		c0.266-0.221,0.595-0.424,0.988-0.606c0.393-0.183,0.86-0.364,1.406-0.542l0.189-1.311c0.076-0.494-0.089-0.741-0.494-0.741
		c-0.215,0-0.37,0.063-0.465,0.19c-0.095,0.126-0.162,0.316-0.2,0.569l-0.076,0.514h-1.652l0.076-0.552
		c0.088-0.633,0.325-1.152,0.712-1.558c0.386-0.406,0.991-0.608,1.813-0.608c0.432,0,0.782,0.055,1.056,0.162
		c0.271,0.107,0.483,0.26,0.637,0.456c0.152,0.196,0.244,0.428,0.274,0.693c0.031,0.266,0.028,0.558-0.01,0.874l-1.045,7.505h-0.969
		l-0.266-0.475c-0.179,0.229-0.378,0.396-0.6,0.503s-0.516,0.162-0.883,0.162c-0.672,0-1.127-0.185-1.368-0.552
		c-0.24-0.367-0.31-0.924-0.209-1.672L53.477,17.813z M56.593,16.274c-0.24,0.103-0.446,0.2-0.617,0.295s-0.313,0.199-0.428,0.313
		c-0.113,0.114-0.202,0.244-0.266,0.391s-0.108,0.32-0.133,0.521l-0.171,1.141c-0.014,0.113-0.025,0.23-0.038,0.352
		c-0.014,0.121-0.006,0.23,0.019,0.333c0.025,0.103,0.076,0.185,0.152,0.247s0.189,0.096,0.342,0.096
		c0.253,0,0.431-0.07,0.532-0.209c0.101-0.141,0.171-0.33,0.209-0.57L56.593,16.274z"/>
</g>
</svg>
