<!-- Generator: Adobe Illustrator 19.2.0, SVG Export Plug-In  -->
<svg version="1.1"
	 xmlns="http://www.w3.org/2000/svg" xmlns:xlink="http://www.w3.org/1999/xlink" xmlns:a="http://ns.adobe.com/AdobeSVGViewerExtensions/3.0/"
	 x="0px" y="0px" width="148.3px" height="209.9px" viewBox="0 0 148.3 209.9" style="enable-background:new 0 0 148.3 209.9;"
	 xml:space="preserve">
<style type="text/css">
	.st0{fill:#FFFFFF;}
</style>
<defs>
</defs>
<path class="st0" d="M114.8,47.4c1.5,0,2.9,1.1,3,2.2c0.1,1.1-0.7,2.6-2.4,3.1c-1.7,0.5-3.3-0.5-3.6-2.1
	C111.5,49,113.1,47.4,114.8,47.4"/>
<path class="st0" d="M8.8,170.7c-0.2-1-0.3-2.6,0-4.7c0.6-4.2,2.7-11.1,6.2-17.8c3.6-6.7,7.1-11.9,14.9-20.2
	c7.8-8.3,17.7-18.8,26.1-27.8S74.2,80.7,78,73.4c3.8-7.3,6.4-17.5,6.3-24.7s-2.7-17.2-5.5-22.6c-2.7-5.3-7.4-9.6-11.2-11.1
	c-3.1-1.2-7.8-1-10.1-0.5c-2,1.5-2.9,2.3-4.2,3.6c1.7-0.7,5.2-1.7,8.6-1.7c3.7,0.1,8.6,2.6,12.8,8.6c3.9,5.7,6.3,16.8,4.4,28.5
	C77.6,63.6,71.5,73,63,84c-8.5,11-27.9,30.3-34.7,38.1c-6.8,7.8-10.5,13.1-15.5,22.5c-5.1,9.4-6.4,15.9-8.1,24.7
	C2.7,178.6,3,185.1,3,185.1S4.6,178.8,8.8,170.7 M15.5,171.3c3.3-2.6,6-4,9.2-5.3c3.2-1.3,7.3-1.9,9.7-2.2c2.4-0.3,7.4-0.3,8.4-0.3
	c1,0,1.5,0.7,1.1,2c-0.4,1.2-0.4,2.3,1.2,4.6c1.6,2.4,3.3,3.3,4.4,3.6c1.1,0.3,2.2,0.6,4,1.8c1.8,1.3,1,2.9,1,2.9s1,0.1,2-0.9
	c1-0.9,0.6-2,0.3-2.4c-0.3-0.4-0.8-1,0.5-1.1c1.4-0.1,2.3-0.8,2.5-1.8c0.2-1-1.2-1.9-2.4-2.1c-1.2-0.2-3.7,0.4-5.7-0.3
	c-2.1-0.7-2.9-2.9-3.3-4.3c-0.4-1.4-2.2-2.2-2.2-2.2s1.5-0.9,3-0.1c1.5,0.7,1.5,2.5,2.2,3.4c0.7,0.9,2.4,1.1,4.1,0.5
	c1.7-0.6,1.1-2.1,1.5-2.5c0.4-0.5,1,0.1,2.2,0.1c1.1,0,2.4-1,2.8-2.3c0.5-1.2-0.7-2.4-1.8-2.9c0.4-0.3,1.7-0.5,3.1-1
	c1.4-0.5,2.4-1.3,2.2-2.1c-0.2-0.9-1.6-0.7-3.3-0.6c-1.7,0.1-4.4-0.7-6.5-1c-2.1-0.2-4.4,0.6-6.4,1.6c-2,1-3.3,3.3-3.8,4.5
	c-0.5,1.2-0.5,1.6-1.7,1.3c-1.2-0.2-6.5-1-12,0.3c-6.6,1.6-13.1,4.3-16.7,7.4c-3.2,2.7-4.3,5.1-4.3,5.1S12.2,173.8,15.5,171.3
	 M18.7,156.8c2-7.3,6.4-15.3,15.2-24.3c9.2-9.4,22.3-21.1,28.8-27.4c5-4.8,10.8-11.6,13.4-14.6c0.7-1.8,1.5-3.6,2.7-6.1
	c2-4.4,4.6-6.1,5.5-7.6c0.4-0.7,0.9-2.1,1.2-3.4c0.1-4-0.5-6.8,0.6-13.3c0.6-3.7,1.9-7,3.7-9.4c0.4-5.7-0.9-11.9-2.7-18.9
	c-1.8-7.3-6.1-13.6-10.1-17.7c-2.7-2.7-6.2-4.1-8.2-4.7c-2.6,0-5.6,0.6-8.2,2.3c1.4,0,4.4-0.2,7.4,1.2c5.4,2.6,10.9,7,14.8,17.5
	c3.9,10.5,3.3,20.4,2.3,25.4c-1,4.9-1.6,14.4-10.7,26.5C64.1,96.2,46.4,113,36,124.3c-10.4,11.3-17.2,18.4-20.8,27.8
	c-3,7.9-4.5,12.3-4.5,15.1C13,163.4,15.7,160,18.7,156.8 M32,144.2c0.6-1.3,3.3-5.3,8.4-10.3c6.3-6.3,11.7-11.8,20.6-18.6
	c7.2-5.6,11.5-9.9,13-12.3c0.1-3,0.3-5.6,0.8-8c-1.9,2.3-6.4,7.7-11.8,13c-7.3,7.1-17.4,15.8-23.8,22c-6.4,6.1-10.8,11.5-14.3,17.2
	c-1.9,3.1-2.9,5.3-3,6.3C24.9,150.1,30.8,145.2,32,144.2 M73.5,112.3c0.1-1.7,0.2-3.3,0.3-4.8c0-0.3,0-0.7,0.1-1
	c-0.8,1-2.5,3-5.8,5.9c-3.8,3.4-9.1,7.2-15.3,12.6c-5.8,5-13.2,11.8-17.2,17.3c6.3-4.9,16-11.2,22.7-16
	C64.2,122.1,69.3,117.2,73.5,112.3 M44.7,139.9c-5.6,3.6-10.5,7.2-14.1,10.3c2.9,0.2,6.5-0.6,9.3-1.4c4.7-1.2,11-2.9,17.5-7.5
	c6.6-4.6,11-10.4,13.4-16c1.1-2.5,1.7-5.3,2.1-8.1C64.8,125.9,53.4,134.3,44.7,139.9 M26.1,155.9c1.2,0.1,7.6-0.7,17.2-2.7
	c7.9-1.6,16.2-6,22.5-11.5c6.3-5.5,7.8-10.8,8.7-12.9c0.9-2.1,2.2-3.2,4.1-4.6c1.9-1.4,4.7-1.1,6.1-1.1c1.4,0,0.5-1.2,0.5-1.2
	s-2.8-0.6-4.8-0.2c-1.9,0.4-3.8,1.8-3.8,1.8s0.3-1.7,1-6.2c0.3-2.1,0.4-9.7,0.4-12.2c0-3.8,0.7-9.9,2.7-14.6c1.5-3.6,4.2-7,5.3-8.4
	c0-0.9,0-2.3-0.1-3.3c-1.1,0.8-2.9,2.9-5.1,6c-2.9,4-3.9,8.8-4.6,15.2c-0.4,3.3-0.6,6.9-0.9,10.4c-0.1,1.7-0.4,4.9-0.4,4.9
	c-0.2,1.6-0.3,3.2-0.6,4.8c-0.9,6.6-1.8,11.2-11.5,20.1c-9.7,8.8-19.8,10.5-25.4,11.5c-3.7,0.7-7.2,0.9-9.1,1.1
	c-0.9,0.8-1.8,1.6-2.8,2.5c-0.2,0.1-0.3,0.3-0.4,0.4C25.3,155.7,25.7,155.8,26.1,155.9 M80.7,103.4c4.9-6.6,8.8-14.2,8.8-14.2
	s-1.3-1.2-2.7-4.5c0-0.1-0.1-0.2-0.1-0.3c-3.1,3.2-5,7.6-5.9,10.5c-1,3.1-1.2,7.1-1.4,10.2C79.9,104.5,80.3,104,80.7,103.4
	 M100.4,83.5c1.5-0.6,2.6-2.1,2.4-3.5c-0.2-1.4-1.9-2.6-3-2.5c-1.7,0.1-3.3,2-2.9,3.6C97.4,82.6,98.9,84.1,100.4,83.5 M96.6,72.2
	c-0.2-1.2-1.9-3.1-3.5-2.5c-1.6,0.6-2.2,1.9-2.1,2.8c0,1.5,0.5,3,2.9,3.1C96.1,75.6,96.8,73.4,96.6,72.2 M103.1,74.5
	c1.9-0.3,3.3-2.1,3-3.4c-0.3-1.3-1.9-2.6-3.1-2.6c-2.2,0.1-3.3,1.9-3.2,3.4C99.9,73.4,101.2,74.7,103.1,74.5 M114.9,60
	c4.4,0.2,10.4,0.3,14.6-2.5c3.8-2.5,5.7-7.7,5.6-11.2c-0.1-3.6-3.3-6.6-3.3-6.6c-0.3,0.4-1.1,1.3-2.1,2c1.3,2.2,0.7,6.4-4.9,7.7
	c-5.6,1.3-7.2-4.8-7.2-4.8s-5.9-1.6-8.6-1.5c-2.8,0.1-4.8,0.8-6,1.5c1.7,3.7-0.4,6.2-3.2,7.5c-2.8,1.3-4.8-0.5-6-2.6
	c-2.5,2-4.6,5.4-5.4,8.6c-0.9,3.2-1.1,5.8-0.2,10.8c1.4-2.3,2.9-4.4,8.6-7.1C102.7,59.2,110.5,59.8,114.9,60 M98.7,31.5
	c-0.9-5.1-2.3-8.5-3.6-10.6c-1,1.3-2.8,1-2.8,1c1.2,2,3.2,5.6,4,10.6c0.8,4.9-0.3,10.3-1.4,13.6c1.5-1.2,3.1-2.2,3.1-2.2
	S99.6,36.7,98.7,31.5 M75.8,10.2c1.4,1.1,3.1,2.7,4.4,4.4c2.7,3.6,6.9,8.1,9.2,17.6c1.8,7.4,2.1,14.1,2,16.1
	c0.1-0.1,0.3-0.6,0.4-0.7c1.2-2.1,2.2-4.7,2-11.5c-0.2-5.6-2.6-9.9-4.2-12.5L88.1,21c0,0-2.5-0.5-4.4-3.7c-1.9-3.2-2.5-4.6-2.5-4.6
	S78.8,10.9,75.8,10.2 M38.5,89.7c-0.7-1-0.2-1.2,0.6-1.1c0.7,0.1,2.5,0.3,4.5-0.4c2-0.7,4-1.4,6.1-6.1c2.1-4.7-0.2-9.3-1.7-12.3
	c-1.5-3-4.9-5.6-6.4-8.8c-1.4-3.2-1.2-3.9-0.2-6.4c1-2.4,4-3.6,4-3.6s-1-1.2-3-1.6c-2-0.4-4.3,0.7-6.3,2.3c-2,1.6-2.4,3.9-3.2,5.8
	c-0.5-0.5-1.3-1.3-2.2-1.9c-0.8-0.5-2.4-1.9-5.7-0.9c-3.8,1.2-3.8,5.4-3.5,6.5c0.4,1,0.4,1.6-0.2,1.8c-0.6,0.2-0.9-0.6-1.7-1.5
	c-0.8-0.9-2.3-2.1-5.6-0.5c-3,1.5-3.5,4.3-3.5,4.3c0.8,0.7,2.1,2.5,2.1,2.5s-1-0.6-3-1s-4,0.2-5.8,2c-1.4,1.4-2.5,3.4-1.9,3.1
	c0.7-0.4,2.1-0.7,4.8-0.2c2.7,0.5,6.5,4,9.5,8.8c3,4.9,2,7.8,5.3,11.6c1.8,2,5.6,5.2,9.3,3.5c3.7-1.7,4.5-5.1,4.5-5.1s0.6,1,2.3,3.5
	c1.4,2.1,2.3,5.4,2.7,6.3c0.7-0.7,1.6-1.8,2.3-2.5C41.7,94.3,39.2,90.7,38.5,89.7 M2.9,170.2c3.5-21.4,16-42,19.3-47
	c4.1-6,12-15.9,16.5-20.8c-0.2-1-0.7-2.9-1.5-4.4c-1.1-2.3-2.1-3.8-2.1-3.8s-1.3,2.5-4,3.2c-2.7,0.7-6.1,0-9.3-2.7
	c-3.2-2.7-4-5.4-5.2-8.9c-1-2.9-3.6-8.4-6.4-10.5c-2.8-2-5.5-3.3-7.3-2.6c-1.8,0.7-2.2,1.8-2.7,1.4c-0.4-0.4-0.6-1.2,1-3.5
	c1.6-2.3,3.4-4.9,7.4-5.6c0.9-2.1,2-4.4,4.9-5.9c3-1.4,5.4-0.1,6.4,0.5c0,0,0.4-5.1,4.7-6.4c4.3-1.4,7.6,1.4,7.6,1.4
	s2.6-5.7,7.5-6.3c4.9-0.6,6.9,1,7.7,2c0.8,1,0.9,1.7-0.1,2.2c-1,0.5-4.2,1.8-4.8,4.3c-0.6,2.4,1.3,5.2,3.5,7.7
	c1.7,1.8,5.9,7,6.3,11.7c0.4,4.8-0.9,8.3-3.3,10.9c-2.4,2.7-6.4,3.6-8,3.2c0,0,2.4,3.7,3.1,6.4c8.2-7.9,16.1-16.6,21.1-22.9
	c9.1-11.3,10.6-22.5,11.2-29c0.6-6.5-1-16.7-7-22.4c-6-5.7-13.8-3.9-16.9-1.7C49.3,23,48,26.1,48,26.1c-0.4-1.4,1.2-5.5,2.6-7.6
	c2-3.1,6.4-8.4,12.6-10.6C68.2,6,75.6,6.2,80.7,9c-0.6-2.9-0.7-5.6,1.2-7.1c1.9-1.5,4.4-1.9,6.2-0.4c0,0,2-1.2,3.6-0.9
	c1.7,0.3,4.2,2.1,4.2,2.1s-0.1-2.1,0.8-2.6c0.9-0.5,3.4,0.9,5.4,3.8c2,2.9,3.4,6.1,1.5,10.3c-1.9,4.2-5.3,6.6-5.3,6.6
	s1.7,3.3,2.5,7.3c0.4-0.2,0.8-1,1.2-1.7c0.9-1.7,3.6-4.9,7.8-3.9c4.3,0.9,6.5,4,6.3,7.8c-0.2,3.8-3.8,6.5-6.9,6.6
	c-3.1,0.1-5.6-1.5-6.7-3.1c-0.4-0.6-1.1-2.1-1.4-2.5c0.3,3.3,0.5,7.1-0.7,11.2l-0.2,0.5c1.5-0.5,3.4-0.9,5.3-1.4
	c4.1-1.1,7.7-0.5,12.7,1c5,1.5,7.3,0,10.1-1.5c2.8-1.5,2.6-3,3.3-3.7c0.6-0.6,1.6,0.8,3.4,3c1.9,2.2,2.2,5.4,2.2,5.4
	s2.4,2.4,3.5,5.4c1.1,3-0.2,6.1-0.2,6.1s0.4,0.2,1.8,0.8c1.5,0.6,4.6,3.2,5.8,7.1c1.2,3.9-2.5,7.3-2.5,7.3s1.4,2.6,0.4,5.4
	c-1,2.9-3.5,3.6-3.5,3.6s0.8,0.8,1.8,3.8c0.9,3,0.2,6.4-1.3,8.5c-1.5,2.2-2.7,1.9-4.7,1.2c-2-0.7-3.9-1.6-7.5-2.2
	c-3.7-0.6-9.1,1.2-14.8,3.6s-9.7,3.3-14.5,2.4c-4.7-0.9-7.5-3.9-10.3-7.3c-1.1,2-5.4,10.2-11.7,18.3c0,1.6,0,2.9,0,4.4
	c-0.1,2.8-0.7,6.5-0.7,6.5s1.3-0.4,2.8-0.7c1.5-0.3,4.2,0.4,4.2,0.4s2.3-3.2,6.1-4.8c3.8-1.6,8.6,0.3,11.7,1.7
	c3.1,1.4,4.3,3.1,4.2,3.9c-0.1,0.8-0.1,0.6-0.9,1.3c-0.2,0.9,0.7,1.6-1,3.7c-1.7,2.1-3.3,1.3-3.3,1.3s0.4,0.4,0.8,1.2
	c0.5,0.8,0.9,2.2-0.4,3.7c-1.3,1.5-3.1,0.5-3.1,0.5s0.4,1.1,0.1,1.9c-0.3,0.8-1.1,0.7-1.8,1.4c-0.7,0.7-2.7,0.4-2.9,0
	c-0.1-0.5-1-1.4-2-2.3c-1-0.9-3.2-2-5.3-3.6c-2.1-1.6-2.9-4-3.4-5.6c-1.2-0.5-3.1-0.2-4.8,0.6c-1.8,0.8-2.6,2.3-3.5,4.7
	c-0.9,2.4-3,7.5-7.7,12.2c-4.7,4.8-10.5,8.3-19.2,11.4c-8.7,3.1-19.6,4.3-22.2,4.7c-1.6,0.2-3.9,0.3-5.4,0.4
	c-3,3.4-5.4,7.1-7.7,10.6c1.2-1.1,3.3-2.6,6-3.8c4.8-2.2,10.8-4.1,16.1-4.4c5.3-0.3,8,0.1,8,0.1s0.7-2.9,3.4-4.9
	c2.7-2,5.9-2.8,9.3-2.3c3.4,0.4,4.8,1.1,6.6,0.8c1.8-0.3,3.4,0.4,3.5,1.8c0.1,1.4-2.3,2.7-2.3,2.7s1.3,1,1.1,2.8
	c-0.2,1.8-2.2,3.1-2.2,3.1s1.7,1,1.2,3c-0.5,2-1.8,2.2-2.8,2.4c0,2.4-0.9,3.3-1.9,3.9c-1,0.7-2,0.6-2,0.6s0.8,1.5-0.2,2.9
	c-1,1.4-2.5,2-3.6,1.8c-1.1-0.2-1.2-0.6-1.1-1.7c0.1-1.1-0.9-2.4-2-2.7c-1.1-0.3-4-0.6-6.1-3c-2.1-2.4-3.3-5.1-2.2-7.6
	c0,0-4.6-0.9-9.9,0.4c-5.3,1.3-11.5,3.1-16.5,6.8c-3.7,2.7-6.2,5.1-8.1,8.3c-1.7,4.4-3.2,9.2-4.1,13c-1.6,6.7-1.6,14.1-1.6,15.1
	c0,1-0.1,1.6-0.8,1.7c-0.6,0.1-0.8,0-1-1.5C0.7,206.9-0.4,190.8,2.9,170.2"/>
<path d="M88.3,78c0,0-0.1,6.7,6.2,9.7c6.3,3.1,12,2.6,16.7,1.1c4.8-1.6,9.5-5,14.6-5.1c5.1-0.1,9.3,1.1,11.3,4
	c2,2.9,2.7,5.4,2.7,5.4s1.5,0.3,2.5-1.6c0.9-1.9,0.6-5.7-0.3-7.5c-0.8-1.8-2.8-3.3-2.8-3.3s3.1-1.4,3.8-4.1c0.7-2.8-0.5-4.4-0.5-4.4
	s4-1.7,3.2-6.1c-0.8-4.4-3.7-6.1-5.2-6.6c-1.5-0.5-2.6,0.2-2.8-0.9c-0.2-1.1,0.7-3.1,0.6-5.3c-0.2-2.2-1.7-5-1.7-5s-0.3,2.3-1.1,4.5
	c-0.8,2.2-2.8,4.6-2.8,4.6s1.6,1.7,1.2,5.3c-0.4,3.6-2.5,6-2.5,6s3.6,2.4,4.6,6.3c0.9,3.9,0.3,5.9,0.4,7c0,1,0.4,2.3-1,1.5
	c-1.4-0.8-4.3-2.7-7.9-2.5c-3.6,0.2-7.7,1.6-12.9,4c-5.2,2.5-10.3,3.4-14.5,2.1c-4.1-1.4-7.1-2.4-9.3-5.3s-2.3-3.8-2.3-3.9
	C88.6,77.9,88.4,77.7,88.3,78"/>
<path d="M85.1,2.8c1.3,0.1,1.9,0.7,2.7,1.6c0.8,0.8,1,1.3,1.6,0.5c0.6-0.7,1.2-1.8,2.4-1.6c1.2,0.2,2,0.8,2.9,1.7s1.3,0.9,1.7,0.2
	c0.4-0.7,0.3-1.2,0.3-1.9c0-0.7,0.4-0.8,0.8-0.5c0.3,0.3,0,0.7,0.1,1.6c0.2,0.9,0.5,0.9,0.4,1.6c-0.1,0.7-1.1,0.8-1.2,1.6
	c-0.1,0.8,0.4,2-0.6,2.4c-1,0.4-1.5-0.3-2.3-1.1c-0.8-0.8-1.4-1.4-2.7-1.4c-1.3,0.1-1.8,0.1-2.5,0.7s-1-0.7-1.1-1.2
	c-0.1-0.5-0.4-2-1.5-2.8c-1.1-0.8-1.7-0.7-2.4-0.4c-0.7,0.4-1-0.1-0.3-0.5S84.6,2.7,85.1,2.8"/>
<path d="M102.6,123.8c-1.3,0.1-2.4-0.1-3-0.6c-0.5-0.5-0.7-0.3-0.4,0.7c0.4,1,0.4,2.4-0.2,3.8c-0.6,1.4-2.2,3.1-2.9,3.4
	c-0.7,0.3-0.9,0.4-0.4,0.9c0.5,0.4,1.2,1,1.5,1.8c0.3,0.7,0.2,1.2,0.3,1.4c0.1,0.2,0.9-0.4,1.1-1.1c0.2-0.7,0-1.6-0.1-2.1
	c-0.2-0.5,0-0.4,0.7-0.3c0.6,0.1,2,0.4,2.7-0.5c0.6-0.9,0.6-2.1,0-3.2c-0.6-1.1-0.2-1,0.4-1.2c0.6-0.2,2-0.7,2.8-2
	c0.8-1.3,0.5-2.3,0.5-2.3S104.5,123.6,102.6,123.8"/>
</svg>
